<svg width="400" height="400" viewBox="0 0 400 400" fill="none" xmlns="http://www.w3.org/2000/svg">
<rect width="400" height="400" fill="#B0EACD"/>
<rect x="15" y="15" width="370" height="370" rx="35" fill="#21BF73"/>
<rect x="308" y="34" width="49" height="25" rx="12.5" fill="#B0EACD"/>
<ellipse cx="324.719" cy="46.2105" rx="10.7188" ry="9.21053" fill="white"/>
<path d="M324.5 43.244C322.705 43.244 321.244 44.7049 321.244 46.5003C321.244 48.2957 322.705 49.7566 324.5 49.7566C326.295 49.7566 327.756 48.296 327.756 46.5003C327.756 44.7046 326.295 43.244 324.5 43.244Z" fill="#FFE605"/>
<path d="M324.5 42.2868C324.149 42.2868 323.865 42.0024 323.865 41.6518V40.6353C323.865 40.2844 324.149 40 324.5 40C324.851 40 325.135 40.2844 325.135 40.6353V41.6518C325.135 42.0024 324.851 42.2868 324.5 42.2868Z" fill="#FFE605"/>
<path d="M324.5 50.7129C324.149 50.7129 323.865 50.9973 323.865 51.3482V52.3644C323.865 52.7156 324.149 53 324.5 53C324.851 53 325.135 52.7156 325.135 52.3644V51.3482C325.135 50.9973 324.851 50.7129 324.5 50.7129Z" fill="#FFE605"/>
<path d="M327.479 43.5209C327.231 43.2728 327.231 42.8706 327.479 42.6225L328.198 41.9037C328.446 41.6558 328.848 41.6558 329.096 41.9037C329.344 42.1518 329.344 42.5542 329.096 42.8021L328.377 43.5209C328.129 43.769 327.727 43.769 327.479 43.5209Z" fill="#FFE605"/>
<path d="M321.521 49.4794C321.273 49.231 320.871 49.231 320.622 49.4794L319.904 50.1979C319.656 50.4458 319.656 50.8485 319.904 51.0964C320.152 51.3442 320.554 51.3442 320.802 51.0964L321.521 50.3773C321.769 50.1294 321.769 49.727 321.521 49.4794Z" fill="#FFE605"/>
<path d="M328.713 46.5C328.713 46.1491 328.997 45.8647 329.348 45.8647H330.365C330.716 45.8647 331 46.1491 331 46.5C331 46.8509 330.716 47.135 330.365 47.135H329.348C328.997 47.135 328.713 46.8509 328.713 46.5Z" fill="#FFE605"/>
<path d="M320.287 46.5C320.287 46.1491 320.002 45.8647 319.651 45.8647H318.635C318.284 45.8647 318 46.1491 318 46.5C318 46.8509 318.284 47.135 318.635 47.135H319.652C320.002 47.135 320.287 46.8509 320.287 46.5Z" fill="#FFE605"/>
<path d="M327.479 49.4794C327.727 49.2316 328.129 49.2316 328.377 49.4794L329.096 50.1982C329.344 50.4458 329.344 50.8485 329.096 51.0963C328.848 51.3442 328.446 51.3442 328.198 51.0963L327.479 50.3775C327.231 50.1294 327.231 49.7273 327.479 49.4794Z" fill="#FFE605"/>
<path d="M321.521 43.5209C321.769 43.2727 321.769 42.8706 321.521 42.6225L320.802 41.9039C320.554 41.6558 320.152 41.6558 319.904 41.9039C319.656 42.1518 319.656 42.5542 319.904 42.8021L320.622 43.5209C320.871 43.7693 321.273 43.7693 321.521 43.5209Z" fill="#FFE605"/>
<path d="M156.138 91.312C154.699 91.312 153.304 91.1213 151.952 90.74C150.617 90.3413 149.543 89.83 148.728 89.206L150.158 86.034C150.938 86.606 151.865 87.0653 152.94 87.412C154.015 87.7587 155.089 87.932 156.164 87.932C157.36 87.932 158.244 87.7587 158.816 87.412C159.388 87.048 159.674 86.5713 159.674 85.982C159.674 85.5487 159.501 85.1933 159.154 84.916C158.825 84.6213 158.391 84.3873 157.854 84.214C157.334 84.0407 156.623 83.85 155.722 83.642C154.335 83.3127 153.2 82.9833 152.316 82.654C151.432 82.3247 150.669 81.796 150.028 81.068C149.404 80.34 149.092 79.3693 149.092 78.156C149.092 77.0987 149.378 76.1453 149.95 75.296C150.522 74.4293 151.38 73.7447 152.524 73.242C153.685 72.7393 155.098 72.488 156.762 72.488C157.923 72.488 159.059 72.6267 160.168 72.904C161.277 73.1813 162.248 73.58 163.08 74.1L161.78 77.298C160.099 76.3447 158.417 75.868 156.736 75.868C155.557 75.868 154.682 76.0587 154.11 76.44C153.555 76.8213 153.278 77.324 153.278 77.948C153.278 78.572 153.599 79.04 154.24 79.352C154.899 79.6467 155.895 79.9413 157.23 80.236C158.617 80.5653 159.752 80.8947 160.636 81.224C161.52 81.5533 162.274 82.0733 162.898 82.784C163.539 83.4947 163.86 84.4567 163.86 85.67C163.86 86.71 163.565 87.6633 162.976 88.53C162.404 89.3793 161.537 90.0553 160.376 90.558C159.215 91.0607 157.802 91.312 156.138 91.312ZM180.154 84.058C180.154 84.11 180.128 84.474 180.076 85.15H169.494C169.685 86.0167 170.135 86.7013 170.846 87.204C171.557 87.7067 172.441 87.958 173.498 87.958C174.226 87.958 174.867 87.854 175.422 87.646C175.994 87.4207 176.523 87.074 177.008 86.606L179.166 88.946C177.849 90.454 175.925 91.208 173.394 91.208C171.817 91.208 170.421 90.9047 169.208 90.298C167.995 89.674 167.059 88.816 166.4 87.724C165.741 86.632 165.412 85.3927 165.412 84.006C165.412 82.6367 165.733 81.406 166.374 80.314C167.033 79.2047 167.925 78.3467 169.052 77.74C170.196 77.116 171.47 76.804 172.874 76.804C174.243 76.804 175.483 77.0987 176.592 77.688C177.701 78.2773 178.568 79.1267 179.192 80.236C179.833 81.328 180.154 82.602 180.154 84.058ZM172.9 79.872C171.981 79.872 171.21 80.132 170.586 80.652C169.962 81.172 169.581 81.8827 169.442 82.784H176.332C176.193 81.9 175.812 81.198 175.188 80.678C174.564 80.1407 173.801 79.872 172.9 79.872ZM191.876 90.324C191.478 90.6187 190.984 90.844 190.394 91C189.822 91.1387 189.216 91.208 188.574 91.208C186.91 91.208 185.619 90.7833 184.7 89.934C183.799 89.0847 183.348 87.8367 183.348 86.19V80.444H181.19V77.324H183.348V73.918H187.404V77.324H190.888V80.444H187.404V86.138C187.404 86.7273 187.552 87.1867 187.846 87.516C188.158 87.828 188.592 87.984 189.146 87.984C189.788 87.984 190.334 87.8107 190.784 87.464L191.876 90.324ZM202.871 90.324C202.472 90.6187 201.978 90.844 201.389 91C200.817 91.1387 200.21 91.208 199.569 91.208C197.905 91.208 196.613 90.7833 195.695 89.934C194.793 89.0847 194.343 87.8367 194.343 86.19V80.444H192.185V77.324H194.343V73.918H198.399V77.324H201.883V80.444H198.399V86.138C198.399 86.7273 198.546 87.1867 198.841 87.516C199.153 87.828 199.586 87.984 200.141 87.984C200.782 87.984 201.328 87.8107 201.779 87.464L202.871 90.324ZM205.147 77.012H209.203V91H205.147V77.012ZM207.175 75.062C206.43 75.062 205.823 74.8453 205.355 74.412C204.887 73.9787 204.653 73.4413 204.653 72.8C204.653 72.1587 204.887 71.6213 205.355 71.188C205.823 70.7547 206.43 70.538 207.175 70.538C207.921 70.538 208.527 70.746 208.995 71.162C209.463 71.578 209.697 72.098 209.697 72.722C209.697 73.398 209.463 73.9613 208.995 74.412C208.527 74.8453 207.921 75.062 207.175 75.062ZM221.47 76.804C223.203 76.804 224.598 77.324 225.656 78.364C226.73 79.404 227.268 80.9467 227.268 82.992V91H223.212V83.616C223.212 82.5067 222.969 81.6833 222.484 81.146C221.998 80.5913 221.296 80.314 220.378 80.314C219.355 80.314 218.54 80.6347 217.934 81.276C217.327 81.9 217.024 82.836 217.024 84.084V91H212.968V77.012H216.842V78.65C217.379 78.0607 218.046 77.61 218.844 77.298C219.641 76.9687 220.516 76.804 221.47 76.804ZM245.527 77.012V88.66C245.527 91.2253 244.859 93.132 243.525 94.38C242.19 95.628 240.24 96.252 237.675 96.252C236.323 96.252 235.04 96.0873 233.827 95.758C232.613 95.4287 231.608 94.952 230.811 94.328L232.423 91.416C233.012 91.9013 233.757 92.2827 234.659 92.56C235.56 92.8547 236.461 93.002 237.363 93.002C238.767 93.002 239.798 92.6813 240.457 92.04C241.133 91.416 241.471 90.4627 241.471 89.18V88.582C240.413 89.7433 238.94 90.324 237.051 90.324C235.768 90.324 234.589 90.0467 233.515 89.492C232.457 88.92 231.617 88.1227 230.993 87.1C230.369 86.0773 230.057 84.8987 230.057 83.564C230.057 82.2293 230.369 81.0507 230.993 80.028C231.617 79.0053 232.457 78.2167 233.515 77.662C234.589 77.09 235.768 76.804 237.051 76.804C239.079 76.804 240.621 77.4713 241.679 78.806V77.012H245.527ZM237.857 86.996C238.931 86.996 239.807 86.684 240.483 86.06C241.176 85.4187 241.523 84.5867 241.523 83.564C241.523 82.5413 241.176 81.718 240.483 81.094C239.807 80.4527 238.931 80.132 237.857 80.132C236.782 80.132 235.898 80.4527 235.205 81.094C234.511 81.718 234.165 82.5413 234.165 83.564C234.165 84.5867 234.511 85.4187 235.205 86.06C235.898 86.684 236.782 86.996 237.857 86.996ZM254.008 91.208C252.846 91.208 251.711 91.0693 250.602 90.792C249.492 90.4973 248.608 90.1333 247.95 89.7L249.302 86.788C249.926 87.1867 250.68 87.516 251.564 87.776C252.448 88.0187 253.314 88.14 254.164 88.14C255.88 88.14 256.738 87.7153 256.738 86.866C256.738 86.4673 256.504 86.1813 256.036 86.008C255.568 85.8347 254.848 85.6873 253.878 85.566C252.734 85.3927 251.789 85.1933 251.044 84.968C250.298 84.7427 249.648 84.344 249.094 83.772C248.556 83.2 248.288 82.3853 248.288 81.328C248.288 80.444 248.539 79.664 249.042 78.988C249.562 78.2947 250.307 77.7573 251.278 77.376C252.266 76.9947 253.427 76.804 254.762 76.804C255.75 76.804 256.729 76.9167 257.7 77.142C258.688 77.35 259.502 77.6447 260.144 78.026L258.792 80.912C257.561 80.2187 256.218 79.872 254.762 79.872C253.895 79.872 253.245 79.9933 252.812 80.236C252.378 80.4787 252.162 80.7907 252.162 81.172C252.162 81.6053 252.396 81.9087 252.864 82.082C253.332 82.2553 254.077 82.42 255.1 82.576C256.244 82.7667 257.18 82.9747 257.908 83.2C258.636 83.408 259.268 83.798 259.806 84.37C260.343 84.942 260.612 85.7393 260.612 86.762C260.612 87.6287 260.352 88.4 259.832 89.076C259.312 89.752 258.549 90.2807 257.544 90.662C256.556 91.026 255.377 91.208 254.008 91.208Z" fill="white"/>
<line x1="37" y1="157.5" x2="373" y2="157.5" stroke="#717171"/>
<line x1="37" y1="198.818" x2="373" y2="198.818" stroke="#717171"/>
<line x1="37" y1="240.136" x2="373" y2="241.284" stroke="#717171"/>
<line x1="37" y1="282.602" x2="373" y2="283.75" stroke="#717171"/>
<line x1="37" y1="325.068" x2="373" y2="326.216" stroke="#717171"/>
<path d="M54.573 149.252C53.411 149.252 52.284 149.098 51.192 148.79C50.114 148.468 49.246 148.055 48.588 147.551L49.743 144.989C50.373 145.451 51.122 145.822 51.99 146.102C52.858 146.382 53.726 146.522 54.594 146.522C55.56 146.522 56.274 146.382 56.736 146.102C57.198 145.808 57.429 145.423 57.429 144.947C57.429 144.597 57.289 144.31 57.009 144.086C56.743 143.848 56.393 143.659 55.959 143.519C55.539 143.379 54.965 143.225 54.237 143.057C53.117 142.791 52.2 142.525 51.486 142.259C50.772 141.993 50.156 141.566 49.638 140.978C49.134 140.39 48.882 139.606 48.882 138.626C48.882 137.772 49.113 137.002 49.575 136.316C50.037 135.616 50.73 135.063 51.654 134.657C52.592 134.251 53.733 134.048 55.077 134.048C56.015 134.048 56.932 134.16 57.828 134.384C58.724 134.608 59.508 134.93 60.18 135.35L59.13 137.933C57.772 137.163 56.414 136.778 55.056 136.778C54.104 136.778 53.397 136.932 52.935 137.24C52.487 137.548 52.263 137.954 52.263 138.458C52.263 138.962 52.522 139.34 53.04 139.592C53.572 139.83 54.377 140.068 55.455 140.306C56.575 140.572 57.492 140.838 58.206 141.104C58.92 141.37 59.529 141.79 60.033 142.364C60.551 142.938 60.81 143.715 60.81 144.695C60.81 145.535 60.572 146.305 60.096 147.005C59.634 147.691 58.934 148.237 57.996 148.643C57.058 149.049 55.917 149.252 54.573 149.252ZM73.9706 143.393C73.9706 143.435 73.9496 143.729 73.9076 144.275H65.3606C65.5146 144.975 65.8786 145.528 66.4526 145.934C67.0266 146.34 67.7406 146.543 68.5946 146.543C69.1826 146.543 69.7006 146.459 70.1486 146.291C70.6106 146.109 71.0376 145.829 71.4296 145.451L73.1726 147.341C72.1086 148.559 70.5546 149.168 68.5106 149.168C67.2366 149.168 66.1096 148.923 65.1296 148.433C64.1496 147.929 63.3936 147.236 62.8616 146.354C62.3296 145.472 62.0636 144.471 62.0636 143.351C62.0636 142.245 62.3226 141.251 62.8406 140.369C63.3726 139.473 64.0936 138.78 65.0036 138.29C65.9276 137.786 66.9566 137.534 68.0906 137.534C69.1966 137.534 70.1976 137.772 71.0936 138.248C71.9896 138.724 72.6896 139.41 73.1936 140.306C73.7116 141.188 73.9706 142.217 73.9706 143.393ZM68.1116 140.012C67.3696 140.012 66.7466 140.222 66.2426 140.642C65.7386 141.062 65.4306 141.636 65.3186 142.364H70.8836C70.7716 141.65 70.4636 141.083 69.9596 140.663C69.4556 140.229 68.8396 140.012 68.1116 140.012ZM83.4386 148.454C83.1166 148.692 82.7176 148.874 82.2416 149C81.7796 149.112 81.2896 149.168 80.7716 149.168C79.4276 149.168 78.3846 148.825 77.6426 148.139C76.9146 147.453 76.5506 146.445 76.5506 145.115V140.474H74.8076V137.954H76.5506V135.203H79.8266V137.954H82.6406V140.474H79.8266V145.073C79.8266 145.549 79.9456 145.92 80.1836 146.186C80.4356 146.438 80.7856 146.564 81.2336 146.564C81.7516 146.564 82.1926 146.424 82.5566 146.144L83.4386 148.454ZM92.3185 148.454C91.9965 148.692 91.5975 148.874 91.1215 149C90.6595 149.112 90.1695 149.168 89.6515 149.168C88.3075 149.168 87.2645 148.825 86.5225 148.139C85.7945 147.453 85.4305 146.445 85.4305 145.115V140.474H83.6875V137.954H85.4305V135.203H88.7065V137.954H91.5205V140.474H88.7065V145.073C88.7065 145.549 88.8255 145.92 89.0635 146.186C89.3155 146.438 89.6655 146.564 90.1135 146.564C90.6315 146.564 91.0725 146.424 91.4365 146.144L92.3185 148.454ZM94.1575 137.702H97.4335V149H94.1575V137.702ZM95.7955 136.127C95.1935 136.127 94.7035 135.952 94.3255 135.602C93.9475 135.252 93.7585 134.818 93.7585 134.3C93.7585 133.782 93.9475 133.348 94.3255 132.998C94.7035 132.648 95.1935 132.473 95.7955 132.473C96.3975 132.473 96.8875 132.641 97.2655 132.977C97.6435 133.313 97.8325 133.733 97.8325 134.237C97.8325 134.783 97.6435 135.238 97.2655 135.602C96.8875 135.952 96.3975 136.127 95.7955 136.127ZM107.341 137.534C108.741 137.534 109.868 137.954 110.722 138.794C111.59 139.634 112.024 140.88 112.024 142.532V149H108.748V143.036C108.748 142.14 108.552 141.475 108.16 141.041C107.768 140.593 107.201 140.369 106.459 140.369C105.633 140.369 104.975 140.628 104.485 141.146C103.995 141.65 103.75 142.406 103.75 143.414V149H100.474V137.702H103.603V139.025C104.037 138.549 104.576 138.185 105.22 137.933C105.864 137.667 106.571 137.534 107.341 137.534ZM126.771 137.702V147.11C126.771 149.182 126.232 150.722 125.154 151.73C124.076 152.738 122.501 153.242 120.429 153.242C119.337 153.242 118.301 153.109 117.321 152.843C116.341 152.577 115.529 152.192 114.885 151.688L116.187 149.336C116.663 149.728 117.265 150.036 117.993 150.26C118.721 150.498 119.449 150.617 120.177 150.617C121.311 150.617 122.144 150.358 122.676 149.84C123.222 149.336 123.495 148.566 123.495 147.53V147.047C122.641 147.985 121.451 148.454 119.925 148.454C118.889 148.454 117.937 148.23 117.069 147.782C116.215 147.32 115.536 146.676 115.032 145.85C114.528 145.024 114.276 144.072 114.276 142.994C114.276 141.916 114.528 140.964 115.032 140.138C115.536 139.312 116.215 138.675 117.069 138.227C117.937 137.765 118.889 137.534 119.925 137.534C121.563 137.534 122.809 138.073 123.663 139.151V137.702H126.771ZM120.576 145.766C121.444 145.766 122.151 145.514 122.697 145.01C123.257 144.492 123.537 143.82 123.537 142.994C123.537 142.168 123.257 141.503 122.697 140.999C122.151 140.481 121.444 140.222 120.576 140.222C119.708 140.222 118.994 140.481 118.434 140.999C117.874 141.503 117.594 142.168 117.594 142.994C117.594 143.82 117.874 144.492 118.434 145.01C118.994 145.514 119.708 145.766 120.576 145.766ZM133.622 149.168C132.684 149.168 131.767 149.056 130.871 148.832C129.975 148.594 129.261 148.3 128.729 147.95L129.821 145.598C130.325 145.92 130.934 146.186 131.648 146.396C132.362 146.592 133.062 146.69 133.748 146.69C135.134 146.69 135.827 146.347 135.827 145.661C135.827 145.339 135.638 145.108 135.26 144.968C134.882 144.828 134.301 144.709 133.517 144.611C132.593 144.471 131.83 144.31 131.228 144.128C130.626 143.946 130.101 143.624 129.653 143.162C129.219 142.7 129.002 142.042 129.002 141.188C129.002 140.474 129.205 139.844 129.611 139.298C130.031 138.738 130.633 138.304 131.417 137.996C132.215 137.688 133.153 137.534 134.231 137.534C135.029 137.534 135.82 137.625 136.604 137.807C137.402 137.975 138.06 138.213 138.578 138.521L137.486 140.852C136.492 140.292 135.407 140.012 134.231 140.012C133.531 140.012 133.006 140.11 132.656 140.306C132.306 140.502 132.131 140.754 132.131 141.062C132.131 141.412 132.32 141.657 132.698 141.797C133.076 141.937 133.678 142.07 134.504 142.196C135.428 142.35 136.184 142.518 136.772 142.7C137.36 142.868 137.871 143.183 138.305 143.645C138.739 144.107 138.956 144.751 138.956 145.577C138.956 146.277 138.746 146.9 138.326 147.446C137.906 147.992 137.29 148.419 136.478 148.727C135.68 149.021 134.728 149.168 133.622 149.168ZM160.637 134.3V149H157.235V142.973H150.557V149H147.155V134.3H150.557V140.096H157.235V134.3H160.637ZM169.26 149.168C168.07 149.168 166.999 148.923 166.047 148.433C165.109 147.929 164.374 147.236 163.842 146.354C163.31 145.472 163.044 144.471 163.044 143.351C163.044 142.231 163.31 141.23 163.842 140.348C164.374 139.466 165.109 138.78 166.047 138.29C166.999 137.786 168.07 137.534 169.26 137.534C170.45 137.534 171.514 137.786 172.452 138.29C173.39 138.78 174.125 139.466 174.657 140.348C175.189 141.23 175.455 142.231 175.455 143.351C175.455 144.471 175.189 145.472 174.657 146.354C174.125 147.236 173.39 147.929 172.452 148.433C171.514 148.923 170.45 149.168 169.26 149.168ZM169.26 146.48C170.1 146.48 170.786 146.2 171.318 145.64C171.864 145.066 172.137 144.303 172.137 143.351C172.137 142.399 171.864 141.643 171.318 141.083C170.786 140.509 170.1 140.222 169.26 140.222C168.42 140.222 167.727 140.509 167.181 141.083C166.635 141.643 166.362 142.399 166.362 143.351C166.362 144.303 166.635 145.066 167.181 145.64C167.727 146.2 168.42 146.48 169.26 146.48ZM184.932 148.454C184.61 148.692 184.211 148.874 183.735 149C183.273 149.112 182.783 149.168 182.265 149.168C180.921 149.168 179.878 148.825 179.136 148.139C178.408 147.453 178.044 146.445 178.044 145.115V140.474H176.301V137.954H178.044V135.203H181.32V137.954H184.134V140.474H181.32V145.073C181.32 145.549 181.439 145.92 181.677 146.186C181.929 146.438 182.279 146.564 182.727 146.564C183.245 146.564 183.686 146.424 184.05 146.144L184.932 148.454ZM192.357 143.225L190.383 145.283V149H187.002V134.3H190.383V141.167L196.893 134.3H200.673L194.583 140.852L201.03 149H197.061L192.357 143.225ZM212.911 143.393C212.911 143.435 212.89 143.729 212.848 144.275H204.301C204.455 144.975 204.819 145.528 205.393 145.934C205.967 146.34 206.681 146.543 207.535 146.543C208.123 146.543 208.641 146.459 209.089 146.291C209.551 146.109 209.978 145.829 210.37 145.451L212.113 147.341C211.049 148.559 209.495 149.168 207.451 149.168C206.177 149.168 205.05 148.923 204.07 148.433C203.09 147.929 202.334 147.236 201.802 146.354C201.27 145.472 201.004 144.471 201.004 143.351C201.004 142.245 201.263 141.251 201.781 140.369C202.313 139.473 203.034 138.78 203.944 138.29C204.868 137.786 205.897 137.534 207.031 137.534C208.137 137.534 209.138 137.772 210.034 138.248C210.93 138.724 211.63 139.41 212.134 140.306C212.652 141.188 212.911 142.217 212.911 143.393ZM207.052 140.012C206.31 140.012 205.687 140.222 205.183 140.642C204.679 141.062 204.371 141.636 204.259 142.364H209.824C209.712 141.65 209.404 141.083 208.9 140.663C208.396 140.229 207.78 140.012 207.052 140.012ZM226.101 137.702L220.998 149.693C220.48 150.995 219.836 151.912 219.066 152.444C218.31 152.976 217.393 153.242 216.315 153.242C215.727 153.242 215.146 153.151 214.572 152.969C213.998 152.787 213.529 152.535 213.165 152.213L214.362 149.882C214.614 150.106 214.901 150.281 215.223 150.407C215.559 150.533 215.888 150.596 216.21 150.596C216.658 150.596 217.022 150.484 217.302 150.26C217.582 150.05 217.834 149.693 218.058 149.189L218.1 149.084L213.207 137.702H216.588L219.759 145.367L222.951 137.702H226.101Z" fill="white"/>
<path d="M49.743 171.3H53.145V186H49.743V171.3ZM63.2696 174.534C64.6696 174.534 65.7966 174.954 66.6506 175.794C67.5186 176.634 67.9526 177.88 67.9526 179.532V186H64.6766V180.036C64.6766 179.14 64.4806 178.475 64.0886 178.041C63.6966 177.593 63.1296 177.369 62.3876 177.369C61.5616 177.369 60.9036 177.628 60.4136 178.146C59.9236 178.65 59.6786 179.406 59.6786 180.414V186H56.4026V174.702H59.5316V176.025C59.9656 175.549 60.5046 175.185 61.1486 174.933C61.7926 174.667 62.4996 174.534 63.2696 174.534ZM77.6002 174.534C78.6502 174.534 79.6022 174.779 80.4562 175.269C81.3242 175.745 82.0032 176.424 82.4932 177.306C82.9832 178.174 83.2282 179.189 83.2282 180.351C83.2282 181.513 82.9832 182.535 82.4932 183.417C82.0032 184.285 81.3242 184.964 80.4562 185.454C79.6022 185.93 78.6502 186.168 77.6002 186.168C76.1582 186.168 75.0242 185.713 74.1982 184.803V190.074H70.9222V174.702H74.0512V176.004C74.8632 175.024 76.0462 174.534 77.6002 174.534ZM77.0332 183.48C77.8732 183.48 78.5592 183.2 79.0912 182.64C79.6372 182.066 79.9102 181.303 79.9102 180.351C79.9102 179.399 79.6372 178.643 79.0912 178.083C78.5592 177.509 77.8732 177.222 77.0332 177.222C76.1932 177.222 75.5002 177.509 74.9542 178.083C74.4222 178.643 74.1562 179.399 74.1562 180.351C74.1562 181.303 74.4222 182.066 74.9542 182.64C75.5002 183.2 76.1932 183.48 77.0332 183.48ZM96.8032 174.702V186H93.6952V184.656C93.2612 185.146 92.7432 185.524 92.1412 185.79C91.5392 186.042 90.8882 186.168 90.1882 186.168C88.7042 186.168 87.5282 185.741 86.6602 184.887C85.7922 184.033 85.3582 182.766 85.3582 181.086V174.702H88.6342V180.603C88.6342 182.423 89.3972 183.333 90.9232 183.333C91.7072 183.333 92.3372 183.081 92.8132 182.577C93.2892 182.059 93.5272 181.296 93.5272 180.288V174.702H96.8032ZM107.125 185.454C106.803 185.692 106.404 185.874 105.928 186C105.466 186.112 104.976 186.168 104.458 186.168C103.114 186.168 102.071 185.825 101.329 185.139C100.601 184.453 100.237 183.445 100.237 182.115V177.474H98.4942V174.954H100.237V172.203H103.513V174.954H106.327V177.474H103.513V182.073C103.513 182.549 103.632 182.92 103.87 183.186C104.122 183.438 104.472 183.564 104.92 183.564C105.438 183.564 105.879 183.424 106.243 183.144L107.125 185.454ZM129.275 171.3L122.912 186H119.552L113.21 171.3H116.885L121.358 181.8L125.894 171.3H129.275ZM130.477 174.702H133.753V186H130.477V174.702ZM132.115 173.127C131.513 173.127 131.023 172.952 130.645 172.602C130.267 172.252 130.078 171.818 130.078 171.3C130.078 170.782 130.267 170.348 130.645 169.998C131.023 169.648 131.513 169.473 132.115 169.473C132.717 169.473 133.207 169.641 133.585 169.977C133.963 170.313 134.152 170.733 134.152 171.237C134.152 171.783 133.963 172.238 133.585 172.602C133.207 172.952 132.717 173.127 132.115 173.127ZM141.35 174.534C143.1 174.534 144.444 174.954 145.382 175.794C146.32 176.62 146.789 177.873 146.789 179.553V186H143.723V184.593C143.107 185.643 141.959 186.168 140.279 186.168C139.411 186.168 138.655 186.021 138.011 185.727C137.381 185.433 136.898 185.027 136.562 184.509C136.226 183.991 136.058 183.403 136.058 182.745C136.058 181.695 136.45 180.869 137.234 180.267C138.032 179.665 139.257 179.364 140.909 179.364H143.513C143.513 178.65 143.296 178.104 142.862 177.726C142.428 177.334 141.777 177.138 140.909 177.138C140.307 177.138 139.712 177.236 139.124 177.432C138.55 177.614 138.06 177.866 137.654 178.188L136.478 175.899C137.094 175.465 137.829 175.129 138.683 174.891C139.551 174.653 140.44 174.534 141.35 174.534ZM141.098 183.963C141.658 183.963 142.155 183.837 142.589 183.585C143.023 183.319 143.331 182.934 143.513 182.43V181.275H141.266C139.922 181.275 139.25 181.716 139.25 182.598C139.25 183.018 139.411 183.354 139.733 183.606C140.069 183.844 140.524 183.963 141.098 183.963Z" fill="white"/>
<path d="M344 176L350 181L356 176" stroke="white" stroke-linecap="round"/>
<path d="M55.098 221.225L53.124 223.283V227H49.743V212.3H53.124V219.167L59.634 212.3H63.414L57.324 218.852L63.771 227H59.802L55.098 221.225ZM75.6522 221.393C75.6522 221.435 75.6312 221.729 75.5892 222.275H67.0422C67.1962 222.975 67.5602 223.528 68.1342 223.934C68.7082 224.34 69.4222 224.543 70.2762 224.543C70.8642 224.543 71.3822 224.459 71.8302 224.291C72.2922 224.109 72.7192 223.829 73.1112 223.451L74.8542 225.341C73.7902 226.559 72.2362 227.168 70.1922 227.168C68.9182 227.168 67.7912 226.923 66.8112 226.433C65.8312 225.929 65.0752 225.236 64.5432 224.354C64.0112 223.472 63.7452 222.471 63.7452 221.351C63.7452 220.245 64.0042 219.251 64.5222 218.369C65.0542 217.473 65.7752 216.78 66.6852 216.29C67.6092 215.786 68.6382 215.534 69.7722 215.534C70.8782 215.534 71.8792 215.772 72.7752 216.248C73.6712 216.724 74.3712 217.41 74.8752 218.306C75.3932 219.188 75.6522 220.217 75.6522 221.393ZM69.7932 218.012C69.0512 218.012 68.4282 218.222 67.9242 218.642C67.4202 219.062 67.1122 219.636 67.0002 220.364H72.5652C72.4532 219.65 72.1452 219.083 71.6412 218.663C71.1372 218.229 70.5212 218.012 69.7932 218.012ZM88.8422 215.702L83.7392 227.693C83.2212 228.995 82.5772 229.912 81.8072 230.444C81.0512 230.976 80.1342 231.242 79.0562 231.242C78.4682 231.242 77.8872 231.151 77.3132 230.969C76.7392 230.787 76.2702 230.535 75.9062 230.213L77.1032 227.882C77.3552 228.106 77.6422 228.281 77.9642 228.407C78.3002 228.533 78.6292 228.596 78.9512 228.596C79.3992 228.596 79.7632 228.484 80.0432 228.26C80.3232 228.05 80.5752 227.693 80.7992 227.189L80.8412 227.084L75.9482 215.702H79.3292L82.5002 223.367L85.6922 215.702H88.8422ZM96.857 215.534C97.907 215.534 98.859 215.779 99.713 216.269C100.581 216.745 101.26 217.424 101.75 218.306C102.24 219.174 102.485 220.189 102.485 221.351C102.485 222.513 102.24 223.535 101.75 224.417C101.26 225.285 100.581 225.964 99.713 226.454C98.859 226.93 97.907 227.168 96.857 227.168C95.303 227.168 94.12 226.678 93.308 225.698V227H90.179V211.418H93.455V216.899C94.281 215.989 95.415 215.534 96.857 215.534ZM96.29 224.48C97.13 224.48 97.816 224.2 98.348 223.64C98.894 223.066 99.167 222.303 99.167 221.351C99.167 220.399 98.894 219.643 98.348 219.083C97.816 218.509 97.13 218.222 96.29 218.222C95.45 218.222 94.757 218.509 94.211 219.083C93.679 219.643 93.413 220.399 93.413 221.351C93.413 222.303 93.679 223.066 94.211 223.64C94.757 224.2 95.45 224.48 96.29 224.48ZM110.054 227.168C108.864 227.168 107.793 226.923 106.841 226.433C105.903 225.929 105.168 225.236 104.636 224.354C104.104 223.472 103.838 222.471 103.838 221.351C103.838 220.231 104.104 219.23 104.636 218.348C105.168 217.466 105.903 216.78 106.841 216.29C107.793 215.786 108.864 215.534 110.054 215.534C111.244 215.534 112.308 215.786 113.246 216.29C114.184 216.78 114.919 217.466 115.451 218.348C115.983 219.23 116.249 220.231 116.249 221.351C116.249 222.471 115.983 223.472 115.451 224.354C114.919 225.236 114.184 225.929 113.246 226.433C112.308 226.923 111.244 227.168 110.054 227.168ZM110.054 224.48C110.894 224.48 111.58 224.2 112.112 223.64C112.658 223.066 112.931 222.303 112.931 221.351C112.931 220.399 112.658 219.643 112.112 219.083C111.58 218.509 110.894 218.222 110.054 218.222C109.214 218.222 108.521 218.509 107.975 219.083C107.429 219.643 107.156 220.399 107.156 221.351C107.156 222.303 107.429 223.066 107.975 223.64C108.521 224.2 109.214 224.48 110.054 224.48ZM122.811 215.534C124.561 215.534 125.905 215.954 126.843 216.794C127.781 217.62 128.25 218.873 128.25 220.553V227H125.184V225.593C124.568 226.643 123.42 227.168 121.74 227.168C120.872 227.168 120.116 227.021 119.472 226.727C118.842 226.433 118.359 226.027 118.023 225.509C117.687 224.991 117.519 224.403 117.519 223.745C117.519 222.695 117.911 221.869 118.695 221.267C119.493 220.665 120.718 220.364 122.37 220.364H124.974C124.974 219.65 124.757 219.104 124.323 218.726C123.889 218.334 123.238 218.138 122.37 218.138C121.768 218.138 121.173 218.236 120.585 218.432C120.011 218.614 119.521 218.866 119.115 219.188L117.939 216.899C118.555 216.465 119.29 216.129 120.144 215.891C121.012 215.653 121.901 215.534 122.811 215.534ZM122.559 224.963C123.119 224.963 123.616 224.837 124.05 224.585C124.484 224.319 124.792 223.934 124.974 223.43V222.275H122.727C121.383 222.275 120.711 222.716 120.711 223.598C120.711 224.018 120.872 224.354 121.194 224.606C121.53 224.844 121.985 224.963 122.559 224.963ZM134.344 217.193C134.736 216.647 135.261 216.234 135.919 215.954C136.591 215.674 137.361 215.534 138.229 215.534V218.558C137.865 218.53 137.62 218.516 137.494 218.516C136.556 218.516 135.821 218.782 135.289 219.314C134.757 219.832 134.491 220.616 134.491 221.666V227H131.215V215.702H134.344V217.193ZM151.583 211.418V227H148.454V225.698C147.642 226.678 146.466 227.168 144.926 227.168C143.862 227.168 142.896 226.93 142.028 226.454C141.174 225.978 140.502 225.299 140.012 224.417C139.522 223.535 139.277 222.513 139.277 221.351C139.277 220.189 139.522 219.167 140.012 218.285C140.502 217.403 141.174 216.724 142.028 216.248C142.896 215.772 143.862 215.534 144.926 215.534C146.368 215.534 147.495 215.989 148.307 216.899V211.418H151.583ZM145.493 224.48C146.319 224.48 147.005 224.2 147.551 223.64C148.097 223.066 148.37 222.303 148.37 221.351C148.37 220.399 148.097 219.643 147.551 219.083C147.005 218.509 146.319 218.222 145.493 218.222C144.653 218.222 143.96 218.509 143.414 219.083C142.868 219.643 142.595 220.399 142.595 221.351C142.595 222.303 142.868 223.066 143.414 223.64C143.96 224.2 144.653 224.48 145.493 224.48ZM174.275 212.3V227H170.873V220.973H164.195V227H160.793V212.3H164.195V218.096H170.873V212.3H174.275ZM182.898 227.168C181.708 227.168 180.637 226.923 179.685 226.433C178.747 225.929 178.012 225.236 177.48 224.354C176.948 223.472 176.682 222.471 176.682 221.351C176.682 220.231 176.948 219.23 177.48 218.348C178.012 217.466 178.747 216.78 179.685 216.29C180.637 215.786 181.708 215.534 182.898 215.534C184.088 215.534 185.152 215.786 186.09 216.29C187.028 216.78 187.763 217.466 188.295 218.348C188.827 219.23 189.093 220.231 189.093 221.351C189.093 222.471 188.827 223.472 188.295 224.354C187.763 225.236 187.028 225.929 186.09 226.433C185.152 226.923 184.088 227.168 182.898 227.168ZM182.898 224.48C183.738 224.48 184.424 224.2 184.956 223.64C185.502 223.066 185.775 222.303 185.775 221.351C185.775 220.399 185.502 219.643 184.956 219.083C184.424 218.509 183.738 218.222 182.898 218.222C182.058 218.222 181.365 218.509 180.819 219.083C180.273 219.643 180 220.399 180 221.351C180 222.303 180.273 223.066 180.819 223.64C181.365 224.2 182.058 224.48 182.898 224.48ZM198.57 226.454C198.248 226.692 197.849 226.874 197.373 227C196.911 227.112 196.421 227.168 195.903 227.168C194.559 227.168 193.516 226.825 192.774 226.139C192.046 225.453 191.682 224.445 191.682 223.115V218.474H189.939V215.954H191.682V213.203H194.958V215.954H197.772V218.474H194.958V223.073C194.958 223.549 195.077 223.92 195.315 224.186C195.567 224.438 195.917 224.564 196.365 224.564C196.883 224.564 197.324 224.424 197.688 224.144L198.57 226.454ZM205.259 222.569L203.684 224.123V227H200.408V211.418H203.684V220.238L208.472 215.702H212.378L207.674 220.49L212.798 227H208.829L205.259 222.569ZM224.847 221.393C224.847 221.435 224.826 221.729 224.784 222.275H216.237C216.391 222.975 216.755 223.528 217.329 223.934C217.903 224.34 218.617 224.543 219.471 224.543C220.059 224.543 220.577 224.459 221.025 224.291C221.487 224.109 221.914 223.829 222.306 223.451L224.049 225.341C222.985 226.559 221.431 227.168 219.387 227.168C218.113 227.168 216.986 226.923 216.006 226.433C215.026 225.929 214.27 225.236 213.738 224.354C213.206 223.472 212.94 222.471 212.94 221.351C212.94 220.245 213.199 219.251 213.717 218.369C214.249 217.473 214.97 216.78 215.88 216.29C216.804 215.786 217.833 215.534 218.967 215.534C220.073 215.534 221.074 215.772 221.97 216.248C222.866 216.724 223.566 217.41 224.07 218.306C224.588 219.188 224.847 220.217 224.847 221.393ZM218.988 218.012C218.246 218.012 217.623 218.222 217.119 218.642C216.615 219.062 216.307 219.636 216.195 220.364H221.76C221.648 219.65 221.34 219.083 220.836 218.663C220.332 218.229 219.716 218.012 218.988 218.012ZM238.037 215.702L232.934 227.693C232.416 228.995 231.772 229.912 231.002 230.444C230.246 230.976 229.329 231.242 228.251 231.242C227.663 231.242 227.082 231.151 226.508 230.969C225.934 230.787 225.465 230.535 225.101 230.213L226.298 227.882C226.55 228.106 226.837 228.281 227.159 228.407C227.495 228.533 227.824 228.596 228.146 228.596C228.594 228.596 228.958 228.484 229.238 228.26C229.518 228.05 229.77 227.693 229.994 227.189L230.036 227.084L225.143 215.702H228.524L231.695 223.367L234.887 215.702H238.037Z" fill="white"/>
<path d="M59.109 267L56.274 262.905H56.106H53.145V267H49.743V252.3H56.106C57.408 252.3 58.535 252.517 59.487 252.951C60.453 253.385 61.195 254.001 61.713 254.799C62.231 255.597 62.49 256.542 62.49 257.634C62.49 258.726 62.224 259.671 61.692 260.469C61.174 261.253 60.432 261.855 59.466 262.275L62.763 267H59.109ZM59.046 257.634C59.046 256.808 58.78 256.178 58.248 255.744C57.716 255.296 56.939 255.072 55.917 255.072H53.145V260.196H55.917C56.939 260.196 57.716 259.972 58.248 259.524C58.78 259.076 59.046 258.446 59.046 257.634ZM76.0214 261.393C76.0214 261.435 76.0004 261.729 75.9584 262.275H67.4114C67.5654 262.975 67.9294 263.528 68.5034 263.934C69.0774 264.34 69.7914 264.543 70.6454 264.543C71.2334 264.543 71.7514 264.459 72.1994 264.291C72.6614 264.109 73.0884 263.829 73.4804 263.451L75.2234 265.341C74.1594 266.559 72.6054 267.168 70.5614 267.168C69.2874 267.168 68.1604 266.923 67.1804 266.433C66.2004 265.929 65.4444 265.236 64.9124 264.354C64.3804 263.472 64.1144 262.471 64.1144 261.351C64.1144 260.245 64.3734 259.251 64.8914 258.369C65.4234 257.473 66.1444 256.78 67.0544 256.29C67.9784 255.786 69.0074 255.534 70.1414 255.534C71.2474 255.534 72.2484 255.772 73.1444 256.248C74.0404 256.724 74.7404 257.41 75.2444 258.306C75.7624 259.188 76.0214 260.217 76.0214 261.393ZM70.1624 258.012C69.4204 258.012 68.7974 258.222 68.2934 258.642C67.7894 259.062 67.4814 259.636 67.3694 260.364H72.9344C72.8224 259.65 72.5144 259.083 72.0104 258.663C71.5064 258.229 70.8904 258.012 70.1624 258.012ZM92.6714 255.534C94.0854 255.534 95.2054 255.954 96.0314 256.794C96.8714 257.62 97.2914 258.866 97.2914 260.532V267H94.0154V261.036C94.0154 260.14 93.8264 259.475 93.4484 259.041C93.0844 258.593 92.5594 258.369 91.8734 258.369C91.1034 258.369 90.4944 258.621 90.0464 259.125C89.5984 259.615 89.3744 260.35 89.3744 261.33V267H86.0984V261.036C86.0984 259.258 85.3844 258.369 83.9564 258.369C83.2004 258.369 82.5984 258.621 82.1504 259.125C81.7024 259.615 81.4784 260.35 81.4784 261.33V267H78.2024V255.702H81.3314V257.004C81.7514 256.528 82.2624 256.164 82.8644 255.912C83.4804 255.66 84.1524 255.534 84.8804 255.534C85.6784 255.534 86.3994 255.695 87.0434 256.017C87.6874 256.325 88.2054 256.78 88.5974 257.382C89.0594 256.794 89.6404 256.339 90.3404 256.017C91.0544 255.695 91.8314 255.534 92.6714 255.534ZM100.228 255.702H103.504V267H100.228V255.702ZM101.866 254.127C101.264 254.127 100.774 253.952 100.396 253.602C100.018 253.252 99.8288 252.818 99.8288 252.3C99.8288 251.782 100.018 251.348 100.396 250.998C100.774 250.648 101.264 250.473 101.866 250.473C102.468 250.473 102.958 250.641 103.336 250.977C103.714 251.313 103.903 251.733 103.903 252.237C103.903 252.783 103.714 253.238 103.336 253.602C102.958 253.952 102.468 254.127 101.866 254.127ZM113.411 255.534C114.811 255.534 115.938 255.954 116.792 256.794C117.66 257.634 118.094 258.88 118.094 260.532V267H114.818V261.036C114.818 260.14 114.622 259.475 114.23 259.041C113.838 258.593 113.271 258.369 112.529 258.369C111.703 258.369 111.045 258.628 110.555 259.146C110.065 259.65 109.82 260.406 109.82 261.414V267H106.544V255.702H109.673V257.025C110.107 256.549 110.646 256.185 111.29 255.933C111.934 255.667 112.641 255.534 113.411 255.534ZM132.695 251.418V267H129.566V265.698C128.754 266.678 127.578 267.168 126.038 267.168C124.974 267.168 124.008 266.93 123.14 266.454C122.286 265.978 121.614 265.299 121.124 264.417C120.634 263.535 120.389 262.513 120.389 261.351C120.389 260.189 120.634 259.167 121.124 258.285C121.614 257.403 122.286 256.724 123.14 256.248C124.008 255.772 124.974 255.534 126.038 255.534C127.48 255.534 128.607 255.989 129.419 256.899V251.418H132.695ZM126.605 264.48C127.431 264.48 128.117 264.2 128.663 263.64C129.209 263.066 129.482 262.303 129.482 261.351C129.482 260.399 129.209 259.643 128.663 259.083C128.117 258.509 127.431 258.222 126.605 258.222C125.765 258.222 125.072 258.509 124.526 259.083C123.98 259.643 123.707 260.399 123.707 261.351C123.707 262.303 123.98 263.066 124.526 263.64C125.072 264.2 125.765 264.48 126.605 264.48ZM146.794 261.393C146.794 261.435 146.773 261.729 146.731 262.275H138.184C138.338 262.975 138.702 263.528 139.276 263.934C139.85 264.34 140.564 264.543 141.418 264.543C142.006 264.543 142.524 264.459 142.972 264.291C143.434 264.109 143.861 263.829 144.253 263.451L145.996 265.341C144.932 266.559 143.378 267.168 141.334 267.168C140.06 267.168 138.933 266.923 137.953 266.433C136.973 265.929 136.217 265.236 135.685 264.354C135.153 263.472 134.887 262.471 134.887 261.351C134.887 260.245 135.146 259.251 135.664 258.369C136.196 257.473 136.917 256.78 137.827 256.29C138.751 255.786 139.78 255.534 140.914 255.534C142.02 255.534 143.021 255.772 143.917 256.248C144.813 256.724 145.513 257.41 146.017 258.306C146.535 259.188 146.794 260.217 146.794 261.393ZM140.935 258.012C140.193 258.012 139.57 258.222 139.066 258.642C138.562 259.062 138.254 259.636 138.142 260.364H143.707C143.595 259.65 143.287 259.083 142.783 258.663C142.279 258.229 141.663 258.012 140.935 258.012ZM152.104 257.193C152.496 256.647 153.021 256.234 153.679 255.954C154.351 255.674 155.121 255.534 155.989 255.534V258.558C155.625 258.53 155.38 258.516 155.254 258.516C154.316 258.516 153.581 258.782 153.049 259.314C152.517 259.832 152.251 260.616 152.251 261.666V267H148.975V255.702H152.104V257.193ZM173.878 263.85H167.053L165.751 267H162.265L168.817 252.3H172.177L178.75 267H175.18L173.878 263.85ZM172.807 261.267L170.476 255.639L168.145 261.267H172.807ZM180.044 251.418H183.32V267H180.044V251.418ZM197.428 261.393C197.428 261.435 197.407 261.729 197.365 262.275H188.818C188.972 262.975 189.336 263.528 189.91 263.934C190.484 264.34 191.198 264.543 192.052 264.543C192.64 264.543 193.158 264.459 193.606 264.291C194.068 264.109 194.495 263.829 194.887 263.451L196.63 265.341C195.566 266.559 194.012 267.168 191.968 267.168C190.694 267.168 189.567 266.923 188.587 266.433C187.607 265.929 186.851 265.236 186.319 264.354C185.787 263.472 185.521 262.471 185.521 261.351C185.521 260.245 185.78 259.251 186.298 258.369C186.83 257.473 187.551 256.78 188.461 256.29C189.385 255.786 190.414 255.534 191.548 255.534C192.654 255.534 193.655 255.772 194.551 256.248C195.447 256.724 196.147 257.41 196.651 258.306C197.169 259.188 197.428 260.217 197.428 261.393ZM191.569 258.012C190.827 258.012 190.204 258.222 189.7 258.642C189.196 259.062 188.888 259.636 188.776 260.364H194.341C194.229 259.65 193.921 259.083 193.417 258.663C192.913 258.229 192.297 258.012 191.569 258.012ZM202.738 257.193C203.13 256.647 203.655 256.234 204.313 255.954C204.985 255.674 205.755 255.534 206.623 255.534V258.558C206.259 258.53 206.014 258.516 205.888 258.516C204.95 258.516 204.215 258.782 203.683 259.314C203.151 259.832 202.885 260.616 202.885 261.666V267H199.609V255.702H202.738V257.193ZM216.247 266.454C215.925 266.692 215.526 266.874 215.05 267C214.588 267.112 214.098 267.168 213.58 267.168C212.236 267.168 211.193 266.825 210.451 266.139C209.723 265.453 209.359 264.445 209.359 263.115V258.474H207.616V255.954H209.359V253.203H212.635V255.954H215.449V258.474H212.635V263.073C212.635 263.549 212.754 263.92 212.992 264.186C213.244 264.438 213.594 264.564 214.042 264.564C214.56 264.564 215.001 264.424 215.365 264.144L216.247 266.454Z" fill="white"/>
<path d="M344 256L350 261L356 256" stroke="white" stroke-linecap="round"/>
<path d="M54.27 308.18C53.2 308.18 52.23 307.95 51.36 307.49C50.5 307.02 49.82 306.375 49.32 305.555C48.83 304.725 48.585 303.79 48.585 302.75C48.585 301.71 48.83 300.78 49.32 299.96C49.82 299.13 50.5 298.485 51.36 298.025C52.23 297.555 53.205 297.32 54.285 297.32C55.195 297.32 56.015 297.48 56.745 297.8C57.485 298.12 58.105 298.58 58.605 299.18L57.045 300.62C56.335 299.8 55.455 299.39 54.405 299.39C53.755 299.39 53.175 299.535 52.665 299.825C52.155 300.105 51.755 300.5 51.465 301.01C51.185 301.52 51.045 302.1 51.045 302.75C51.045 303.4 51.185 303.98 51.465 304.49C51.755 305 52.155 305.4 52.665 305.69C53.175 305.97 53.755 306.11 54.405 306.11C55.455 306.11 56.335 305.695 57.045 304.865L58.605 306.305C58.105 306.915 57.485 307.38 56.745 307.7C56.005 308.02 55.18 308.18 54.27 308.18ZM68.0059 299.93V308H65.7859V307.04C65.4759 307.39 65.1059 307.66 64.6759 307.85C64.2459 308.03 63.7809 308.12 63.2809 308.12C62.2209 308.12 61.3809 307.815 60.7609 307.205C60.1409 306.595 59.8309 305.69 59.8309 304.49V299.93H62.1709V304.145C62.1709 305.445 62.7159 306.095 63.8059 306.095C64.3659 306.095 64.8159 305.915 65.1559 305.555C65.4959 305.185 65.6659 304.64 65.6659 303.92V299.93H68.0059ZM72.8888 308.12C72.2188 308.12 71.5638 308.04 70.9238 307.88C70.2838 307.71 69.7738 307.5 69.3938 307.25L70.1738 305.57C70.5338 305.8 70.9688 305.99 71.4788 306.14C71.9888 306.28 72.4888 306.35 72.9788 306.35C73.9688 306.35 74.4638 306.105 74.4638 305.615C74.4638 305.385 74.3288 305.22 74.0588 305.12C73.7888 305.02 73.3738 304.935 72.8138 304.865C72.1538 304.765 71.6088 304.65 71.1788 304.52C70.7488 304.39 70.3738 304.16 70.0538 303.83C69.7438 303.5 69.5887 303.03 69.5887 302.42C69.5887 301.91 69.7338 301.46 70.0238 301.07C70.3238 300.67 70.7538 300.36 71.3138 300.14C71.8838 299.92 72.5538 299.81 73.3238 299.81C73.8938 299.81 74.4588 299.875 75.0188 300.005C75.5888 300.125 76.0588 300.295 76.4288 300.515L75.6488 302.18C74.9388 301.78 74.1638 301.58 73.3238 301.58C72.8238 301.58 72.4488 301.65 72.1988 301.79C71.9488 301.93 71.8238 302.11 71.8238 302.33C71.8238 302.58 71.9588 302.755 72.2288 302.855C72.4988 302.955 72.9288 303.05 73.5188 303.14C74.1788 303.25 74.7188 303.37 75.1388 303.5C75.5588 303.62 75.9238 303.845 76.2338 304.175C76.5438 304.505 76.6988 304.965 76.6988 305.555C76.6988 306.055 76.5488 306.5 76.2488 306.89C75.9488 307.28 75.5088 307.585 74.9288 307.805C74.3588 308.015 73.6788 308.12 72.8888 308.12ZM83.3475 307.61C83.1175 307.78 82.8325 307.91 82.4925 308C82.1625 308.08 81.8125 308.12 81.4425 308.12C80.4825 308.12 79.7375 307.875 79.2075 307.385C78.6875 306.895 78.4275 306.175 78.4275 305.225V301.91H77.1825V300.11H78.4275V298.145H80.7675V300.11H82.7775V301.91H80.7675V305.195C80.7675 305.535 80.8525 305.8 81.0225 305.99C81.2025 306.17 81.4525 306.26 81.7725 306.26C82.1425 306.26 82.4575 306.16 82.7175 305.96L83.3475 307.61ZM88.252 308.12C87.402 308.12 86.637 307.945 85.957 307.595C85.287 307.235 84.762 306.74 84.382 306.11C84.002 305.48 83.812 304.765 83.812 303.965C83.812 303.165 84.002 302.45 84.382 301.82C84.762 301.19 85.287 300.7 85.957 300.35C86.637 299.99 87.402 299.81 88.252 299.81C89.102 299.81 89.862 299.99 90.532 300.35C91.202 300.7 91.727 301.19 92.107 301.82C92.487 302.45 92.677 303.165 92.677 303.965C92.677 304.765 92.487 305.48 92.107 306.11C91.727 306.74 91.202 307.235 90.532 307.595C89.862 307.945 89.102 308.12 88.252 308.12ZM88.252 306.2C88.852 306.2 89.342 306 89.722 305.6C90.112 305.19 90.307 304.645 90.307 303.965C90.307 303.285 90.112 302.745 89.722 302.345C89.342 301.935 88.852 301.73 88.252 301.73C87.652 301.73 87.157 301.935 86.767 302.345C86.377 302.745 86.182 303.285 86.182 303.965C86.182 304.645 86.377 305.19 86.767 305.6C87.157 306 87.652 306.2 88.252 306.2ZM104.576 299.81C105.586 299.81 106.386 300.11 106.976 300.71C107.576 301.3 107.876 302.19 107.876 303.38V308H105.536V303.74C105.536 303.1 105.401 302.625 105.131 302.315C104.871 301.995 104.496 301.835 104.006 301.835C103.456 301.835 103.021 302.015 102.701 302.375C102.381 302.725 102.221 303.25 102.221 303.95V308H99.8811V303.74C99.8811 302.47 99.3711 301.835 98.3511 301.835C97.8111 301.835 97.3811 302.015 97.0611 302.375C96.7411 302.725 96.5811 303.25 96.5811 303.95V308H94.2411V299.93H96.4761V300.86C96.7761 300.52 97.1411 300.26 97.5711 300.08C98.0111 299.9 98.4911 299.81 99.0111 299.81C99.5811 299.81 100.096 299.925 100.556 300.155C101.016 300.375 101.386 300.7 101.666 301.13C101.996 300.71 102.411 300.385 102.911 300.155C103.421 299.925 103.976 299.81 104.576 299.81ZM117.837 308.18C117.007 308.18 116.202 308.07 115.422 307.85C114.652 307.62 114.032 307.325 113.562 306.965L114.387 305.135C114.837 305.465 115.372 305.73 115.992 305.93C116.612 306.13 117.232 306.23 117.852 306.23C118.542 306.23 119.052 306.13 119.382 305.93C119.712 305.72 119.877 305.445 119.877 305.105C119.877 304.855 119.777 304.65 119.577 304.49C119.387 304.32 119.137 304.185 118.827 304.085C118.527 303.985 118.117 303.875 117.597 303.755C116.797 303.565 116.142 303.375 115.632 303.185C115.122 302.995 114.682 302.69 114.312 302.27C113.952 301.85 113.772 301.29 113.772 300.59C113.772 299.98 113.937 299.43 114.267 298.94C114.597 298.44 115.092 298.045 115.752 297.755C116.422 297.465 117.237 297.32 118.197 297.32C118.867 297.32 119.522 297.4 120.162 297.56C120.802 297.72 121.362 297.95 121.842 298.25L121.092 300.095C120.122 299.545 119.152 299.27 118.182 299.27C117.502 299.27 116.997 299.38 116.667 299.6C116.347 299.82 116.187 300.11 116.187 300.47C116.187 300.83 116.372 301.1 116.742 301.28C117.122 301.45 117.697 301.62 118.467 301.79C119.267 301.98 119.922 302.17 120.432 302.36C120.942 302.55 121.377 302.85 121.737 303.26C122.107 303.67 122.292 304.225 122.292 304.925C122.292 305.525 122.122 306.075 121.782 306.575C121.452 307.065 120.952 307.455 120.282 307.745C119.612 308.035 118.797 308.18 117.837 308.18ZM127.627 308.12C126.777 308.12 126.012 307.945 125.332 307.595C124.662 307.235 124.137 306.74 123.757 306.11C123.377 305.48 123.187 304.765 123.187 303.965C123.187 303.165 123.377 302.45 123.757 301.82C124.137 301.19 124.662 300.7 125.332 300.35C126.012 299.99 126.777 299.81 127.627 299.81C128.477 299.81 129.237 299.99 129.907 300.35C130.577 300.7 131.102 301.19 131.482 301.82C131.862 302.45 132.052 303.165 132.052 303.965C132.052 304.765 131.862 305.48 131.482 306.11C131.102 306.74 130.577 307.235 129.907 307.595C129.237 307.945 128.477 308.12 127.627 308.12ZM127.627 306.2C128.227 306.2 128.717 306 129.097 305.6C129.487 305.19 129.682 304.645 129.682 303.965C129.682 303.285 129.487 302.745 129.097 302.345C128.717 301.935 128.227 301.73 127.627 301.73C127.027 301.73 126.532 301.935 126.142 302.345C125.752 302.745 125.557 303.285 125.557 303.965C125.557 304.645 125.752 305.19 126.142 305.6C126.532 306 127.027 306.2 127.627 306.2ZM141.746 299.93V308H139.526V307.04C139.216 307.39 138.846 307.66 138.416 307.85C137.986 308.03 137.521 308.12 137.021 308.12C135.961 308.12 135.121 307.815 134.501 307.205C133.881 306.595 133.571 305.69 133.571 304.49V299.93H135.911V304.145C135.911 305.445 136.456 306.095 137.546 306.095C138.106 306.095 138.556 305.915 138.896 305.555C139.236 305.185 139.406 304.64 139.406 303.92V299.93H141.746ZM148.819 299.81C149.819 299.81 150.624 300.11 151.234 300.71C151.854 301.31 152.164 302.2 152.164 303.38V308H149.824V303.74C149.824 303.1 149.684 302.625 149.404 302.315C149.124 301.995 148.719 301.835 148.189 301.835C147.599 301.835 147.129 302.02 146.779 302.39C146.429 302.75 146.254 303.29 146.254 304.01V308H143.914V299.93H146.149V300.875C146.459 300.535 146.844 300.275 147.304 300.095C147.764 299.905 148.269 299.81 148.819 299.81ZM162.593 296.87V308H160.358V307.07C159.778 307.77 158.938 308.12 157.838 308.12C157.078 308.12 156.388 307.95 155.768 307.61C155.158 307.27 154.678 306.785 154.328 306.155C153.978 305.525 153.803 304.795 153.803 303.965C153.803 303.135 153.978 302.405 154.328 301.775C154.678 301.145 155.158 300.66 155.768 300.32C156.388 299.98 157.078 299.81 157.838 299.81C158.868 299.81 159.673 300.135 160.253 300.785V296.87H162.593ZM158.243 306.2C158.833 306.2 159.323 306 159.713 305.6C160.103 305.19 160.298 304.645 160.298 303.965C160.298 303.285 160.103 302.745 159.713 302.345C159.323 301.935 158.833 301.73 158.243 301.73C157.643 301.73 157.148 301.935 156.758 302.345C156.368 302.745 156.173 303.285 156.173 303.965C156.173 304.645 156.368 305.19 156.758 305.6C157.148 306 157.643 306.2 158.243 306.2ZM169.172 297.5H171.602V306.02H176.867V308H169.172V297.5ZM181.841 308.12C180.991 308.12 180.226 307.945 179.546 307.595C178.876 307.235 178.351 306.74 177.971 306.11C177.591 305.48 177.401 304.765 177.401 303.965C177.401 303.165 177.591 302.45 177.971 301.82C178.351 301.19 178.876 300.7 179.546 300.35C180.226 299.99 180.991 299.81 181.841 299.81C182.691 299.81 183.451 299.99 184.121 300.35C184.791 300.7 185.316 301.19 185.696 301.82C186.076 302.45 186.266 303.165 186.266 303.965C186.266 304.765 186.076 305.48 185.696 306.11C185.316 306.74 184.791 307.235 184.121 307.595C183.451 307.945 182.691 308.12 181.841 308.12ZM181.841 306.2C182.441 306.2 182.931 306 183.311 305.6C183.701 305.19 183.896 304.645 183.896 303.965C183.896 303.285 183.701 302.745 183.311 302.345C182.931 301.935 182.441 301.73 181.841 301.73C181.241 301.73 180.746 301.935 180.356 302.345C179.966 302.745 179.771 303.285 179.771 303.965C179.771 304.645 179.966 305.19 180.356 305.6C180.746 306 181.241 306.2 181.841 306.2ZM191.73 308.12C190.87 308.12 190.095 307.945 189.405 307.595C188.725 307.235 188.19 306.74 187.8 306.11C187.42 305.48 187.23 304.765 187.23 303.965C187.23 303.165 187.42 302.45 187.8 301.82C188.19 301.19 188.725 300.7 189.405 300.35C190.095 299.99 190.87 299.81 191.73 299.81C192.58 299.81 193.32 299.99 193.95 300.35C194.59 300.7 195.055 301.205 195.345 301.865L193.53 302.84C193.11 302.1 192.505 301.73 191.715 301.73C191.105 301.73 190.6 301.93 190.2 302.33C189.8 302.73 189.6 303.275 189.6 303.965C189.6 304.655 189.8 305.2 190.2 305.6C190.6 306 191.105 306.2 191.715 306.2C192.515 306.2 193.12 305.83 193.53 305.09L195.345 306.08C195.055 306.72 194.59 307.22 193.95 307.58C193.32 307.94 192.58 308.12 191.73 308.12ZM199.947 299.81C201.197 299.81 202.157 300.11 202.827 300.71C203.497 301.3 203.832 302.195 203.832 303.395V308H201.642V306.995C201.202 307.745 200.382 308.12 199.182 308.12C198.562 308.12 198.022 308.015 197.562 307.805C197.112 307.595 196.767 307.305 196.527 306.935C196.287 306.565 196.167 306.145 196.167 305.675C196.167 304.925 196.447 304.335 197.007 303.905C197.577 303.475 198.452 303.26 199.632 303.26H201.492C201.492 302.75 201.337 302.36 201.027 302.09C200.717 301.81 200.252 301.67 199.632 301.67C199.202 301.67 198.777 301.74 198.357 301.88C197.947 302.01 197.597 302.19 197.307 302.42L196.467 300.785C196.907 300.475 197.432 300.235 198.042 300.065C198.662 299.895 199.297 299.81 199.947 299.81ZM199.767 306.545C200.167 306.545 200.522 306.455 200.832 306.275C201.142 306.085 201.362 305.81 201.492 305.45V304.625H199.887C198.927 304.625 198.447 304.94 198.447 305.57C198.447 305.87 198.562 306.11 198.792 306.29C199.032 306.46 199.357 306.545 199.767 306.545ZM211.155 307.61C210.925 307.78 210.64 307.91 210.3 308C209.97 308.08 209.62 308.12 209.25 308.12C208.29 308.12 207.545 307.875 207.015 307.385C206.495 306.895 206.235 306.175 206.235 305.225V301.91H204.99V300.11H206.235V298.145H208.575V300.11H210.585V301.91H208.575V305.195C208.575 305.535 208.66 305.8 208.83 305.99C209.01 306.17 209.26 306.26 209.58 306.26C209.95 306.26 210.265 306.16 210.525 305.96L211.155 307.61ZM212.469 299.93H214.809V308H212.469V299.93ZM213.639 298.805C213.209 298.805 212.859 298.68 212.589 298.43C212.319 298.18 212.184 297.87 212.184 297.5C212.184 297.13 212.319 296.82 212.589 296.57C212.859 296.32 213.209 296.195 213.639 296.195C214.069 296.195 214.419 296.315 214.689 296.555C214.959 296.795 215.094 297.095 215.094 297.455C215.094 297.845 214.959 298.17 214.689 298.43C214.419 298.68 214.069 298.805 213.639 298.805ZM220.82 308.12C219.97 308.12 219.205 307.945 218.525 307.595C217.855 307.235 217.33 306.74 216.95 306.11C216.57 305.48 216.38 304.765 216.38 303.965C216.38 303.165 216.57 302.45 216.95 301.82C217.33 301.19 217.855 300.7 218.525 300.35C219.205 299.99 219.97 299.81 220.82 299.81C221.67 299.81 222.43 299.99 223.1 300.35C223.77 300.7 224.295 301.19 224.675 301.82C225.055 302.45 225.245 303.165 225.245 303.965C225.245 304.765 225.055 305.48 224.675 306.11C224.295 306.74 223.77 307.235 223.1 307.595C222.43 307.945 221.67 308.12 220.82 308.12ZM220.82 306.2C221.42 306.2 221.91 306 222.29 305.6C222.68 305.19 222.875 304.645 222.875 303.965C222.875 303.285 222.68 302.745 222.29 302.345C221.91 301.935 221.42 301.73 220.82 301.73C220.22 301.73 219.725 301.935 219.335 302.345C218.945 302.745 218.75 303.285 218.75 303.965C218.75 304.645 218.945 305.19 219.335 305.6C219.725 306 220.22 306.2 220.82 306.2ZM231.714 299.81C232.714 299.81 233.519 300.11 234.129 300.71C234.749 301.31 235.059 302.2 235.059 303.38V308H232.719V303.74C232.719 303.1 232.579 302.625 232.299 302.315C232.019 301.995 231.614 301.835 231.084 301.835C230.494 301.835 230.024 302.02 229.674 302.39C229.324 302.75 229.149 303.29 229.149 304.01V308H226.809V299.93H229.044V300.875C229.354 300.535 229.739 300.275 230.199 300.095C230.659 299.905 231.164 299.81 231.714 299.81Z" fill="white"/>
<rect x="249" y="128" width="114" height="21.5707" rx="4" fill="#B0EACD"/>
<path d="M248 171.005C248 168.796 249.791 167.005 252 167.005H358C360.209 167.005 362 168.796 362 171.005V184.576C362 186.785 360.209 188.576 358 188.576H252C249.791 188.576 248 186.785 248 184.576V171.005Z" fill="#B0EACD"/>
<rect x="249" y="209.12" width="114" height="21.5706" rx="4" fill="#B0EACD"/>
<rect x="249" y="250.207" width="114" height="21.5707" rx="4" fill="#B0EACD"/>
<rect x="249" y="293.429" width="114" height="21.5706" rx="4" fill="#B0EACD"/>
</svg>
