<svg width="400" height="400" viewBox="0 0 400 400" fill="none" xmlns="http://www.w3.org/2000/svg">
<rect width="400" height="400" fill="#36393F"/>
<rect x="15" y="15" width="370" height="370" rx="35" fill="#2F3136"/>
<rect x="308" y="34" width="49" height="25" rx="12.5" fill="#43B581"/>
<ellipse cx="341.688" cy="45.8421" rx="10.7188" ry="9.21053" fill="white"/>
<g clip-path="url(#clip0)">
<path d="M342.849 51.9996C345.336 52.0258 347.608 50.5927 348.655 48.337C347.996 48.6247 347.282 48.7656 346.563 48.7499C343.744 48.7468 341.459 46.4623 341.456 43.6433C341.484 41.7365 342.536 39.9923 344.21 39.0778C343.759 39.0203 343.304 38.9946 342.849 39.0009C339.259 39.0009 336.349 41.9108 336.349 45.5003C336.349 49.0898 339.259 51.9996 342.849 51.9996Z" fill="#FFE605"/>
</g>
<path d="M156.138 91.312C154.699 91.312 153.304 91.1213 151.952 90.74C150.617 90.3413 149.543 89.83 148.728 89.206L150.158 86.034C150.938 86.606 151.865 87.0653 152.94 87.412C154.015 87.7587 155.089 87.932 156.164 87.932C157.36 87.932 158.244 87.7587 158.816 87.412C159.388 87.048 159.674 86.5713 159.674 85.982C159.674 85.5487 159.501 85.1933 159.154 84.916C158.825 84.6213 158.391 84.3873 157.854 84.214C157.334 84.0407 156.623 83.85 155.722 83.642C154.335 83.3127 153.2 82.9833 152.316 82.654C151.432 82.3247 150.669 81.796 150.028 81.068C149.404 80.34 149.092 79.3693 149.092 78.156C149.092 77.0987 149.378 76.1453 149.95 75.296C150.522 74.4293 151.38 73.7447 152.524 73.242C153.685 72.7393 155.098 72.488 156.762 72.488C157.923 72.488 159.059 72.6267 160.168 72.904C161.277 73.1813 162.248 73.58 163.08 74.1L161.78 77.298C160.099 76.3447 158.417 75.868 156.736 75.868C155.557 75.868 154.682 76.0587 154.11 76.44C153.555 76.8213 153.278 77.324 153.278 77.948C153.278 78.572 153.599 79.04 154.24 79.352C154.899 79.6467 155.895 79.9413 157.23 80.236C158.617 80.5653 159.752 80.8947 160.636 81.224C161.52 81.5533 162.274 82.0733 162.898 82.784C163.539 83.4947 163.86 84.4567 163.86 85.67C163.86 86.71 163.565 87.6633 162.976 88.53C162.404 89.3793 161.537 90.0553 160.376 90.558C159.215 91.0607 157.802 91.312 156.138 91.312ZM180.154 84.058C180.154 84.11 180.128 84.474 180.076 85.15H169.494C169.685 86.0167 170.135 86.7013 170.846 87.204C171.557 87.7067 172.441 87.958 173.498 87.958C174.226 87.958 174.867 87.854 175.422 87.646C175.994 87.4207 176.523 87.074 177.008 86.606L179.166 88.946C177.849 90.454 175.925 91.208 173.394 91.208C171.817 91.208 170.421 90.9047 169.208 90.298C167.995 89.674 167.059 88.816 166.4 87.724C165.741 86.632 165.412 85.3927 165.412 84.006C165.412 82.6367 165.733 81.406 166.374 80.314C167.033 79.2047 167.925 78.3467 169.052 77.74C170.196 77.116 171.47 76.804 172.874 76.804C174.243 76.804 175.483 77.0987 176.592 77.688C177.701 78.2773 178.568 79.1267 179.192 80.236C179.833 81.328 180.154 82.602 180.154 84.058ZM172.9 79.872C171.981 79.872 171.21 80.132 170.586 80.652C169.962 81.172 169.581 81.8827 169.442 82.784H176.332C176.193 81.9 175.812 81.198 175.188 80.678C174.564 80.1407 173.801 79.872 172.9 79.872ZM191.876 90.324C191.478 90.6187 190.984 90.844 190.394 91C189.822 91.1387 189.216 91.208 188.574 91.208C186.91 91.208 185.619 90.7833 184.7 89.934C183.799 89.0847 183.348 87.8367 183.348 86.19V80.444H181.19V77.324H183.348V73.918H187.404V77.324H190.888V80.444H187.404V86.138C187.404 86.7273 187.552 87.1867 187.846 87.516C188.158 87.828 188.592 87.984 189.146 87.984C189.788 87.984 190.334 87.8107 190.784 87.464L191.876 90.324ZM202.871 90.324C202.472 90.6187 201.978 90.844 201.389 91C200.817 91.1387 200.21 91.208 199.569 91.208C197.905 91.208 196.613 90.7833 195.695 89.934C194.793 89.0847 194.343 87.8367 194.343 86.19V80.444H192.185V77.324H194.343V73.918H198.399V77.324H201.883V80.444H198.399V86.138C198.399 86.7273 198.546 87.1867 198.841 87.516C199.153 87.828 199.586 87.984 200.141 87.984C200.782 87.984 201.328 87.8107 201.779 87.464L202.871 90.324ZM205.147 77.012H209.203V91H205.147V77.012ZM207.175 75.062C206.43 75.062 205.823 74.8453 205.355 74.412C204.887 73.9787 204.653 73.4413 204.653 72.8C204.653 72.1587 204.887 71.6213 205.355 71.188C205.823 70.7547 206.43 70.538 207.175 70.538C207.921 70.538 208.527 70.746 208.995 71.162C209.463 71.578 209.697 72.098 209.697 72.722C209.697 73.398 209.463 73.9613 208.995 74.412C208.527 74.8453 207.921 75.062 207.175 75.062ZM221.47 76.804C223.203 76.804 224.598 77.324 225.656 78.364C226.73 79.404 227.268 80.9467 227.268 82.992V91H223.212V83.616C223.212 82.5067 222.969 81.6833 222.484 81.146C221.998 80.5913 221.296 80.314 220.378 80.314C219.355 80.314 218.54 80.6347 217.934 81.276C217.327 81.9 217.024 82.836 217.024 84.084V91H212.968V77.012H216.842V78.65C217.379 78.0607 218.046 77.61 218.844 77.298C219.641 76.9687 220.516 76.804 221.47 76.804ZM245.527 77.012V88.66C245.527 91.2253 244.859 93.132 243.525 94.38C242.19 95.628 240.24 96.252 237.675 96.252C236.323 96.252 235.04 96.0873 233.827 95.758C232.613 95.4287 231.608 94.952 230.811 94.328L232.423 91.416C233.012 91.9013 233.757 92.2827 234.659 92.56C235.56 92.8547 236.461 93.002 237.363 93.002C238.767 93.002 239.798 92.6813 240.457 92.04C241.133 91.416 241.471 90.4627 241.471 89.18V88.582C240.413 89.7433 238.94 90.324 237.051 90.324C235.768 90.324 234.589 90.0467 233.515 89.492C232.457 88.92 231.617 88.1227 230.993 87.1C230.369 86.0773 230.057 84.8987 230.057 83.564C230.057 82.2293 230.369 81.0507 230.993 80.028C231.617 79.0053 232.457 78.2167 233.515 77.662C234.589 77.09 235.768 76.804 237.051 76.804C239.079 76.804 240.621 77.4713 241.679 78.806V77.012H245.527ZM237.857 86.996C238.931 86.996 239.807 86.684 240.483 86.06C241.176 85.4187 241.523 84.5867 241.523 83.564C241.523 82.5413 241.176 81.718 240.483 81.094C239.807 80.4527 238.931 80.132 237.857 80.132C236.782 80.132 235.898 80.4527 235.205 81.094C234.511 81.718 234.165 82.5413 234.165 83.564C234.165 84.5867 234.511 85.4187 235.205 86.06C235.898 86.684 236.782 86.996 237.857 86.996ZM254.008 91.208C252.846 91.208 251.711 91.0693 250.602 90.792C249.492 90.4973 248.608 90.1333 247.95 89.7L249.302 86.788C249.926 87.1867 250.68 87.516 251.564 87.776C252.448 88.0187 253.314 88.14 254.164 88.14C255.88 88.14 256.738 87.7153 256.738 86.866C256.738 86.4673 256.504 86.1813 256.036 86.008C255.568 85.8347 254.848 85.6873 253.878 85.566C252.734 85.3927 251.789 85.1933 251.044 84.968C250.298 84.7427 249.648 84.344 249.094 83.772C248.556 83.2 248.288 82.3853 248.288 81.328C248.288 80.444 248.539 79.664 249.042 78.988C249.562 78.2947 250.307 77.7573 251.278 77.376C252.266 76.9947 253.427 76.804 254.762 76.804C255.75 76.804 256.729 76.9167 257.7 77.142C258.688 77.35 259.502 77.6447 260.144 78.026L258.792 80.912C257.561 80.2187 256.218 79.872 254.762 79.872C253.895 79.872 253.245 79.9933 252.812 80.236C252.378 80.4787 252.162 80.7907 252.162 81.172C252.162 81.6053 252.396 81.9087 252.864 82.082C253.332 82.2553 254.077 82.42 255.1 82.576C256.244 82.7667 257.18 82.9747 257.908 83.2C258.636 83.408 259.268 83.798 259.806 84.37C260.343 84.942 260.612 85.7393 260.612 86.762C260.612 87.6287 260.352 88.4 259.832 89.076C259.312 89.752 258.549 90.2807 257.544 90.662C256.556 91.026 255.377 91.208 254.008 91.208Z" fill="white"/>
<line x1="36" y1="157.5" x2="372" y2="157.5" stroke="#717171"/>
<line x1="36" y1="193.5" x2="372" y2="193.5" stroke="#717171"/>
<line x1="36" y1="229.5" x2="372" y2="230.5" stroke="#717171"/>
<line x1="36" y1="266.5" x2="372" y2="267.5" stroke="#717171"/>
<line x1="36" y1="303.5" x2="372" y2="304.5" stroke="#717171"/>
<path d="M53.573 149.252C52.411 149.252 51.284 149.098 50.192 148.79C49.114 148.468 48.246 148.055 47.588 147.551L48.743 144.989C49.373 145.451 50.122 145.822 50.99 146.102C51.858 146.382 52.726 146.522 53.594 146.522C54.56 146.522 55.274 146.382 55.736 146.102C56.198 145.808 56.429 145.423 56.429 144.947C56.429 144.597 56.289 144.31 56.009 144.086C55.743 143.848 55.393 143.659 54.959 143.519C54.539 143.379 53.965 143.225 53.237 143.057C52.117 142.791 51.2 142.525 50.486 142.259C49.772 141.993 49.156 141.566 48.638 140.978C48.134 140.39 47.882 139.606 47.882 138.626C47.882 137.772 48.113 137.002 48.575 136.316C49.037 135.616 49.73 135.063 50.654 134.657C51.592 134.251 52.733 134.048 54.077 134.048C55.015 134.048 55.932 134.16 56.828 134.384C57.724 134.608 58.508 134.93 59.18 135.35L58.13 137.933C56.772 137.163 55.414 136.778 54.056 136.778C53.104 136.778 52.397 136.932 51.935 137.24C51.487 137.548 51.263 137.954 51.263 138.458C51.263 138.962 51.522 139.34 52.04 139.592C52.572 139.83 53.377 140.068 54.455 140.306C55.575 140.572 56.492 140.838 57.206 141.104C57.92 141.37 58.529 141.79 59.033 142.364C59.551 142.938 59.81 143.715 59.81 144.695C59.81 145.535 59.572 146.305 59.096 147.005C58.634 147.691 57.934 148.237 56.996 148.643C56.058 149.049 54.917 149.252 53.573 149.252ZM72.9706 143.393C72.9706 143.435 72.9496 143.729 72.9076 144.275H64.3606C64.5146 144.975 64.8786 145.528 65.4526 145.934C66.0266 146.34 66.7406 146.543 67.5946 146.543C68.1826 146.543 68.7006 146.459 69.1486 146.291C69.6106 146.109 70.0376 145.829 70.4296 145.451L72.1726 147.341C71.1086 148.559 69.5546 149.168 67.5106 149.168C66.2366 149.168 65.1096 148.923 64.1296 148.433C63.1496 147.929 62.3936 147.236 61.8616 146.354C61.3296 145.472 61.0636 144.471 61.0636 143.351C61.0636 142.245 61.3226 141.251 61.8406 140.369C62.3726 139.473 63.0936 138.78 64.0036 138.29C64.9276 137.786 65.9566 137.534 67.0906 137.534C68.1966 137.534 69.1976 137.772 70.0936 138.248C70.9896 138.724 71.6896 139.41 72.1936 140.306C72.7116 141.188 72.9706 142.217 72.9706 143.393ZM67.1116 140.012C66.3696 140.012 65.7466 140.222 65.2426 140.642C64.7386 141.062 64.4306 141.636 64.3186 142.364H69.8836C69.7716 141.65 69.4636 141.083 68.9596 140.663C68.4556 140.229 67.8396 140.012 67.1116 140.012ZM82.4386 148.454C82.1166 148.692 81.7176 148.874 81.2416 149C80.7796 149.112 80.2896 149.168 79.7716 149.168C78.4276 149.168 77.3846 148.825 76.6426 148.139C75.9146 147.453 75.5506 146.445 75.5506 145.115V140.474H73.8076V137.954H75.5506V135.203H78.8266V137.954H81.6406V140.474H78.8266V145.073C78.8266 145.549 78.9456 145.92 79.1836 146.186C79.4356 146.438 79.7856 146.564 80.2336 146.564C80.7516 146.564 81.1926 146.424 81.5566 146.144L82.4386 148.454ZM91.3185 148.454C90.9965 148.692 90.5975 148.874 90.1215 149C89.6595 149.112 89.1695 149.168 88.6515 149.168C87.3075 149.168 86.2645 148.825 85.5225 148.139C84.7945 147.453 84.4305 146.445 84.4305 145.115V140.474H82.6875V137.954H84.4305V135.203H87.7065V137.954H90.5205V140.474H87.7065V145.073C87.7065 145.549 87.8255 145.92 88.0635 146.186C88.3155 146.438 88.6655 146.564 89.1135 146.564C89.6315 146.564 90.0725 146.424 90.4365 146.144L91.3185 148.454ZM93.1575 137.702H96.4335V149H93.1575V137.702ZM94.7955 136.127C94.1935 136.127 93.7035 135.952 93.3255 135.602C92.9475 135.252 92.7585 134.818 92.7585 134.3C92.7585 133.782 92.9475 133.348 93.3255 132.998C93.7035 132.648 94.1935 132.473 94.7955 132.473C95.3975 132.473 95.8875 132.641 96.2655 132.977C96.6435 133.313 96.8325 133.733 96.8325 134.237C96.8325 134.783 96.6435 135.238 96.2655 135.602C95.8875 135.952 95.3975 136.127 94.7955 136.127ZM106.341 137.534C107.741 137.534 108.868 137.954 109.722 138.794C110.59 139.634 111.024 140.88 111.024 142.532V149H107.748V143.036C107.748 142.14 107.552 141.475 107.16 141.041C106.768 140.593 106.201 140.369 105.459 140.369C104.633 140.369 103.975 140.628 103.485 141.146C102.995 141.65 102.75 142.406 102.75 143.414V149H99.4739V137.702H102.603V139.025C103.037 138.549 103.576 138.185 104.22 137.933C104.864 137.667 105.571 137.534 106.341 137.534ZM125.771 137.702V147.11C125.771 149.182 125.232 150.722 124.154 151.73C123.076 152.738 121.501 153.242 119.429 153.242C118.337 153.242 117.301 153.109 116.321 152.843C115.341 152.577 114.529 152.192 113.885 151.688L115.187 149.336C115.663 149.728 116.265 150.036 116.993 150.26C117.721 150.498 118.449 150.617 119.177 150.617C120.311 150.617 121.144 150.358 121.676 149.84C122.222 149.336 122.495 148.566 122.495 147.53V147.047C121.641 147.985 120.451 148.454 118.925 148.454C117.889 148.454 116.937 148.23 116.069 147.782C115.215 147.32 114.536 146.676 114.032 145.85C113.528 145.024 113.276 144.072 113.276 142.994C113.276 141.916 113.528 140.964 114.032 140.138C114.536 139.312 115.215 138.675 116.069 138.227C116.937 137.765 117.889 137.534 118.925 137.534C120.563 137.534 121.809 138.073 122.663 139.151V137.702H125.771ZM119.576 145.766C120.444 145.766 121.151 145.514 121.697 145.01C122.257 144.492 122.537 143.82 122.537 142.994C122.537 142.168 122.257 141.503 121.697 140.999C121.151 140.481 120.444 140.222 119.576 140.222C118.708 140.222 117.994 140.481 117.434 140.999C116.874 141.503 116.594 142.168 116.594 142.994C116.594 143.82 116.874 144.492 117.434 145.01C117.994 145.514 118.708 145.766 119.576 145.766ZM132.622 149.168C131.684 149.168 130.767 149.056 129.871 148.832C128.975 148.594 128.261 148.3 127.729 147.95L128.821 145.598C129.325 145.92 129.934 146.186 130.648 146.396C131.362 146.592 132.062 146.69 132.748 146.69C134.134 146.69 134.827 146.347 134.827 145.661C134.827 145.339 134.638 145.108 134.26 144.968C133.882 144.828 133.301 144.709 132.517 144.611C131.593 144.471 130.83 144.31 130.228 144.128C129.626 143.946 129.101 143.624 128.653 143.162C128.219 142.7 128.002 142.042 128.002 141.188C128.002 140.474 128.205 139.844 128.611 139.298C129.031 138.738 129.633 138.304 130.417 137.996C131.215 137.688 132.153 137.534 133.231 137.534C134.029 137.534 134.82 137.625 135.604 137.807C136.402 137.975 137.06 138.213 137.578 138.521L136.486 140.852C135.492 140.292 134.407 140.012 133.231 140.012C132.531 140.012 132.006 140.11 131.656 140.306C131.306 140.502 131.131 140.754 131.131 141.062C131.131 141.412 131.32 141.657 131.698 141.797C132.076 141.937 132.678 142.07 133.504 142.196C134.428 142.35 135.184 142.518 135.772 142.7C136.36 142.868 136.871 143.183 137.305 143.645C137.739 144.107 137.956 144.751 137.956 145.577C137.956 146.277 137.746 146.9 137.326 147.446C136.906 147.992 136.29 148.419 135.478 148.727C134.68 149.021 133.728 149.168 132.622 149.168ZM159.637 134.3V149H156.235V142.973H149.557V149H146.155V134.3H149.557V140.096H156.235V134.3H159.637ZM168.26 149.168C167.07 149.168 165.999 148.923 165.047 148.433C164.109 147.929 163.374 147.236 162.842 146.354C162.31 145.472 162.044 144.471 162.044 143.351C162.044 142.231 162.31 141.23 162.842 140.348C163.374 139.466 164.109 138.78 165.047 138.29C165.999 137.786 167.07 137.534 168.26 137.534C169.45 137.534 170.514 137.786 171.452 138.29C172.39 138.78 173.125 139.466 173.657 140.348C174.189 141.23 174.455 142.231 174.455 143.351C174.455 144.471 174.189 145.472 173.657 146.354C173.125 147.236 172.39 147.929 171.452 148.433C170.514 148.923 169.45 149.168 168.26 149.168ZM168.26 146.48C169.1 146.48 169.786 146.2 170.318 145.64C170.864 145.066 171.137 144.303 171.137 143.351C171.137 142.399 170.864 141.643 170.318 141.083C169.786 140.509 169.1 140.222 168.26 140.222C167.42 140.222 166.727 140.509 166.181 141.083C165.635 141.643 165.362 142.399 165.362 143.351C165.362 144.303 165.635 145.066 166.181 145.64C166.727 146.2 167.42 146.48 168.26 146.48ZM183.932 148.454C183.61 148.692 183.211 148.874 182.735 149C182.273 149.112 181.783 149.168 181.265 149.168C179.921 149.168 178.878 148.825 178.136 148.139C177.408 147.453 177.044 146.445 177.044 145.115V140.474H175.301V137.954H177.044V135.203H180.32V137.954H183.134V140.474H180.32V145.073C180.32 145.549 180.439 145.92 180.677 146.186C180.929 146.438 181.279 146.564 181.727 146.564C182.245 146.564 182.686 146.424 183.05 146.144L183.932 148.454ZM191.357 143.225L189.383 145.283V149H186.002V134.3H189.383V141.167L195.893 134.3H199.673L193.583 140.852L200.03 149H196.061L191.357 143.225ZM211.911 143.393C211.911 143.435 211.89 143.729 211.848 144.275H203.301C203.455 144.975 203.819 145.528 204.393 145.934C204.967 146.34 205.681 146.543 206.535 146.543C207.123 146.543 207.641 146.459 208.089 146.291C208.551 146.109 208.978 145.829 209.37 145.451L211.113 147.341C210.049 148.559 208.495 149.168 206.451 149.168C205.177 149.168 204.05 148.923 203.07 148.433C202.09 147.929 201.334 147.236 200.802 146.354C200.27 145.472 200.004 144.471 200.004 143.351C200.004 142.245 200.263 141.251 200.781 140.369C201.313 139.473 202.034 138.78 202.944 138.29C203.868 137.786 204.897 137.534 206.031 137.534C207.137 137.534 208.138 137.772 209.034 138.248C209.93 138.724 210.63 139.41 211.134 140.306C211.652 141.188 211.911 142.217 211.911 143.393ZM206.052 140.012C205.31 140.012 204.687 140.222 204.183 140.642C203.679 141.062 203.371 141.636 203.259 142.364H208.824C208.712 141.65 208.404 141.083 207.9 140.663C207.396 140.229 206.78 140.012 206.052 140.012ZM225.101 137.702L219.998 149.693C219.48 150.995 218.836 151.912 218.066 152.444C217.31 152.976 216.393 153.242 215.315 153.242C214.727 153.242 214.146 153.151 213.572 152.969C212.998 152.787 212.529 152.535 212.165 152.213L213.362 149.882C213.614 150.106 213.901 150.281 214.223 150.407C214.559 150.533 214.888 150.596 215.21 150.596C215.658 150.596 216.022 150.484 216.302 150.26C216.582 150.05 216.834 149.693 217.058 149.189L217.1 149.084L212.207 137.702H215.588L218.759 145.367L221.951 137.702H225.101Z" fill="white"/>
<rect x="249" y="128" width="114" height="23" rx="4" fill="#36393F"/>
<path d="M292.936 137.88V140.84H298.12V142.92H292.936V147H290.344V135.8H298.808V137.88H292.936ZM305.462 138.264C306.529 138.264 307.387 138.584 308.038 139.224C308.699 139.864 309.03 140.813 309.03 142.072V147H306.534V142.456C306.534 141.773 306.385 141.267 306.086 140.936C305.787 140.595 305.355 140.424 304.79 140.424C304.161 140.424 303.659 140.621 303.286 141.016C302.913 141.4 302.726 141.976 302.726 142.744V147H300.23V138.392H302.614V139.4C302.945 139.037 303.355 138.76 303.846 138.568C304.337 138.365 304.875 138.264 305.462 138.264ZM318.749 142.376H315.965V145.096H313.901V142.376H311.133V140.424H313.901V137.704H315.965V140.424H318.749V142.376ZM324.471 133.528H326.695L321.415 148.6H319.191L324.471 133.528Z" fill="white"/>
<path d="M48.743 168.3H52.145V183H48.743V168.3ZM62.2696 171.534C63.6696 171.534 64.7966 171.954 65.6506 172.794C66.5186 173.634 66.9526 174.88 66.9526 176.532V183H63.6766V177.036C63.6766 176.14 63.4806 175.475 63.0886 175.041C62.6966 174.593 62.1296 174.369 61.3876 174.369C60.5616 174.369 59.9036 174.628 59.4136 175.146C58.9236 175.65 58.6786 176.406 58.6786 177.414V183H55.4026V171.702H58.5316V173.025C58.9656 172.549 59.5046 172.185 60.1486 171.933C60.7926 171.667 61.4996 171.534 62.2696 171.534ZM76.6002 171.534C77.6502 171.534 78.6022 171.779 79.4562 172.269C80.3242 172.745 81.0032 173.424 81.4932 174.306C81.9832 175.174 82.2282 176.189 82.2282 177.351C82.2282 178.513 81.9832 179.535 81.4932 180.417C81.0032 181.285 80.3242 181.964 79.4562 182.454C78.6022 182.93 77.6502 183.168 76.6002 183.168C75.1582 183.168 74.0242 182.713 73.1982 181.803V187.074H69.9222V171.702H73.0512V173.004C73.8632 172.024 75.0462 171.534 76.6002 171.534ZM76.0332 180.48C76.8732 180.48 77.5592 180.2 78.0912 179.64C78.6372 179.066 78.9102 178.303 78.9102 177.351C78.9102 176.399 78.6372 175.643 78.0912 175.083C77.5592 174.509 76.8732 174.222 76.0332 174.222C75.1932 174.222 74.5002 174.509 73.9542 175.083C73.4222 175.643 73.1562 176.399 73.1562 177.351C73.1562 178.303 73.4222 179.066 73.9542 179.64C74.5002 180.2 75.1932 180.48 76.0332 180.48ZM95.8032 171.702V183H92.6952V181.656C92.2612 182.146 91.7432 182.524 91.1412 182.79C90.5392 183.042 89.8882 183.168 89.1882 183.168C87.7042 183.168 86.5282 182.741 85.6602 181.887C84.7922 181.033 84.3582 179.766 84.3582 178.086V171.702H87.6342V177.603C87.6342 179.423 88.3972 180.333 89.9232 180.333C90.7072 180.333 91.3372 180.081 91.8132 179.577C92.2892 179.059 92.5272 178.296 92.5272 177.288V171.702H95.8032ZM106.125 182.454C105.803 182.692 105.404 182.874 104.928 183C104.466 183.112 103.976 183.168 103.458 183.168C102.114 183.168 101.071 182.825 100.329 182.139C99.6012 181.453 99.2372 180.445 99.2372 179.115V174.474H97.4942V171.954H99.2372V169.203H102.513V171.954H105.327V174.474H102.513V179.073C102.513 179.549 102.632 179.92 102.87 180.186C103.122 180.438 103.472 180.564 103.92 180.564C104.438 180.564 104.879 180.424 105.243 180.144L106.125 182.454ZM128.275 168.3L121.912 183H118.552L112.21 168.3H115.885L120.358 178.8L124.894 168.3H128.275ZM129.477 171.702H132.753V183H129.477V171.702ZM131.115 170.127C130.513 170.127 130.023 169.952 129.645 169.602C129.267 169.252 129.078 168.818 129.078 168.3C129.078 167.782 129.267 167.348 129.645 166.998C130.023 166.648 130.513 166.473 131.115 166.473C131.717 166.473 132.207 166.641 132.585 166.977C132.963 167.313 133.152 167.733 133.152 168.237C133.152 168.783 132.963 169.238 132.585 169.602C132.207 169.952 131.717 170.127 131.115 170.127ZM140.35 171.534C142.1 171.534 143.444 171.954 144.382 172.794C145.32 173.62 145.789 174.873 145.789 176.553V183H142.723V181.593C142.107 182.643 140.959 183.168 139.279 183.168C138.411 183.168 137.655 183.021 137.011 182.727C136.381 182.433 135.898 182.027 135.562 181.509C135.226 180.991 135.058 180.403 135.058 179.745C135.058 178.695 135.45 177.869 136.234 177.267C137.032 176.665 138.257 176.364 139.909 176.364H142.513C142.513 175.65 142.296 175.104 141.862 174.726C141.428 174.334 140.777 174.138 139.909 174.138C139.307 174.138 138.712 174.236 138.124 174.432C137.55 174.614 137.06 174.866 136.654 175.188L135.478 172.899C136.094 172.465 136.829 172.129 137.683 171.891C138.551 171.653 139.44 171.534 140.35 171.534ZM140.098 180.963C140.658 180.963 141.155 180.837 141.589 180.585C142.023 180.319 142.331 179.934 142.513 179.43V178.275H140.266C138.922 178.275 138.25 178.716 138.25 179.598C138.25 180.018 138.411 180.354 138.733 180.606C139.069 180.844 139.524 180.963 140.098 180.963Z" fill="white"/>
<path d="M248 168C248 165.791 249.791 164 252 164H358C360.209 164 362 165.791 362 168V181C362 183.209 360.209 185 358 185H252C249.791 185 248 183.209 248 181V168Z" fill="#36393F"/>
<path d="M297.584 170.2L293.342 180H291.102L286.874 170.2H289.324L292.306 177.2L295.33 170.2H297.584ZM301.272 180.112C300.478 180.112 299.764 179.949 299.13 179.622C298.504 179.286 298.014 178.824 297.66 178.236C297.305 177.648 297.128 176.981 297.128 176.234C297.128 175.487 297.305 174.82 297.66 174.232C298.014 173.644 298.504 173.187 299.13 172.86C299.764 172.524 300.478 172.356 301.272 172.356C302.065 172.356 302.774 172.524 303.4 172.86C304.025 173.187 304.515 173.644 304.87 174.232C305.224 174.82 305.402 175.487 305.402 176.234C305.402 176.981 305.224 177.648 304.87 178.236C304.515 178.824 304.025 179.286 303.4 179.622C302.774 179.949 302.065 180.112 301.272 180.112ZM301.272 178.32C301.832 178.32 302.289 178.133 302.644 177.76C303.008 177.377 303.19 176.869 303.19 176.234C303.19 175.599 303.008 175.095 302.644 174.722C302.289 174.339 301.832 174.148 301.272 174.148C300.712 174.148 300.25 174.339 299.886 174.722C299.522 175.095 299.34 175.599 299.34 176.234C299.34 176.869 299.522 177.377 299.886 177.76C300.25 178.133 300.712 178.32 301.272 178.32ZM306.862 172.468H309.046V180H306.862V172.468ZM307.954 171.418C307.552 171.418 307.226 171.301 306.974 171.068C306.722 170.835 306.596 170.545 306.596 170.2C306.596 169.855 306.722 169.565 306.974 169.332C307.226 169.099 307.552 168.982 307.954 168.982C308.355 168.982 308.682 169.094 308.934 169.318C309.186 169.542 309.312 169.822 309.312 170.158C309.312 170.522 309.186 170.825 308.934 171.068C308.682 171.301 308.355 171.418 307.954 171.418ZM314.712 180.112C313.91 180.112 313.186 179.949 312.542 179.622C311.908 179.286 311.408 178.824 311.044 178.236C310.69 177.648 310.512 176.981 310.512 176.234C310.512 175.487 310.69 174.82 311.044 174.232C311.408 173.644 311.908 173.187 312.542 172.86C313.186 172.524 313.91 172.356 314.712 172.356C315.506 172.356 316.196 172.524 316.784 172.86C317.382 173.187 317.816 173.658 318.086 174.274L316.392 175.184C316 174.493 315.436 174.148 314.698 174.148C314.129 174.148 313.658 174.335 313.284 174.708C312.911 175.081 312.724 175.59 312.724 176.234C312.724 176.878 312.911 177.387 313.284 177.76C313.658 178.133 314.129 178.32 314.698 178.32C315.445 178.32 316.01 177.975 316.392 177.284L318.086 178.208C317.816 178.805 317.382 179.272 316.784 179.608C316.196 179.944 315.506 180.112 314.712 180.112ZM326.626 176.262C326.626 176.29 326.612 176.486 326.584 176.85H320.886C320.989 177.317 321.232 177.685 321.614 177.956C321.997 178.227 322.473 178.362 323.042 178.362C323.434 178.362 323.78 178.306 324.078 178.194C324.386 178.073 324.671 177.886 324.932 177.634L326.094 178.894C325.385 179.706 324.349 180.112 322.986 180.112C322.137 180.112 321.386 179.949 320.732 179.622C320.079 179.286 319.575 178.824 319.22 178.236C318.866 177.648 318.688 176.981 318.688 176.234C318.688 175.497 318.861 174.834 319.206 174.246C319.561 173.649 320.042 173.187 320.648 172.86C321.264 172.524 321.95 172.356 322.706 172.356C323.444 172.356 324.111 172.515 324.708 172.832C325.306 173.149 325.772 173.607 326.108 174.204C326.454 174.792 326.626 175.478 326.626 176.262ZM322.72 174.008C322.226 174.008 321.81 174.148 321.474 174.428C321.138 174.708 320.933 175.091 320.858 175.576H324.568C324.494 175.1 324.288 174.722 323.952 174.442C323.616 174.153 323.206 174.008 322.72 174.008Z" fill="white"/>
<path d="M343 173L349 178L355 173" stroke="white" stroke-linecap="round"/>
<path d="M54.098 214.225L52.124 216.283V220H48.743V205.3H52.124V212.167L58.634 205.3H62.414L56.324 211.852L62.771 220H58.802L54.098 214.225ZM74.6522 214.393C74.6522 214.435 74.6312 214.729 74.5892 215.275H66.0422C66.1962 215.975 66.5602 216.528 67.1342 216.934C67.7082 217.34 68.4222 217.543 69.2762 217.543C69.8642 217.543 70.3822 217.459 70.8302 217.291C71.2922 217.109 71.7192 216.829 72.1112 216.451L73.8542 218.341C72.7902 219.559 71.2362 220.168 69.1922 220.168C67.9182 220.168 66.7912 219.923 65.8112 219.433C64.8312 218.929 64.0752 218.236 63.5432 217.354C63.0112 216.472 62.7452 215.471 62.7452 214.351C62.7452 213.245 63.0042 212.251 63.5222 211.369C64.0542 210.473 64.7752 209.78 65.6852 209.29C66.6092 208.786 67.6382 208.534 68.7722 208.534C69.8782 208.534 70.8792 208.772 71.7752 209.248C72.6712 209.724 73.3712 210.41 73.8752 211.306C74.3932 212.188 74.6522 213.217 74.6522 214.393ZM68.7932 211.012C68.0512 211.012 67.4282 211.222 66.9242 211.642C66.4202 212.062 66.1122 212.636 66.0002 213.364H71.5652C71.4532 212.65 71.1452 212.083 70.6412 211.663C70.1372 211.229 69.5212 211.012 68.7932 211.012ZM87.8422 208.702L82.7392 220.693C82.2212 221.995 81.5772 222.912 80.8072 223.444C80.0512 223.976 79.1342 224.242 78.0562 224.242C77.4682 224.242 76.8872 224.151 76.3132 223.969C75.7392 223.787 75.2702 223.535 74.9062 223.213L76.1032 220.882C76.3552 221.106 76.6422 221.281 76.9642 221.407C77.3002 221.533 77.6292 221.596 77.9512 221.596C78.3992 221.596 78.7632 221.484 79.0432 221.26C79.3232 221.05 79.5752 220.693 79.7992 220.189L79.8412 220.084L74.9482 208.702H78.3292L81.5002 216.367L84.6922 208.702H87.8422ZM95.857 208.534C96.907 208.534 97.859 208.779 98.713 209.269C99.581 209.745 100.26 210.424 100.75 211.306C101.24 212.174 101.485 213.189 101.485 214.351C101.485 215.513 101.24 216.535 100.75 217.417C100.26 218.285 99.581 218.964 98.713 219.454C97.859 219.93 96.907 220.168 95.857 220.168C94.303 220.168 93.12 219.678 92.308 218.698V220H89.179V204.418H92.455V209.899C93.281 208.989 94.415 208.534 95.857 208.534ZM95.29 217.48C96.13 217.48 96.816 217.2 97.348 216.64C97.894 216.066 98.167 215.303 98.167 214.351C98.167 213.399 97.894 212.643 97.348 212.083C96.816 211.509 96.13 211.222 95.29 211.222C94.45 211.222 93.757 211.509 93.211 212.083C92.679 212.643 92.413 213.399 92.413 214.351C92.413 215.303 92.679 216.066 93.211 216.64C93.757 217.2 94.45 217.48 95.29 217.48ZM109.054 220.168C107.864 220.168 106.793 219.923 105.841 219.433C104.903 218.929 104.168 218.236 103.636 217.354C103.104 216.472 102.838 215.471 102.838 214.351C102.838 213.231 103.104 212.23 103.636 211.348C104.168 210.466 104.903 209.78 105.841 209.29C106.793 208.786 107.864 208.534 109.054 208.534C110.244 208.534 111.308 208.786 112.246 209.29C113.184 209.78 113.919 210.466 114.451 211.348C114.983 212.23 115.249 213.231 115.249 214.351C115.249 215.471 114.983 216.472 114.451 217.354C113.919 218.236 113.184 218.929 112.246 219.433C111.308 219.923 110.244 220.168 109.054 220.168ZM109.054 217.48C109.894 217.48 110.58 217.2 111.112 216.64C111.658 216.066 111.931 215.303 111.931 214.351C111.931 213.399 111.658 212.643 111.112 212.083C110.58 211.509 109.894 211.222 109.054 211.222C108.214 211.222 107.521 211.509 106.975 212.083C106.429 212.643 106.156 213.399 106.156 214.351C106.156 215.303 106.429 216.066 106.975 216.64C107.521 217.2 108.214 217.48 109.054 217.48ZM121.811 208.534C123.561 208.534 124.905 208.954 125.843 209.794C126.781 210.62 127.25 211.873 127.25 213.553V220H124.184V218.593C123.568 219.643 122.42 220.168 120.74 220.168C119.872 220.168 119.116 220.021 118.472 219.727C117.842 219.433 117.359 219.027 117.023 218.509C116.687 217.991 116.519 217.403 116.519 216.745C116.519 215.695 116.911 214.869 117.695 214.267C118.493 213.665 119.718 213.364 121.37 213.364H123.974C123.974 212.65 123.757 212.104 123.323 211.726C122.889 211.334 122.238 211.138 121.37 211.138C120.768 211.138 120.173 211.236 119.585 211.432C119.011 211.614 118.521 211.866 118.115 212.188L116.939 209.899C117.555 209.465 118.29 209.129 119.144 208.891C120.012 208.653 120.901 208.534 121.811 208.534ZM121.559 217.963C122.119 217.963 122.616 217.837 123.05 217.585C123.484 217.319 123.792 216.934 123.974 216.43V215.275H121.727C120.383 215.275 119.711 215.716 119.711 216.598C119.711 217.018 119.872 217.354 120.194 217.606C120.53 217.844 120.985 217.963 121.559 217.963ZM133.344 210.193C133.736 209.647 134.261 209.234 134.919 208.954C135.591 208.674 136.361 208.534 137.229 208.534V211.558C136.865 211.53 136.62 211.516 136.494 211.516C135.556 211.516 134.821 211.782 134.289 212.314C133.757 212.832 133.491 213.616 133.491 214.666V220H130.215V208.702H133.344V210.193ZM150.583 204.418V220H147.454V218.698C146.642 219.678 145.466 220.168 143.926 220.168C142.862 220.168 141.896 219.93 141.028 219.454C140.174 218.978 139.502 218.299 139.012 217.417C138.522 216.535 138.277 215.513 138.277 214.351C138.277 213.189 138.522 212.167 139.012 211.285C139.502 210.403 140.174 209.724 141.028 209.248C141.896 208.772 142.862 208.534 143.926 208.534C145.368 208.534 146.495 208.989 147.307 209.899V204.418H150.583ZM144.493 217.48C145.319 217.48 146.005 217.2 146.551 216.64C147.097 216.066 147.37 215.303 147.37 214.351C147.37 213.399 147.097 212.643 146.551 212.083C146.005 211.509 145.319 211.222 144.493 211.222C143.653 211.222 142.96 211.509 142.414 212.083C141.868 212.643 141.595 213.399 141.595 214.351C141.595 215.303 141.868 216.066 142.414 216.64C142.96 217.2 143.653 217.48 144.493 217.48ZM173.275 205.3V220H169.873V213.973H163.195V220H159.793V205.3H163.195V211.096H169.873V205.3H173.275ZM181.898 220.168C180.708 220.168 179.637 219.923 178.685 219.433C177.747 218.929 177.012 218.236 176.48 217.354C175.948 216.472 175.682 215.471 175.682 214.351C175.682 213.231 175.948 212.23 176.48 211.348C177.012 210.466 177.747 209.78 178.685 209.29C179.637 208.786 180.708 208.534 181.898 208.534C183.088 208.534 184.152 208.786 185.09 209.29C186.028 209.78 186.763 210.466 187.295 211.348C187.827 212.23 188.093 213.231 188.093 214.351C188.093 215.471 187.827 216.472 187.295 217.354C186.763 218.236 186.028 218.929 185.09 219.433C184.152 219.923 183.088 220.168 181.898 220.168ZM181.898 217.48C182.738 217.48 183.424 217.2 183.956 216.64C184.502 216.066 184.775 215.303 184.775 214.351C184.775 213.399 184.502 212.643 183.956 212.083C183.424 211.509 182.738 211.222 181.898 211.222C181.058 211.222 180.365 211.509 179.819 212.083C179.273 212.643 179 213.399 179 214.351C179 215.303 179.273 216.066 179.819 216.64C180.365 217.2 181.058 217.48 181.898 217.48ZM197.57 219.454C197.248 219.692 196.849 219.874 196.373 220C195.911 220.112 195.421 220.168 194.903 220.168C193.559 220.168 192.516 219.825 191.774 219.139C191.046 218.453 190.682 217.445 190.682 216.115V211.474H188.939V208.954H190.682V206.203H193.958V208.954H196.772V211.474H193.958V216.073C193.958 216.549 194.077 216.92 194.315 217.186C194.567 217.438 194.917 217.564 195.365 217.564C195.883 217.564 196.324 217.424 196.688 217.144L197.57 219.454ZM204.259 215.569L202.684 217.123V220H199.408V204.418H202.684V213.238L207.472 208.702H211.378L206.674 213.49L211.798 220H207.829L204.259 215.569ZM223.847 214.393C223.847 214.435 223.826 214.729 223.784 215.275H215.237C215.391 215.975 215.755 216.528 216.329 216.934C216.903 217.34 217.617 217.543 218.471 217.543C219.059 217.543 219.577 217.459 220.025 217.291C220.487 217.109 220.914 216.829 221.306 216.451L223.049 218.341C221.985 219.559 220.431 220.168 218.387 220.168C217.113 220.168 215.986 219.923 215.006 219.433C214.026 218.929 213.27 218.236 212.738 217.354C212.206 216.472 211.94 215.471 211.94 214.351C211.94 213.245 212.199 212.251 212.717 211.369C213.249 210.473 213.97 209.78 214.88 209.29C215.804 208.786 216.833 208.534 217.967 208.534C219.073 208.534 220.074 208.772 220.97 209.248C221.866 209.724 222.566 210.41 223.07 211.306C223.588 212.188 223.847 213.217 223.847 214.393ZM217.988 211.012C217.246 211.012 216.623 211.222 216.119 211.642C215.615 212.062 215.307 212.636 215.195 213.364H220.76C220.648 212.65 220.34 212.083 219.836 211.663C219.332 211.229 218.716 211.012 217.988 211.012ZM237.037 208.702L231.934 220.693C231.416 221.995 230.772 222.912 230.002 223.444C229.246 223.976 228.329 224.242 227.251 224.242C226.663 224.242 226.082 224.151 225.508 223.969C224.934 223.787 224.465 223.535 224.101 223.213L225.298 220.882C225.55 221.106 225.837 221.281 226.159 221.407C226.495 221.533 226.824 221.596 227.146 221.596C227.594 221.596 227.958 221.484 228.238 221.26C228.518 221.05 228.77 220.693 228.994 220.189L229.036 220.084L224.143 208.702H227.524L230.695 216.367L233.887 208.702H237.037Z" fill="white"/>
<rect x="249" y="201" width="114" height="21" rx="4" fill="#36393F"/>
<path d="M289.92 207.88V210.84H295.104V212.92H289.92V217H287.328V205.8H295.792V207.88H289.92ZM302.447 208.264C303.513 208.264 304.372 208.584 305.023 209.224C305.684 209.864 306.015 210.813 306.015 212.072V217H303.519V212.456C303.519 211.773 303.369 211.267 303.071 210.936C302.772 210.595 302.34 210.424 301.775 210.424C301.145 210.424 300.644 210.621 300.271 211.016C299.897 211.4 299.711 211.976 299.711 212.744V217H297.215V208.392H299.599V209.4C299.929 209.037 300.34 208.76 300.831 208.568C301.321 208.365 301.86 208.264 302.447 208.264ZM315.733 212.376H312.949V215.096H310.885V212.376H308.117V210.424H310.885V207.704H312.949V210.424H315.733V212.376ZM321.551 213.624L320.351 214.808V217H317.855V205.128H320.351V211.848L323.999 208.392H326.975L323.391 212.04L327.295 217H324.271L321.551 213.624Z" fill="white"/>
<path d="M58.109 257L55.274 252.905H55.106H52.145V257H48.743V242.3H55.106C56.408 242.3 57.535 242.517 58.487 242.951C59.453 243.385 60.195 244.001 60.713 244.799C61.231 245.597 61.49 246.542 61.49 247.634C61.49 248.726 61.224 249.671 60.692 250.469C60.174 251.253 59.432 251.855 58.466 252.275L61.763 257H58.109ZM58.046 247.634C58.046 246.808 57.78 246.178 57.248 245.744C56.716 245.296 55.939 245.072 54.917 245.072H52.145V250.196H54.917C55.939 250.196 56.716 249.972 57.248 249.524C57.78 249.076 58.046 248.446 58.046 247.634ZM75.0214 251.393C75.0214 251.435 75.0004 251.729 74.9584 252.275H66.4114C66.5654 252.975 66.9294 253.528 67.5034 253.934C68.0774 254.34 68.7914 254.543 69.6454 254.543C70.2334 254.543 70.7514 254.459 71.1994 254.291C71.6614 254.109 72.0884 253.829 72.4804 253.451L74.2234 255.341C73.1594 256.559 71.6054 257.168 69.5614 257.168C68.2874 257.168 67.1604 256.923 66.1804 256.433C65.2004 255.929 64.4444 255.236 63.9124 254.354C63.3804 253.472 63.1144 252.471 63.1144 251.351C63.1144 250.245 63.3734 249.251 63.8914 248.369C64.4234 247.473 65.1444 246.78 66.0544 246.29C66.9784 245.786 68.0074 245.534 69.1414 245.534C70.2474 245.534 71.2484 245.772 72.1444 246.248C73.0404 246.724 73.7404 247.41 74.2444 248.306C74.7624 249.188 75.0214 250.217 75.0214 251.393ZM69.1624 248.012C68.4204 248.012 67.7974 248.222 67.2934 248.642C66.7894 249.062 66.4814 249.636 66.3694 250.364H71.9344C71.8224 249.65 71.5144 249.083 71.0104 248.663C70.5064 248.229 69.8904 248.012 69.1624 248.012ZM91.6714 245.534C93.0854 245.534 94.2054 245.954 95.0314 246.794C95.8714 247.62 96.2914 248.866 96.2914 250.532V257H93.0154V251.036C93.0154 250.14 92.8264 249.475 92.4484 249.041C92.0844 248.593 91.5594 248.369 90.8734 248.369C90.1034 248.369 89.4944 248.621 89.0464 249.125C88.5984 249.615 88.3744 250.35 88.3744 251.33V257H85.0984V251.036C85.0984 249.258 84.3844 248.369 82.9564 248.369C82.2004 248.369 81.5984 248.621 81.1504 249.125C80.7024 249.615 80.4784 250.35 80.4784 251.33V257H77.2024V245.702H80.3314V247.004C80.7514 246.528 81.2624 246.164 81.8644 245.912C82.4804 245.66 83.1524 245.534 83.8804 245.534C84.6784 245.534 85.3994 245.695 86.0434 246.017C86.6874 246.325 87.2054 246.78 87.5974 247.382C88.0594 246.794 88.6404 246.339 89.3404 246.017C90.0544 245.695 90.8314 245.534 91.6714 245.534ZM99.2278 245.702H102.504V257H99.2278V245.702ZM100.866 244.127C100.264 244.127 99.7738 243.952 99.3958 243.602C99.0178 243.252 98.8288 242.818 98.8288 242.3C98.8288 241.782 99.0178 241.348 99.3958 240.998C99.7738 240.648 100.264 240.473 100.866 240.473C101.468 240.473 101.958 240.641 102.336 240.977C102.714 241.313 102.903 241.733 102.903 242.237C102.903 242.783 102.714 243.238 102.336 243.602C101.958 243.952 101.468 244.127 100.866 244.127ZM112.411 245.534C113.811 245.534 114.938 245.954 115.792 246.794C116.66 247.634 117.094 248.88 117.094 250.532V257H113.818V251.036C113.818 250.14 113.622 249.475 113.23 249.041C112.838 248.593 112.271 248.369 111.529 248.369C110.703 248.369 110.045 248.628 109.555 249.146C109.065 249.65 108.82 250.406 108.82 251.414V257H105.544V245.702H108.673V247.025C109.107 246.549 109.646 246.185 110.29 245.933C110.934 245.667 111.641 245.534 112.411 245.534ZM131.695 241.418V257H128.566V255.698C127.754 256.678 126.578 257.168 125.038 257.168C123.974 257.168 123.008 256.93 122.14 256.454C121.286 255.978 120.614 255.299 120.124 254.417C119.634 253.535 119.389 252.513 119.389 251.351C119.389 250.189 119.634 249.167 120.124 248.285C120.614 247.403 121.286 246.724 122.14 246.248C123.008 245.772 123.974 245.534 125.038 245.534C126.48 245.534 127.607 245.989 128.419 246.899V241.418H131.695ZM125.605 254.48C126.431 254.48 127.117 254.2 127.663 253.64C128.209 253.066 128.482 252.303 128.482 251.351C128.482 250.399 128.209 249.643 127.663 249.083C127.117 248.509 126.431 248.222 125.605 248.222C124.765 248.222 124.072 248.509 123.526 249.083C122.98 249.643 122.707 250.399 122.707 251.351C122.707 252.303 122.98 253.066 123.526 253.64C124.072 254.2 124.765 254.48 125.605 254.48ZM145.794 251.393C145.794 251.435 145.773 251.729 145.731 252.275H137.184C137.338 252.975 137.702 253.528 138.276 253.934C138.85 254.34 139.564 254.543 140.418 254.543C141.006 254.543 141.524 254.459 141.972 254.291C142.434 254.109 142.861 253.829 143.253 253.451L144.996 255.341C143.932 256.559 142.378 257.168 140.334 257.168C139.06 257.168 137.933 256.923 136.953 256.433C135.973 255.929 135.217 255.236 134.685 254.354C134.153 253.472 133.887 252.471 133.887 251.351C133.887 250.245 134.146 249.251 134.664 248.369C135.196 247.473 135.917 246.78 136.827 246.29C137.751 245.786 138.78 245.534 139.914 245.534C141.02 245.534 142.021 245.772 142.917 246.248C143.813 246.724 144.513 247.41 145.017 248.306C145.535 249.188 145.794 250.217 145.794 251.393ZM139.935 248.012C139.193 248.012 138.57 248.222 138.066 248.642C137.562 249.062 137.254 249.636 137.142 250.364H142.707C142.595 249.65 142.287 249.083 141.783 248.663C141.279 248.229 140.663 248.012 139.935 248.012ZM151.104 247.193C151.496 246.647 152.021 246.234 152.679 245.954C153.351 245.674 154.121 245.534 154.989 245.534V248.558C154.625 248.53 154.38 248.516 154.254 248.516C153.316 248.516 152.581 248.782 152.049 249.314C151.517 249.832 151.251 250.616 151.251 251.666V257H147.975V245.702H151.104V247.193ZM172.878 253.85H166.053L164.751 257H161.265L167.817 242.3H171.177L177.75 257H174.18L172.878 253.85ZM171.807 251.267L169.476 245.639L167.145 251.267H171.807ZM179.044 241.418H182.32V257H179.044V241.418ZM196.428 251.393C196.428 251.435 196.407 251.729 196.365 252.275H187.818C187.972 252.975 188.336 253.528 188.91 253.934C189.484 254.34 190.198 254.543 191.052 254.543C191.64 254.543 192.158 254.459 192.606 254.291C193.068 254.109 193.495 253.829 193.887 253.451L195.63 255.341C194.566 256.559 193.012 257.168 190.968 257.168C189.694 257.168 188.567 256.923 187.587 256.433C186.607 255.929 185.851 255.236 185.319 254.354C184.787 253.472 184.521 252.471 184.521 251.351C184.521 250.245 184.78 249.251 185.298 248.369C185.83 247.473 186.551 246.78 187.461 246.29C188.385 245.786 189.414 245.534 190.548 245.534C191.654 245.534 192.655 245.772 193.551 246.248C194.447 246.724 195.147 247.41 195.651 248.306C196.169 249.188 196.428 250.217 196.428 251.393ZM190.569 248.012C189.827 248.012 189.204 248.222 188.7 248.642C188.196 249.062 187.888 249.636 187.776 250.364H193.341C193.229 249.65 192.921 249.083 192.417 248.663C191.913 248.229 191.297 248.012 190.569 248.012ZM201.738 247.193C202.13 246.647 202.655 246.234 203.313 245.954C203.985 245.674 204.755 245.534 205.623 245.534V248.558C205.259 248.53 205.014 248.516 204.888 248.516C203.95 248.516 203.215 248.782 202.683 249.314C202.151 249.832 201.885 250.616 201.885 251.666V257H198.609V245.702H201.738V247.193ZM215.247 256.454C214.925 256.692 214.526 256.874 214.05 257C213.588 257.112 213.098 257.168 212.58 257.168C211.236 257.168 210.193 256.825 209.451 256.139C208.723 255.453 208.359 254.445 208.359 253.115V248.474H206.616V245.954H208.359V243.203H211.635V245.954H214.449V248.474H211.635V253.073C211.635 253.549 211.754 253.92 211.992 254.186C212.244 254.438 212.594 254.564 213.042 254.564C213.56 254.564 214.001 254.424 214.365 254.144L215.247 256.454Z" fill="white"/>
<rect x="249" y="238" width="114" height="21" rx="4" fill="#36393F"/>
<path d="M288.382 253.168C287.607 253.168 286.856 253.065 286.128 252.86C285.409 252.645 284.831 252.37 284.392 252.034L285.162 250.326C285.582 250.634 286.081 250.881 286.66 251.068C287.239 251.255 287.817 251.348 288.396 251.348C289.04 251.348 289.516 251.255 289.824 251.068C290.132 250.872 290.286 250.615 290.286 250.298C290.286 250.065 290.193 249.873 290.006 249.724C289.829 249.565 289.595 249.439 289.306 249.346C289.026 249.253 288.643 249.15 288.158 249.038C287.411 248.861 286.8 248.683 286.324 248.506C285.848 248.329 285.437 248.044 285.092 247.652C284.756 247.26 284.588 246.737 284.588 246.084C284.588 245.515 284.742 245.001 285.05 244.544C285.358 244.077 285.82 243.709 286.436 243.438C287.061 243.167 287.822 243.032 288.718 243.032C289.343 243.032 289.955 243.107 290.552 243.256C291.149 243.405 291.672 243.62 292.12 243.9L291.42 245.622C290.515 245.109 289.609 244.852 288.704 244.852C288.069 244.852 287.598 244.955 287.29 245.16C286.991 245.365 286.842 245.636 286.842 245.972C286.842 246.308 287.015 246.56 287.36 246.728C287.715 246.887 288.251 247.045 288.97 247.204C289.717 247.381 290.328 247.559 290.804 247.736C291.28 247.913 291.686 248.193 292.022 248.576C292.367 248.959 292.54 249.477 292.54 250.13C292.54 250.69 292.381 251.203 292.064 251.67C291.756 252.127 291.289 252.491 290.664 252.762C290.039 253.033 289.278 253.168 288.382 253.168ZM297.52 253.112C296.726 253.112 296.012 252.949 295.378 252.622C294.752 252.286 294.262 251.824 293.908 251.236C293.553 250.648 293.376 249.981 293.376 249.234C293.376 248.487 293.553 247.82 293.908 247.232C294.262 246.644 294.752 246.187 295.378 245.86C296.012 245.524 296.726 245.356 297.52 245.356C298.313 245.356 299.022 245.524 299.648 245.86C300.273 246.187 300.763 246.644 301.118 247.232C301.472 247.82 301.65 248.487 301.65 249.234C301.65 249.981 301.472 250.648 301.118 251.236C300.763 251.824 300.273 252.286 299.648 252.622C299.022 252.949 298.313 253.112 297.52 253.112ZM297.52 251.32C298.08 251.32 298.537 251.133 298.892 250.76C299.256 250.377 299.438 249.869 299.438 249.234C299.438 248.599 299.256 248.095 298.892 247.722C298.537 247.339 298.08 247.148 297.52 247.148C296.96 247.148 296.498 247.339 296.134 247.722C295.77 248.095 295.588 248.599 295.588 249.234C295.588 249.869 295.77 250.377 296.134 250.76C296.498 251.133 296.96 251.32 297.52 251.32ZM310.698 245.468V253H308.626V252.104C308.336 252.431 307.991 252.683 307.59 252.86C307.188 253.028 306.754 253.112 306.288 253.112C305.298 253.112 304.514 252.827 303.936 252.258C303.357 251.689 303.068 250.844 303.068 249.724V245.468H305.252V249.402C305.252 250.615 305.76 251.222 306.778 251.222C307.3 251.222 307.72 251.054 308.038 250.718C308.355 250.373 308.514 249.864 308.514 249.192V245.468H310.698ZM317.299 245.356C318.232 245.356 318.984 245.636 319.553 246.196C320.132 246.756 320.421 247.587 320.421 248.688V253H318.237V249.024C318.237 248.427 318.106 247.983 317.845 247.694C317.584 247.395 317.206 247.246 316.711 247.246C316.16 247.246 315.722 247.419 315.395 247.764C315.068 248.1 314.905 248.604 314.905 249.276V253H312.721V245.468H314.807V246.35C315.096 246.033 315.456 245.79 315.885 245.622C316.314 245.445 316.786 245.356 317.299 245.356ZM330.155 242.612V253H328.069V252.132C327.527 252.785 326.743 253.112 325.717 253.112C325.007 253.112 324.363 252.953 323.785 252.636C323.215 252.319 322.767 251.866 322.441 251.278C322.114 250.69 321.951 250.009 321.951 249.234C321.951 248.459 322.114 247.778 322.441 247.19C322.767 246.602 323.215 246.149 323.785 245.832C324.363 245.515 325.007 245.356 325.717 245.356C326.678 245.356 327.429 245.659 327.971 246.266V242.612H330.155ZM326.095 251.32C326.645 251.32 327.103 251.133 327.467 250.76C327.831 250.377 328.013 249.869 328.013 249.234C328.013 248.599 327.831 248.095 327.467 247.722C327.103 247.339 326.645 247.148 326.095 247.148C325.535 247.148 325.073 247.339 324.709 247.722C324.345 248.095 324.163 248.599 324.163 249.234C324.163 249.869 324.345 250.377 324.709 250.76C325.073 251.133 325.535 251.32 326.095 251.32Z" fill="white"/>
<path d="M343 246L349 251L355 246" stroke="white" stroke-linecap="round"/>
<path d="M53.27 290.18C52.2 290.18 51.23 289.95 50.36 289.49C49.5 289.02 48.82 288.375 48.32 287.555C47.83 286.725 47.585 285.79 47.585 284.75C47.585 283.71 47.83 282.78 48.32 281.96C48.82 281.13 49.5 280.485 50.36 280.025C51.23 279.555 52.205 279.32 53.285 279.32C54.195 279.32 55.015 279.48 55.745 279.8C56.485 280.12 57.105 280.58 57.605 281.18L56.045 282.62C55.335 281.8 54.455 281.39 53.405 281.39C52.755 281.39 52.175 281.535 51.665 281.825C51.155 282.105 50.755 282.5 50.465 283.01C50.185 283.52 50.045 284.1 50.045 284.75C50.045 285.4 50.185 285.98 50.465 286.49C50.755 287 51.155 287.4 51.665 287.69C52.175 287.97 52.755 288.11 53.405 288.11C54.455 288.11 55.335 287.695 56.045 286.865L57.605 288.305C57.105 288.915 56.485 289.38 55.745 289.7C55.005 290.02 54.18 290.18 53.27 290.18ZM67.0059 281.93V290H64.7859V289.04C64.4759 289.39 64.1059 289.66 63.6759 289.85C63.2459 290.03 62.7809 290.12 62.2809 290.12C61.2209 290.12 60.3809 289.815 59.7609 289.205C59.1409 288.595 58.8309 287.69 58.8309 286.49V281.93H61.1709V286.145C61.1709 287.445 61.7159 288.095 62.8059 288.095C63.3659 288.095 63.8159 287.915 64.1559 287.555C64.4959 287.185 64.6659 286.64 64.6659 285.92V281.93H67.0059ZM71.8888 290.12C71.2188 290.12 70.5638 290.04 69.9238 289.88C69.2838 289.71 68.7738 289.5 68.3938 289.25L69.1738 287.57C69.5338 287.8 69.9688 287.99 70.4788 288.14C70.9888 288.28 71.4888 288.35 71.9788 288.35C72.9688 288.35 73.4638 288.105 73.4638 287.615C73.4638 287.385 73.3288 287.22 73.0588 287.12C72.7888 287.02 72.3738 286.935 71.8138 286.865C71.1538 286.765 70.6088 286.65 70.1788 286.52C69.7488 286.39 69.3738 286.16 69.0538 285.83C68.7438 285.5 68.5887 285.03 68.5887 284.42C68.5887 283.91 68.7338 283.46 69.0238 283.07C69.3238 282.67 69.7538 282.36 70.3138 282.14C70.8838 281.92 71.5538 281.81 72.3238 281.81C72.8938 281.81 73.4588 281.875 74.0188 282.005C74.5888 282.125 75.0588 282.295 75.4288 282.515L74.6488 284.18C73.9388 283.78 73.1638 283.58 72.3238 283.58C71.8238 283.58 71.4488 283.65 71.1988 283.79C70.9488 283.93 70.8238 284.11 70.8238 284.33C70.8238 284.58 70.9588 284.755 71.2288 284.855C71.4988 284.955 71.9288 285.05 72.5188 285.14C73.1788 285.25 73.7188 285.37 74.1388 285.5C74.5588 285.62 74.9238 285.845 75.2338 286.175C75.5438 286.505 75.6988 286.965 75.6988 287.555C75.6988 288.055 75.5488 288.5 75.2488 288.89C74.9488 289.28 74.5088 289.585 73.9288 289.805C73.3588 290.015 72.6788 290.12 71.8888 290.12ZM82.3475 289.61C82.1175 289.78 81.8325 289.91 81.4925 290C81.1625 290.08 80.8125 290.12 80.4425 290.12C79.4825 290.12 78.7375 289.875 78.2075 289.385C77.6875 288.895 77.4275 288.175 77.4275 287.225V283.91H76.1825V282.11H77.4275V280.145H79.7675V282.11H81.7775V283.91H79.7675V287.195C79.7675 287.535 79.8525 287.8 80.0225 287.99C80.2025 288.17 80.4525 288.26 80.7725 288.26C81.1425 288.26 81.4575 288.16 81.7175 287.96L82.3475 289.61ZM87.252 290.12C86.402 290.12 85.637 289.945 84.957 289.595C84.287 289.235 83.762 288.74 83.382 288.11C83.002 287.48 82.812 286.765 82.812 285.965C82.812 285.165 83.002 284.45 83.382 283.82C83.762 283.19 84.287 282.7 84.957 282.35C85.637 281.99 86.402 281.81 87.252 281.81C88.102 281.81 88.862 281.99 89.532 282.35C90.202 282.7 90.727 283.19 91.107 283.82C91.487 284.45 91.677 285.165 91.677 285.965C91.677 286.765 91.487 287.48 91.107 288.11C90.727 288.74 90.202 289.235 89.532 289.595C88.862 289.945 88.102 290.12 87.252 290.12ZM87.252 288.2C87.852 288.2 88.342 288 88.722 287.6C89.112 287.19 89.307 286.645 89.307 285.965C89.307 285.285 89.112 284.745 88.722 284.345C88.342 283.935 87.852 283.73 87.252 283.73C86.652 283.73 86.157 283.935 85.767 284.345C85.377 284.745 85.182 285.285 85.182 285.965C85.182 286.645 85.377 287.19 85.767 287.6C86.157 288 86.652 288.2 87.252 288.2ZM103.576 281.81C104.586 281.81 105.386 282.11 105.976 282.71C106.576 283.3 106.876 284.19 106.876 285.38V290H104.536V285.74C104.536 285.1 104.401 284.625 104.131 284.315C103.871 283.995 103.496 283.835 103.006 283.835C102.456 283.835 102.021 284.015 101.701 284.375C101.381 284.725 101.221 285.25 101.221 285.95V290H98.8811V285.74C98.8811 284.47 98.3711 283.835 97.3511 283.835C96.8111 283.835 96.3811 284.015 96.0611 284.375C95.7411 284.725 95.5811 285.25 95.5811 285.95V290H93.2411V281.93H95.4761V282.86C95.7761 282.52 96.1411 282.26 96.5711 282.08C97.0111 281.9 97.4911 281.81 98.0111 281.81C98.5811 281.81 99.0961 281.925 99.5561 282.155C100.016 282.375 100.386 282.7 100.666 283.13C100.996 282.71 101.411 282.385 101.911 282.155C102.421 281.925 102.976 281.81 103.576 281.81ZM116.837 290.18C116.007 290.18 115.202 290.07 114.422 289.85C113.652 289.62 113.032 289.325 112.562 288.965L113.387 287.135C113.837 287.465 114.372 287.73 114.992 287.93C115.612 288.13 116.232 288.23 116.852 288.23C117.542 288.23 118.052 288.13 118.382 287.93C118.712 287.72 118.877 287.445 118.877 287.105C118.877 286.855 118.777 286.65 118.577 286.49C118.387 286.32 118.137 286.185 117.827 286.085C117.527 285.985 117.117 285.875 116.597 285.755C115.797 285.565 115.142 285.375 114.632 285.185C114.122 284.995 113.682 284.69 113.312 284.27C112.952 283.85 112.772 283.29 112.772 282.59C112.772 281.98 112.937 281.43 113.267 280.94C113.597 280.44 114.092 280.045 114.752 279.755C115.422 279.465 116.237 279.32 117.197 279.32C117.867 279.32 118.522 279.4 119.162 279.56C119.802 279.72 120.362 279.95 120.842 280.25L120.092 282.095C119.122 281.545 118.152 281.27 117.182 281.27C116.502 281.27 115.997 281.38 115.667 281.6C115.347 281.82 115.187 282.11 115.187 282.47C115.187 282.83 115.372 283.1 115.742 283.28C116.122 283.45 116.697 283.62 117.467 283.79C118.267 283.98 118.922 284.17 119.432 284.36C119.942 284.55 120.377 284.85 120.737 285.26C121.107 285.67 121.292 286.225 121.292 286.925C121.292 287.525 121.122 288.075 120.782 288.575C120.452 289.065 119.952 289.455 119.282 289.745C118.612 290.035 117.797 290.18 116.837 290.18ZM126.627 290.12C125.777 290.12 125.012 289.945 124.332 289.595C123.662 289.235 123.137 288.74 122.757 288.11C122.377 287.48 122.187 286.765 122.187 285.965C122.187 285.165 122.377 284.45 122.757 283.82C123.137 283.19 123.662 282.7 124.332 282.35C125.012 281.99 125.777 281.81 126.627 281.81C127.477 281.81 128.237 281.99 128.907 282.35C129.577 282.7 130.102 283.19 130.482 283.82C130.862 284.45 131.052 285.165 131.052 285.965C131.052 286.765 130.862 287.48 130.482 288.11C130.102 288.74 129.577 289.235 128.907 289.595C128.237 289.945 127.477 290.12 126.627 290.12ZM126.627 288.2C127.227 288.2 127.717 288 128.097 287.6C128.487 287.19 128.682 286.645 128.682 285.965C128.682 285.285 128.487 284.745 128.097 284.345C127.717 283.935 127.227 283.73 126.627 283.73C126.027 283.73 125.532 283.935 125.142 284.345C124.752 284.745 124.557 285.285 124.557 285.965C124.557 286.645 124.752 287.19 125.142 287.6C125.532 288 126.027 288.2 126.627 288.2ZM140.746 281.93V290H138.526V289.04C138.216 289.39 137.846 289.66 137.416 289.85C136.986 290.03 136.521 290.12 136.021 290.12C134.961 290.12 134.121 289.815 133.501 289.205C132.881 288.595 132.571 287.69 132.571 286.49V281.93H134.911V286.145C134.911 287.445 135.456 288.095 136.546 288.095C137.106 288.095 137.556 287.915 137.896 287.555C138.236 287.185 138.406 286.64 138.406 285.92V281.93H140.746ZM147.819 281.81C148.819 281.81 149.624 282.11 150.234 282.71C150.854 283.31 151.164 284.2 151.164 285.38V290H148.824V285.74C148.824 285.1 148.684 284.625 148.404 284.315C148.124 283.995 147.719 283.835 147.189 283.835C146.599 283.835 146.129 284.02 145.779 284.39C145.429 284.75 145.254 285.29 145.254 286.01V290H142.914V281.93H145.149V282.875C145.459 282.535 145.844 282.275 146.304 282.095C146.764 281.905 147.269 281.81 147.819 281.81ZM161.593 278.87V290H159.358V289.07C158.778 289.77 157.938 290.12 156.838 290.12C156.078 290.12 155.388 289.95 154.768 289.61C154.158 289.27 153.678 288.785 153.328 288.155C152.978 287.525 152.803 286.795 152.803 285.965C152.803 285.135 152.978 284.405 153.328 283.775C153.678 283.145 154.158 282.66 154.768 282.32C155.388 281.98 156.078 281.81 156.838 281.81C157.868 281.81 158.673 282.135 159.253 282.785V278.87H161.593ZM157.243 288.2C157.833 288.2 158.323 288 158.713 287.6C159.103 287.19 159.298 286.645 159.298 285.965C159.298 285.285 159.103 284.745 158.713 284.345C158.323 283.935 157.833 283.73 157.243 283.73C156.643 283.73 156.148 283.935 155.758 284.345C155.368 284.745 155.173 285.285 155.173 285.965C155.173 286.645 155.368 287.19 155.758 287.6C156.148 288 156.643 288.2 157.243 288.2ZM168.172 279.5H170.602V288.02H175.867V290H168.172V279.5ZM180.841 290.12C179.991 290.12 179.226 289.945 178.546 289.595C177.876 289.235 177.351 288.74 176.971 288.11C176.591 287.48 176.401 286.765 176.401 285.965C176.401 285.165 176.591 284.45 176.971 283.82C177.351 283.19 177.876 282.7 178.546 282.35C179.226 281.99 179.991 281.81 180.841 281.81C181.691 281.81 182.451 281.99 183.121 282.35C183.791 282.7 184.316 283.19 184.696 283.82C185.076 284.45 185.266 285.165 185.266 285.965C185.266 286.765 185.076 287.48 184.696 288.11C184.316 288.74 183.791 289.235 183.121 289.595C182.451 289.945 181.691 290.12 180.841 290.12ZM180.841 288.2C181.441 288.2 181.931 288 182.311 287.6C182.701 287.19 182.896 286.645 182.896 285.965C182.896 285.285 182.701 284.745 182.311 284.345C181.931 283.935 181.441 283.73 180.841 283.73C180.241 283.73 179.746 283.935 179.356 284.345C178.966 284.745 178.771 285.285 178.771 285.965C178.771 286.645 178.966 287.19 179.356 287.6C179.746 288 180.241 288.2 180.841 288.2ZM190.73 290.12C189.87 290.12 189.095 289.945 188.405 289.595C187.725 289.235 187.19 288.74 186.8 288.11C186.42 287.48 186.23 286.765 186.23 285.965C186.23 285.165 186.42 284.45 186.8 283.82C187.19 283.19 187.725 282.7 188.405 282.35C189.095 281.99 189.87 281.81 190.73 281.81C191.58 281.81 192.32 281.99 192.95 282.35C193.59 282.7 194.055 283.205 194.345 283.865L192.53 284.84C192.11 284.1 191.505 283.73 190.715 283.73C190.105 283.73 189.6 283.93 189.2 284.33C188.8 284.73 188.6 285.275 188.6 285.965C188.6 286.655 188.8 287.2 189.2 287.6C189.6 288 190.105 288.2 190.715 288.2C191.515 288.2 192.12 287.83 192.53 287.09L194.345 288.08C194.055 288.72 193.59 289.22 192.95 289.58C192.32 289.94 191.58 290.12 190.73 290.12ZM198.947 281.81C200.197 281.81 201.157 282.11 201.827 282.71C202.497 283.3 202.832 284.195 202.832 285.395V290H200.642V288.995C200.202 289.745 199.382 290.12 198.182 290.12C197.562 290.12 197.022 290.015 196.562 289.805C196.112 289.595 195.767 289.305 195.527 288.935C195.287 288.565 195.167 288.145 195.167 287.675C195.167 286.925 195.447 286.335 196.007 285.905C196.577 285.475 197.452 285.26 198.632 285.26H200.492C200.492 284.75 200.337 284.36 200.027 284.09C199.717 283.81 199.252 283.67 198.632 283.67C198.202 283.67 197.777 283.74 197.357 283.88C196.947 284.01 196.597 284.19 196.307 284.42L195.467 282.785C195.907 282.475 196.432 282.235 197.042 282.065C197.662 281.895 198.297 281.81 198.947 281.81ZM198.767 288.545C199.167 288.545 199.522 288.455 199.832 288.275C200.142 288.085 200.362 287.81 200.492 287.45V286.625H198.887C197.927 286.625 197.447 286.94 197.447 287.57C197.447 287.87 197.562 288.11 197.792 288.29C198.032 288.46 198.357 288.545 198.767 288.545ZM210.155 289.61C209.925 289.78 209.64 289.91 209.3 290C208.97 290.08 208.62 290.12 208.25 290.12C207.29 290.12 206.545 289.875 206.015 289.385C205.495 288.895 205.235 288.175 205.235 287.225V283.91H203.99V282.11H205.235V280.145H207.575V282.11H209.585V283.91H207.575V287.195C207.575 287.535 207.66 287.8 207.83 287.99C208.01 288.17 208.26 288.26 208.58 288.26C208.95 288.26 209.265 288.16 209.525 287.96L210.155 289.61ZM211.469 281.93H213.809V290H211.469V281.93ZM212.639 280.805C212.209 280.805 211.859 280.68 211.589 280.43C211.319 280.18 211.184 279.87 211.184 279.5C211.184 279.13 211.319 278.82 211.589 278.57C211.859 278.32 212.209 278.195 212.639 278.195C213.069 278.195 213.419 278.315 213.689 278.555C213.959 278.795 214.094 279.095 214.094 279.455C214.094 279.845 213.959 280.17 213.689 280.43C213.419 280.68 213.069 280.805 212.639 280.805ZM219.82 290.12C218.97 290.12 218.205 289.945 217.525 289.595C216.855 289.235 216.33 288.74 215.95 288.11C215.57 287.48 215.38 286.765 215.38 285.965C215.38 285.165 215.57 284.45 215.95 283.82C216.33 283.19 216.855 282.7 217.525 282.35C218.205 281.99 218.97 281.81 219.82 281.81C220.67 281.81 221.43 281.99 222.1 282.35C222.77 282.7 223.295 283.19 223.675 283.82C224.055 284.45 224.245 285.165 224.245 285.965C224.245 286.765 224.055 287.48 223.675 288.11C223.295 288.74 222.77 289.235 222.1 289.595C221.43 289.945 220.67 290.12 219.82 290.12ZM219.82 288.2C220.42 288.2 220.91 288 221.29 287.6C221.68 287.19 221.875 286.645 221.875 285.965C221.875 285.285 221.68 284.745 221.29 284.345C220.91 283.935 220.42 283.73 219.82 283.73C219.22 283.73 218.725 283.935 218.335 284.345C217.945 284.745 217.75 285.285 217.75 285.965C217.75 286.645 217.945 287.19 218.335 287.6C218.725 288 219.22 288.2 219.82 288.2ZM230.714 281.81C231.714 281.81 232.519 282.11 233.129 282.71C233.749 283.31 234.059 284.2 234.059 285.38V290H231.719V285.74C231.719 285.1 231.579 284.625 231.299 284.315C231.019 283.995 230.614 283.835 230.084 283.835C229.494 283.835 229.024 284.02 228.674 284.39C228.324 284.75 228.149 285.29 228.149 286.01V290H225.809V281.93H228.044V282.875C228.354 282.535 228.739 282.275 229.199 282.095C229.659 281.905 230.164 281.81 230.714 281.81Z" fill="white"/>
<rect x="249" y="275" width="114" height="21" rx="4" fill="#36393F"/>
<path d="M256.179 289.072C255.933 289.072 255.726 288.988 255.558 288.82C255.39 288.652 255.306 288.442 255.306 288.19C255.306 287.932 255.39 287.725 255.558 287.569C255.726 287.407 255.933 287.326 256.179 287.326C256.425 287.326 256.632 287.407 256.8 287.569C256.968 287.725 257.052 287.932 257.052 288.19C257.052 288.442 256.968 288.652 256.8 288.82C256.632 288.988 256.425 289.072 256.179 289.072ZM260.837 281.422H262.088L259.118 289.9H257.867L260.837 281.422ZM266.224 287.65H263.299L262.741 289H261.247L264.055 282.7H265.495L268.312 289H266.782L266.224 287.65ZM265.765 286.543L264.766 284.131L263.767 286.543H265.765ZM270.452 289.072C270.05 289.072 269.657 289.024 269.273 288.928C268.889 288.826 268.583 288.7 268.355 288.55L268.823 287.542C269.039 287.68 269.3 287.794 269.606 287.884C269.912 287.968 270.212 288.01 270.506 288.01C271.1 288.01 271.397 287.863 271.397 287.569C271.397 287.431 271.316 287.332 271.154 287.272C270.992 287.212 270.743 287.161 270.407 287.119C270.011 287.059 269.684 286.99 269.426 286.912C269.168 286.834 268.943 286.696 268.751 286.498C268.565 286.3 268.472 286.018 268.472 285.652C268.472 285.346 268.559 285.076 268.733 284.842C268.913 284.602 269.171 284.416 269.507 284.284C269.849 284.152 270.251 284.086 270.713 284.086C271.055 284.086 271.394 284.125 271.73 284.203C272.072 284.275 272.354 284.377 272.576 284.509L272.108 285.508C271.682 285.268 271.217 285.148 270.713 285.148C270.413 285.148 270.188 285.19 270.038 285.274C269.888 285.358 269.813 285.466 269.813 285.598C269.813 285.748 269.894 285.853 270.056 285.913C270.218 285.973 270.476 286.03 270.83 286.084C271.226 286.15 271.55 286.222 271.802 286.3C272.054 286.372 272.273 286.507 272.459 286.705C272.645 286.903 272.738 287.179 272.738 287.533C272.738 287.833 272.648 288.1 272.468 288.334C272.288 288.568 272.024 288.751 271.676 288.883C271.334 289.009 270.926 289.072 270.452 289.072ZM275.233 289.072C274.831 289.072 274.438 289.024 274.054 288.928C273.67 288.826 273.364 288.7 273.136 288.55L273.604 287.542C273.82 287.68 274.081 287.794 274.387 287.884C274.693 287.968 274.993 288.01 275.287 288.01C275.881 288.01 276.178 287.863 276.178 287.569C276.178 287.431 276.097 287.332 275.935 287.272C275.773 287.212 275.524 287.161 275.188 287.119C274.792 287.059 274.465 286.99 274.207 286.912C273.949 286.834 273.724 286.696 273.532 286.498C273.346 286.3 273.253 286.018 273.253 285.652C273.253 285.346 273.34 285.076 273.514 284.842C273.694 284.602 273.952 284.416 274.288 284.284C274.63 284.152 275.032 284.086 275.494 284.086C275.836 284.086 276.175 284.125 276.511 284.203C276.853 284.275 277.135 284.377 277.357 284.509L276.889 285.508C276.463 285.268 275.998 285.148 275.494 285.148C275.194 285.148 274.969 285.19 274.819 285.274C274.669 285.358 274.594 285.466 274.594 285.598C274.594 285.748 274.675 285.853 274.837 285.913C274.999 285.973 275.257 286.03 275.611 286.084C276.007 286.15 276.331 286.222 276.583 286.3C276.835 286.372 277.054 286.507 277.24 286.705C277.426 286.903 277.519 287.179 277.519 287.533C277.519 287.833 277.429 288.1 277.249 288.334C277.069 288.568 276.805 288.751 276.457 288.883C276.115 289.009 275.707 289.072 275.233 289.072ZM283.128 286.597C283.128 286.615 283.119 286.741 283.101 286.975H279.438C279.504 287.275 279.66 287.512 279.906 287.686C280.152 287.86 280.458 287.947 280.824 287.947C281.076 287.947 281.298 287.911 281.49 287.839C281.688 287.761 281.871 287.641 282.039 287.479L282.786 288.289C282.33 288.811 281.664 289.072 280.788 289.072C280.242 289.072 279.759 288.967 279.339 288.757C278.919 288.541 278.595 288.244 278.367 287.866C278.139 287.488 278.025 287.059 278.025 286.579C278.025 286.105 278.136 285.679 278.358 285.301C278.586 284.917 278.895 284.62 279.285 284.41C279.681 284.194 280.122 284.086 280.608 284.086C281.082 284.086 281.511 284.188 281.895 284.392C282.279 284.596 282.579 284.89 282.795 285.274C283.017 285.652 283.128 286.093 283.128 286.597ZM280.617 285.148C280.299 285.148 280.032 285.238 279.816 285.418C279.6 285.598 279.468 285.844 279.42 286.156H281.805C281.757 285.85 281.625 285.607 281.409 285.427C281.193 285.241 280.929 285.148 280.617 285.148ZM285.404 284.797C285.572 284.563 285.797 284.386 286.079 284.266C286.367 284.146 286.697 284.086 287.069 284.086V285.382C286.913 285.37 286.808 285.364 286.754 285.364C286.352 285.364 286.037 285.478 285.809 285.706C285.581 285.928 285.467 286.264 285.467 286.714V289H284.063V284.158H285.404V284.797ZM291.194 288.766C291.056 288.868 290.885 288.946 290.681 289C290.483 289.048 290.273 289.072 290.051 289.072C289.475 289.072 289.028 288.925 288.71 288.631C288.398 288.337 288.242 287.905 288.242 287.335V285.346H287.495V284.266H288.242V283.087H289.646V284.266H290.852V285.346H289.646V287.317C289.646 287.521 289.697 287.68 289.799 287.794C289.907 287.902 290.057 287.956 290.249 287.956C290.471 287.956 290.66 287.896 290.816 287.776L291.194 288.766ZM293.611 289.072C293.209 289.072 292.816 289.024 292.432 288.928C292.048 288.826 291.742 288.7 291.514 288.55L291.982 287.542C292.198 287.68 292.459 287.794 292.765 287.884C293.071 287.968 293.371 288.01 293.665 288.01C294.259 288.01 294.556 287.863 294.556 287.569C294.556 287.431 294.475 287.332 294.313 287.272C294.151 287.212 293.902 287.161 293.566 287.119C293.17 287.059 292.843 286.99 292.585 286.912C292.327 286.834 292.102 286.696 291.91 286.498C291.724 286.3 291.631 286.018 291.631 285.652C291.631 285.346 291.718 285.076 291.892 284.842C292.072 284.602 292.33 284.416 292.666 284.284C293.008 284.152 293.41 284.086 293.872 284.086C294.214 284.086 294.553 284.125 294.889 284.203C295.231 284.275 295.513 284.377 295.735 284.509L295.267 285.508C294.841 285.268 294.376 285.148 293.872 285.148C293.572 285.148 293.347 285.19 293.197 285.274C293.047 285.358 292.972 285.466 292.972 285.598C292.972 285.748 293.053 285.853 293.215 285.913C293.377 285.973 293.635 286.03 293.989 286.084C294.385 286.15 294.709 286.222 294.961 286.3C295.213 286.372 295.432 286.507 295.618 286.705C295.804 286.903 295.897 287.179 295.897 287.533C295.897 287.833 295.807 288.1 295.627 288.334C295.447 288.568 295.183 288.751 294.835 288.883C294.493 289.009 294.085 289.072 293.611 289.072ZM298.788 281.422H300.039L297.069 289.9H295.818L298.788 281.422ZM302.281 289.108C301.783 289.108 301.3 289.042 300.832 288.91C300.37 288.772 299.998 288.595 299.716 288.379L300.211 287.281C300.481 287.479 300.802 287.638 301.174 287.758C301.546 287.878 301.918 287.938 302.29 287.938C302.704 287.938 303.01 287.878 303.208 287.758C303.406 287.632 303.505 287.467 303.505 287.263C303.505 287.113 303.445 286.99 303.325 286.894C303.211 286.792 303.061 286.711 302.875 286.651C302.695 286.591 302.449 286.525 302.137 286.453C301.657 286.339 301.264 286.225 300.958 286.111C300.652 285.997 300.388 285.814 300.166 285.562C299.95 285.31 299.842 284.974 299.842 284.554C299.842 284.188 299.941 283.858 300.139 283.564C300.337 283.264 300.634 283.027 301.03 282.853C301.432 282.679 301.921 282.592 302.497 282.592C302.899 282.592 303.292 282.64 303.676 282.736C304.06 282.832 304.396 282.97 304.684 283.15L304.234 284.257C303.652 283.927 303.07 283.762 302.488 283.762C302.08 283.762 301.777 283.828 301.579 283.96C301.387 284.092 301.291 284.266 301.291 284.482C301.291 284.698 301.402 284.86 301.624 284.968C301.852 285.07 302.197 285.172 302.659 285.274C303.139 285.388 303.532 285.502 303.838 285.616C304.144 285.73 304.405 285.91 304.621 286.156C304.843 286.402 304.954 286.735 304.954 287.155C304.954 287.515 304.852 287.845 304.648 288.145C304.45 288.439 304.15 288.673 303.748 288.847C303.346 289.021 302.857 289.108 302.281 289.108ZM308.155 289.072C307.645 289.072 307.186 288.967 306.778 288.757C306.376 288.541 306.061 288.244 305.833 287.866C305.605 287.488 305.491 287.059 305.491 286.579C305.491 286.099 305.605 285.67 305.833 285.292C306.061 284.914 306.376 284.62 306.778 284.41C307.186 284.194 307.645 284.086 308.155 284.086C308.665 284.086 309.121 284.194 309.523 284.41C309.925 284.62 310.24 284.914 310.468 285.292C310.696 285.67 310.81 286.099 310.81 286.579C310.81 287.059 310.696 287.488 310.468 287.866C310.24 288.244 309.925 288.541 309.523 288.757C309.121 288.967 308.665 289.072 308.155 289.072ZM308.155 287.92C308.515 287.92 308.809 287.8 309.037 287.56C309.271 287.314 309.388 286.987 309.388 286.579C309.388 286.171 309.271 285.847 309.037 285.607C308.809 285.361 308.515 285.238 308.155 285.238C307.795 285.238 307.498 285.361 307.264 285.607C307.03 285.847 306.913 286.171 306.913 286.579C306.913 286.987 307.03 287.314 307.264 287.56C307.498 287.8 307.795 287.92 308.155 287.92ZM316.627 284.158V289H315.295V288.424C315.109 288.634 314.887 288.796 314.629 288.91C314.371 289.018 314.092 289.072 313.792 289.072C313.156 289.072 312.652 288.889 312.28 288.523C311.908 288.157 311.722 287.614 311.722 286.894V284.158H313.126V286.687C313.126 287.467 313.453 287.857 314.107 287.857C314.443 287.857 314.713 287.749 314.917 287.533C315.121 287.311 315.223 286.984 315.223 286.552V284.158H316.627ZM320.87 284.086C321.47 284.086 321.953 284.266 322.319 284.626C322.691 284.986 322.877 285.52 322.877 286.228V289H321.473V286.444C321.473 286.06 321.389 285.775 321.221 285.589C321.053 285.397 320.81 285.301 320.492 285.301C320.138 285.301 319.856 285.412 319.646 285.634C319.436 285.85 319.331 286.174 319.331 286.606V289H317.927V284.158H319.268V284.725C319.454 284.521 319.685 284.365 319.961 284.257C320.237 284.143 320.54 284.086 320.87 284.086ZM329.135 282.322V289H327.794V288.442C327.446 288.862 326.942 289.072 326.282 289.072C325.826 289.072 325.412 288.97 325.04 288.766C324.674 288.562 324.386 288.271 324.176 287.893C323.966 287.515 323.861 287.077 323.861 286.579C323.861 286.081 323.966 285.643 324.176 285.265C324.386 284.887 324.674 284.596 325.04 284.392C325.412 284.188 325.826 284.086 326.282 284.086C326.9 284.086 327.383 284.281 327.731 284.671V282.322H329.135ZM326.525 287.92C326.879 287.92 327.173 287.8 327.407 287.56C327.641 287.314 327.758 286.987 327.758 286.579C327.758 286.171 327.641 285.847 327.407 285.607C327.173 285.361 326.879 285.238 326.525 285.238C326.165 285.238 325.868 285.361 325.634 285.607C325.4 285.847 325.283 286.171 325.283 286.579C325.283 286.987 325.4 287.314 325.634 287.56C325.868 287.8 326.165 287.92 326.525 287.92ZM332.567 282.7V289H331.109V283.87H329.849V282.7H332.567ZM334.49 289.072C334.244 289.072 334.037 288.988 333.869 288.82C333.701 288.652 333.617 288.442 333.617 288.19C333.617 287.932 333.701 287.725 333.869 287.569C334.037 287.407 334.244 287.326 334.49 287.326C334.736 287.326 334.943 287.407 335.111 287.569C335.279 287.725 335.363 287.932 335.363 288.19C335.363 288.442 335.279 288.652 335.111 288.82C334.943 288.988 334.736 289.072 334.49 289.072ZM342.515 284.086C343.121 284.086 343.601 284.266 343.955 284.626C344.315 284.98 344.495 285.514 344.495 286.228V289H343.091V286.444C343.091 286.06 343.01 285.775 342.848 285.589C342.692 285.397 342.467 285.301 342.173 285.301C341.843 285.301 341.582 285.409 341.39 285.625C341.198 285.835 341.102 286.15 341.102 286.57V289H339.698V286.444C339.698 285.682 339.392 285.301 338.78 285.301C338.456 285.301 338.198 285.409 338.006 285.625C337.814 285.835 337.718 286.15 337.718 286.57V289H336.314V284.158H337.655V284.716C337.835 284.512 338.054 284.356 338.312 284.248C338.576 284.14 338.864 284.086 339.176 284.086C339.518 284.086 339.827 284.155 340.103 284.293C340.379 284.425 340.601 284.62 340.769 284.878C340.967 284.626 341.216 284.431 341.516 284.293C341.822 284.155 342.155 284.086 342.515 284.086ZM348.615 284.086C349.065 284.086 349.473 284.191 349.839 284.401C350.211 284.605 350.502 284.896 350.712 285.274C350.922 285.646 351.027 286.081 351.027 286.579C351.027 287.077 350.922 287.515 350.712 287.893C350.502 288.265 350.211 288.556 349.839 288.766C349.473 288.97 349.065 289.072 348.615 289.072C347.997 289.072 347.511 288.877 347.157 288.487V290.746H345.753V284.158H347.094V284.716C347.442 284.296 347.949 284.086 348.615 284.086ZM348.372 287.92C348.732 287.92 349.026 287.8 349.254 287.56C349.488 287.314 349.605 286.987 349.605 286.579C349.605 286.171 349.488 285.847 349.254 285.607C349.026 285.361 348.732 285.238 348.372 285.238C348.012 285.238 347.715 285.361 347.481 285.607C347.253 285.847 347.139 286.171 347.139 286.579C347.139 286.987 347.253 287.314 347.481 287.56C347.715 287.8 348.012 287.92 348.372 287.92ZM354.411 285.265C354.963 285.355 355.386 285.562 355.68 285.886C355.974 286.204 356.121 286.6 356.121 287.074C356.121 287.44 356.025 287.779 355.833 288.091C355.641 288.397 355.347 288.643 354.951 288.829C354.561 289.015 354.081 289.108 353.511 289.108C353.067 289.108 352.629 289.051 352.197 288.937C351.771 288.817 351.408 288.649 351.108 288.433L351.675 287.317C351.915 287.497 352.191 287.638 352.503 287.74C352.821 287.836 353.145 287.884 353.475 287.884C353.841 287.884 354.129 287.815 354.339 287.677C354.549 287.533 354.654 287.332 354.654 287.074C354.654 286.558 354.261 286.3 353.475 286.3H352.809V285.337L354.105 283.87H351.423V282.7H355.833V283.645L354.411 285.265Z" fill="white"/>
<defs>
<clipPath id="clip0">
<rect width="13" height="13" fill="white" transform="translate(336 39)"/>
</clipPath>
</defs>
</svg>
