<svg width="400" height="400" viewBox="0 0 400 400" fill="none" xmlns="http://www.w3.org/2000/svg">
<rect width="400" height="400" fill="#36393F"/>
<rect x="15" y="15" width="370" height="370" rx="35" fill="#2F3136"/>
<rect x="308" y="34" width="49" height="25" rx="12.5" fill="#43B581"/>
<ellipse cx="341.688" cy="45.8421" rx="10.7188" ry="9.21053" fill="white"/>
<g clip-path="url(#clip0)">
<path d="M342.849 51.9996C345.336 52.0258 347.608 50.5927 348.655 48.337C347.996 48.6247 347.282 48.7656 346.563 48.7499C343.744 48.7468 341.459 46.4623 341.456 43.6433C341.484 41.7365 342.536 39.9923 344.21 39.0778C343.759 39.0203 343.304 38.9946 342.849 39.0009C339.259 39.0009 336.349 41.9108 336.349 45.5003C336.349 49.0898 339.259 51.9996 342.849 51.9996Z" fill="#FFE605"/>
</g>
<path d="M156.138 91.312C154.699 91.312 153.304 91.1213 151.952 90.74C150.617 90.3413 149.543 89.83 148.728 89.206L150.158 86.034C150.938 86.606 151.865 87.0653 152.94 87.412C154.015 87.7587 155.089 87.932 156.164 87.932C157.36 87.932 158.244 87.7587 158.816 87.412C159.388 87.048 159.674 86.5713 159.674 85.982C159.674 85.5487 159.501 85.1933 159.154 84.916C158.825 84.6213 158.391 84.3873 157.854 84.214C157.334 84.0407 156.623 83.85 155.722 83.642C154.335 83.3127 153.2 82.9833 152.316 82.654C151.432 82.3247 150.669 81.796 150.028 81.068C149.404 80.34 149.092 79.3693 149.092 78.156C149.092 77.0987 149.378 76.1453 149.95 75.296C150.522 74.4293 151.38 73.7447 152.524 73.242C153.685 72.7393 155.098 72.488 156.762 72.488C157.923 72.488 159.059 72.6267 160.168 72.904C161.277 73.1813 162.248 73.58 163.08 74.1L161.78 77.298C160.099 76.3447 158.417 75.868 156.736 75.868C155.557 75.868 154.682 76.0587 154.11 76.44C153.555 76.8213 153.278 77.324 153.278 77.948C153.278 78.572 153.599 79.04 154.24 79.352C154.899 79.6467 155.895 79.9413 157.23 80.236C158.617 80.5653 159.752 80.8947 160.636 81.224C161.52 81.5533 162.274 82.0733 162.898 82.784C163.539 83.4947 163.86 84.4567 163.86 85.67C163.86 86.71 163.565 87.6633 162.976 88.53C162.404 89.3793 161.537 90.0553 160.376 90.558C159.215 91.0607 157.802 91.312 156.138 91.312ZM180.154 84.058C180.154 84.11 180.128 84.474 180.076 85.15H169.494C169.685 86.0167 170.135 86.7013 170.846 87.204C171.557 87.7067 172.441 87.958 173.498 87.958C174.226 87.958 174.867 87.854 175.422 87.646C175.994 87.4207 176.523 87.074 177.008 86.606L179.166 88.946C177.849 90.454 175.925 91.208 173.394 91.208C171.817 91.208 170.421 90.9047 169.208 90.298C167.995 89.674 167.059 88.816 166.4 87.724C165.741 86.632 165.412 85.3927 165.412 84.006C165.412 82.6367 165.733 81.406 166.374 80.314C167.033 79.2047 167.925 78.3467 169.052 77.74C170.196 77.116 171.47 76.804 172.874 76.804C174.243 76.804 175.483 77.0987 176.592 77.688C177.701 78.2773 178.568 79.1267 179.192 80.236C179.833 81.328 180.154 82.602 180.154 84.058ZM172.9 79.872C171.981 79.872 171.21 80.132 170.586 80.652C169.962 81.172 169.581 81.8827 169.442 82.784H176.332C176.193 81.9 175.812 81.198 175.188 80.678C174.564 80.1407 173.801 79.872 172.9 79.872ZM191.876 90.324C191.478 90.6187 190.984 90.844 190.394 91C189.822 91.1387 189.216 91.208 188.574 91.208C186.91 91.208 185.619 90.7833 184.7 89.934C183.799 89.0847 183.348 87.8367 183.348 86.19V80.444H181.19V77.324H183.348V73.918H187.404V77.324H190.888V80.444H187.404V86.138C187.404 86.7273 187.552 87.1867 187.846 87.516C188.158 87.828 188.592 87.984 189.146 87.984C189.788 87.984 190.334 87.8107 190.784 87.464L191.876 90.324ZM202.871 90.324C202.472 90.6187 201.978 90.844 201.389 91C200.817 91.1387 200.21 91.208 199.569 91.208C197.905 91.208 196.613 90.7833 195.695 89.934C194.793 89.0847 194.343 87.8367 194.343 86.19V80.444H192.185V77.324H194.343V73.918H198.399V77.324H201.883V80.444H198.399V86.138C198.399 86.7273 198.546 87.1867 198.841 87.516C199.153 87.828 199.586 87.984 200.141 87.984C200.782 87.984 201.328 87.8107 201.779 87.464L202.871 90.324ZM205.147 77.012H209.203V91H205.147V77.012ZM207.175 75.062C206.43 75.062 205.823 74.8453 205.355 74.412C204.887 73.9787 204.653 73.4413 204.653 72.8C204.653 72.1587 204.887 71.6213 205.355 71.188C205.823 70.7547 206.43 70.538 207.175 70.538C207.921 70.538 208.527 70.746 208.995 71.162C209.463 71.578 209.697 72.098 209.697 72.722C209.697 73.398 209.463 73.9613 208.995 74.412C208.527 74.8453 207.921 75.062 207.175 75.062ZM221.47 76.804C223.203 76.804 224.598 77.324 225.656 78.364C226.73 79.404 227.268 80.9467 227.268 82.992V91H223.212V83.616C223.212 82.5067 222.969 81.6833 222.484 81.146C221.998 80.5913 221.296 80.314 220.378 80.314C219.355 80.314 218.54 80.6347 217.934 81.276C217.327 81.9 217.024 82.836 217.024 84.084V91H212.968V77.012H216.842V78.65C217.379 78.0607 218.046 77.61 218.844 77.298C219.641 76.9687 220.516 76.804 221.47 76.804ZM245.527 77.012V88.66C245.527 91.2253 244.859 93.132 243.525 94.38C242.19 95.628 240.24 96.252 237.675 96.252C236.323 96.252 235.04 96.0873 233.827 95.758C232.613 95.4287 231.608 94.952 230.811 94.328L232.423 91.416C233.012 91.9013 233.757 92.2827 234.659 92.56C235.56 92.8547 236.461 93.002 237.363 93.002C238.767 93.002 239.798 92.6813 240.457 92.04C241.133 91.416 241.471 90.4627 241.471 89.18V88.582C240.413 89.7433 238.94 90.324 237.051 90.324C235.768 90.324 234.589 90.0467 233.515 89.492C232.457 88.92 231.617 88.1227 230.993 87.1C230.369 86.0773 230.057 84.8987 230.057 83.564C230.057 82.2293 230.369 81.0507 230.993 80.028C231.617 79.0053 232.457 78.2167 233.515 77.662C234.589 77.09 235.768 76.804 237.051 76.804C239.079 76.804 240.621 77.4713 241.679 78.806V77.012H245.527ZM237.857 86.996C238.931 86.996 239.807 86.684 240.483 86.06C241.176 85.4187 241.523 84.5867 241.523 83.564C241.523 82.5413 241.176 81.718 240.483 81.094C239.807 80.4527 238.931 80.132 237.857 80.132C236.782 80.132 235.898 80.4527 235.205 81.094C234.511 81.718 234.165 82.5413 234.165 83.564C234.165 84.5867 234.511 85.4187 235.205 86.06C235.898 86.684 236.782 86.996 237.857 86.996ZM254.008 91.208C252.846 91.208 251.711 91.0693 250.602 90.792C249.492 90.4973 248.608 90.1333 247.95 89.7L249.302 86.788C249.926 87.1867 250.68 87.516 251.564 87.776C252.448 88.0187 253.314 88.14 254.164 88.14C255.88 88.14 256.738 87.7153 256.738 86.866C256.738 86.4673 256.504 86.1813 256.036 86.008C255.568 85.8347 254.848 85.6873 253.878 85.566C252.734 85.3927 251.789 85.1933 251.044 84.968C250.298 84.7427 249.648 84.344 249.094 83.772C248.556 83.2 248.288 82.3853 248.288 81.328C248.288 80.444 248.539 79.664 249.042 78.988C249.562 78.2947 250.307 77.7573 251.278 77.376C252.266 76.9947 253.427 76.804 254.762 76.804C255.75 76.804 256.729 76.9167 257.7 77.142C258.688 77.35 259.502 77.6447 260.144 78.026L258.792 80.912C257.561 80.2187 256.218 79.872 254.762 79.872C253.895 79.872 253.245 79.9933 252.812 80.236C252.378 80.4787 252.162 80.7907 252.162 81.172C252.162 81.6053 252.396 81.9087 252.864 82.082C253.332 82.2553 254.077 82.42 255.1 82.576C256.244 82.7667 257.18 82.9747 257.908 83.2C258.636 83.408 259.268 83.798 259.806 84.37C260.343 84.942 260.612 85.7393 260.612 86.762C260.612 87.6287 260.352 88.4 259.832 89.076C259.312 89.752 258.549 90.2807 257.544 90.662C256.556 91.026 255.377 91.208 254.008 91.208Z" fill="white"/>
<line x1="36" y1="157.5" x2="372" y2="157.5" stroke="#717171"/>
<line x1="36" y1="198.818" x2="372" y2="198.818" stroke="#717171"/>
<line x1="36" y1="240.136" x2="372" y2="241.284" stroke="#717171"/>
<line x1="36" y1="282.602" x2="372" y2="283.75" stroke="#717171"/>
<line x1="36" y1="325.068" x2="372" y2="326.216" stroke="#717171"/>
<path d="M53.573 149.252C52.411 149.252 51.284 149.098 50.192 148.79C49.114 148.468 48.246 148.055 47.588 147.551L48.743 144.989C49.373 145.451 50.122 145.822 50.99 146.102C51.858 146.382 52.726 146.522 53.594 146.522C54.56 146.522 55.274 146.382 55.736 146.102C56.198 145.808 56.429 145.423 56.429 144.947C56.429 144.597 56.289 144.31 56.009 144.086C55.743 143.848 55.393 143.659 54.959 143.519C54.539 143.379 53.965 143.225 53.237 143.057C52.117 142.791 51.2 142.525 50.486 142.259C49.772 141.993 49.156 141.566 48.638 140.978C48.134 140.39 47.882 139.606 47.882 138.626C47.882 137.772 48.113 137.002 48.575 136.316C49.037 135.616 49.73 135.063 50.654 134.657C51.592 134.251 52.733 134.048 54.077 134.048C55.015 134.048 55.932 134.16 56.828 134.384C57.724 134.608 58.508 134.93 59.18 135.35L58.13 137.933C56.772 137.163 55.414 136.778 54.056 136.778C53.104 136.778 52.397 136.932 51.935 137.24C51.487 137.548 51.263 137.954 51.263 138.458C51.263 138.962 51.522 139.34 52.04 139.592C52.572 139.83 53.377 140.068 54.455 140.306C55.575 140.572 56.492 140.838 57.206 141.104C57.92 141.37 58.529 141.79 59.033 142.364C59.551 142.938 59.81 143.715 59.81 144.695C59.81 145.535 59.572 146.305 59.096 147.005C58.634 147.691 57.934 148.237 56.996 148.643C56.058 149.049 54.917 149.252 53.573 149.252ZM72.9706 143.393C72.9706 143.435 72.9496 143.729 72.9076 144.275H64.3606C64.5146 144.975 64.8786 145.528 65.4526 145.934C66.0266 146.34 66.7406 146.543 67.5946 146.543C68.1826 146.543 68.7006 146.459 69.1486 146.291C69.6106 146.109 70.0376 145.829 70.4296 145.451L72.1726 147.341C71.1086 148.559 69.5546 149.168 67.5106 149.168C66.2366 149.168 65.1096 148.923 64.1296 148.433C63.1496 147.929 62.3936 147.236 61.8616 146.354C61.3296 145.472 61.0636 144.471 61.0636 143.351C61.0636 142.245 61.3226 141.251 61.8406 140.369C62.3726 139.473 63.0936 138.78 64.0036 138.29C64.9276 137.786 65.9566 137.534 67.0906 137.534C68.1966 137.534 69.1976 137.772 70.0936 138.248C70.9896 138.724 71.6896 139.41 72.1936 140.306C72.7116 141.188 72.9706 142.217 72.9706 143.393ZM67.1116 140.012C66.3696 140.012 65.7466 140.222 65.2426 140.642C64.7386 141.062 64.4306 141.636 64.3186 142.364H69.8836C69.7716 141.65 69.4636 141.083 68.9596 140.663C68.4556 140.229 67.8396 140.012 67.1116 140.012ZM82.4386 148.454C82.1166 148.692 81.7176 148.874 81.2416 149C80.7796 149.112 80.2896 149.168 79.7716 149.168C78.4276 149.168 77.3846 148.825 76.6426 148.139C75.9146 147.453 75.5506 146.445 75.5506 145.115V140.474H73.8076V137.954H75.5506V135.203H78.8266V137.954H81.6406V140.474H78.8266V145.073C78.8266 145.549 78.9456 145.92 79.1836 146.186C79.4356 146.438 79.7856 146.564 80.2336 146.564C80.7516 146.564 81.1926 146.424 81.5566 146.144L82.4386 148.454ZM91.3185 148.454C90.9965 148.692 90.5975 148.874 90.1215 149C89.6595 149.112 89.1695 149.168 88.6515 149.168C87.3075 149.168 86.2645 148.825 85.5225 148.139C84.7945 147.453 84.4305 146.445 84.4305 145.115V140.474H82.6875V137.954H84.4305V135.203H87.7065V137.954H90.5205V140.474H87.7065V145.073C87.7065 145.549 87.8255 145.92 88.0635 146.186C88.3155 146.438 88.6655 146.564 89.1135 146.564C89.6315 146.564 90.0725 146.424 90.4365 146.144L91.3185 148.454ZM93.1575 137.702H96.4335V149H93.1575V137.702ZM94.7955 136.127C94.1935 136.127 93.7035 135.952 93.3255 135.602C92.9475 135.252 92.7585 134.818 92.7585 134.3C92.7585 133.782 92.9475 133.348 93.3255 132.998C93.7035 132.648 94.1935 132.473 94.7955 132.473C95.3975 132.473 95.8875 132.641 96.2655 132.977C96.6435 133.313 96.8325 133.733 96.8325 134.237C96.8325 134.783 96.6435 135.238 96.2655 135.602C95.8875 135.952 95.3975 136.127 94.7955 136.127ZM106.341 137.534C107.741 137.534 108.868 137.954 109.722 138.794C110.59 139.634 111.024 140.88 111.024 142.532V149H107.748V143.036C107.748 142.14 107.552 141.475 107.16 141.041C106.768 140.593 106.201 140.369 105.459 140.369C104.633 140.369 103.975 140.628 103.485 141.146C102.995 141.65 102.75 142.406 102.75 143.414V149H99.4739V137.702H102.603V139.025C103.037 138.549 103.576 138.185 104.22 137.933C104.864 137.667 105.571 137.534 106.341 137.534ZM125.771 137.702V147.11C125.771 149.182 125.232 150.722 124.154 151.73C123.076 152.738 121.501 153.242 119.429 153.242C118.337 153.242 117.301 153.109 116.321 152.843C115.341 152.577 114.529 152.192 113.885 151.688L115.187 149.336C115.663 149.728 116.265 150.036 116.993 150.26C117.721 150.498 118.449 150.617 119.177 150.617C120.311 150.617 121.144 150.358 121.676 149.84C122.222 149.336 122.495 148.566 122.495 147.53V147.047C121.641 147.985 120.451 148.454 118.925 148.454C117.889 148.454 116.937 148.23 116.069 147.782C115.215 147.32 114.536 146.676 114.032 145.85C113.528 145.024 113.276 144.072 113.276 142.994C113.276 141.916 113.528 140.964 114.032 140.138C114.536 139.312 115.215 138.675 116.069 138.227C116.937 137.765 117.889 137.534 118.925 137.534C120.563 137.534 121.809 138.073 122.663 139.151V137.702H125.771ZM119.576 145.766C120.444 145.766 121.151 145.514 121.697 145.01C122.257 144.492 122.537 143.82 122.537 142.994C122.537 142.168 122.257 141.503 121.697 140.999C121.151 140.481 120.444 140.222 119.576 140.222C118.708 140.222 117.994 140.481 117.434 140.999C116.874 141.503 116.594 142.168 116.594 142.994C116.594 143.82 116.874 144.492 117.434 145.01C117.994 145.514 118.708 145.766 119.576 145.766ZM132.622 149.168C131.684 149.168 130.767 149.056 129.871 148.832C128.975 148.594 128.261 148.3 127.729 147.95L128.821 145.598C129.325 145.92 129.934 146.186 130.648 146.396C131.362 146.592 132.062 146.69 132.748 146.69C134.134 146.69 134.827 146.347 134.827 145.661C134.827 145.339 134.638 145.108 134.26 144.968C133.882 144.828 133.301 144.709 132.517 144.611C131.593 144.471 130.83 144.31 130.228 144.128C129.626 143.946 129.101 143.624 128.653 143.162C128.219 142.7 128.002 142.042 128.002 141.188C128.002 140.474 128.205 139.844 128.611 139.298C129.031 138.738 129.633 138.304 130.417 137.996C131.215 137.688 132.153 137.534 133.231 137.534C134.029 137.534 134.82 137.625 135.604 137.807C136.402 137.975 137.06 138.213 137.578 138.521L136.486 140.852C135.492 140.292 134.407 140.012 133.231 140.012C132.531 140.012 132.006 140.11 131.656 140.306C131.306 140.502 131.131 140.754 131.131 141.062C131.131 141.412 131.32 141.657 131.698 141.797C132.076 141.937 132.678 142.07 133.504 142.196C134.428 142.35 135.184 142.518 135.772 142.7C136.36 142.868 136.871 143.183 137.305 143.645C137.739 144.107 137.956 144.751 137.956 145.577C137.956 146.277 137.746 146.9 137.326 147.446C136.906 147.992 136.29 148.419 135.478 148.727C134.68 149.021 133.728 149.168 132.622 149.168ZM159.637 134.3V149H156.235V142.973H149.557V149H146.155V134.3H149.557V140.096H156.235V134.3H159.637ZM168.26 149.168C167.07 149.168 165.999 148.923 165.047 148.433C164.109 147.929 163.374 147.236 162.842 146.354C162.31 145.472 162.044 144.471 162.044 143.351C162.044 142.231 162.31 141.23 162.842 140.348C163.374 139.466 164.109 138.78 165.047 138.29C165.999 137.786 167.07 137.534 168.26 137.534C169.45 137.534 170.514 137.786 171.452 138.29C172.39 138.78 173.125 139.466 173.657 140.348C174.189 141.23 174.455 142.231 174.455 143.351C174.455 144.471 174.189 145.472 173.657 146.354C173.125 147.236 172.39 147.929 171.452 148.433C170.514 148.923 169.45 149.168 168.26 149.168ZM168.26 146.48C169.1 146.48 169.786 146.2 170.318 145.64C170.864 145.066 171.137 144.303 171.137 143.351C171.137 142.399 170.864 141.643 170.318 141.083C169.786 140.509 169.1 140.222 168.26 140.222C167.42 140.222 166.727 140.509 166.181 141.083C165.635 141.643 165.362 142.399 165.362 143.351C165.362 144.303 165.635 145.066 166.181 145.64C166.727 146.2 167.42 146.48 168.26 146.48ZM183.932 148.454C183.61 148.692 183.211 148.874 182.735 149C182.273 149.112 181.783 149.168 181.265 149.168C179.921 149.168 178.878 148.825 178.136 148.139C177.408 147.453 177.044 146.445 177.044 145.115V140.474H175.301V137.954H177.044V135.203H180.32V137.954H183.134V140.474H180.32V145.073C180.32 145.549 180.439 145.92 180.677 146.186C180.929 146.438 181.279 146.564 181.727 146.564C182.245 146.564 182.686 146.424 183.05 146.144L183.932 148.454ZM191.357 143.225L189.383 145.283V149H186.002V134.3H189.383V141.167L195.893 134.3H199.673L193.583 140.852L200.03 149H196.061L191.357 143.225ZM211.911 143.393C211.911 143.435 211.89 143.729 211.848 144.275H203.301C203.455 144.975 203.819 145.528 204.393 145.934C204.967 146.34 205.681 146.543 206.535 146.543C207.123 146.543 207.641 146.459 208.089 146.291C208.551 146.109 208.978 145.829 209.37 145.451L211.113 147.341C210.049 148.559 208.495 149.168 206.451 149.168C205.177 149.168 204.05 148.923 203.07 148.433C202.09 147.929 201.334 147.236 200.802 146.354C200.27 145.472 200.004 144.471 200.004 143.351C200.004 142.245 200.263 141.251 200.781 140.369C201.313 139.473 202.034 138.78 202.944 138.29C203.868 137.786 204.897 137.534 206.031 137.534C207.137 137.534 208.138 137.772 209.034 138.248C209.93 138.724 210.63 139.41 211.134 140.306C211.652 141.188 211.911 142.217 211.911 143.393ZM206.052 140.012C205.31 140.012 204.687 140.222 204.183 140.642C203.679 141.062 203.371 141.636 203.259 142.364H208.824C208.712 141.65 208.404 141.083 207.9 140.663C207.396 140.229 206.78 140.012 206.052 140.012ZM225.101 137.702L219.998 149.693C219.48 150.995 218.836 151.912 218.066 152.444C217.31 152.976 216.393 153.242 215.315 153.242C214.727 153.242 214.146 153.151 213.572 152.969C212.998 152.787 212.529 152.535 212.165 152.213L213.362 149.882C213.614 150.106 213.901 150.281 214.223 150.407C214.559 150.533 214.888 150.596 215.21 150.596C215.658 150.596 216.022 150.484 216.302 150.26C216.582 150.05 216.834 149.693 217.058 149.189L217.1 149.084L212.207 137.702H215.588L218.759 145.367L221.951 137.702H225.101Z" fill="white"/>
<path d="M48.743 171.3H52.145V186H48.743V171.3ZM62.2696 174.534C63.6696 174.534 64.7966 174.954 65.6506 175.794C66.5186 176.634 66.9526 177.88 66.9526 179.532V186H63.6766V180.036C63.6766 179.14 63.4806 178.475 63.0886 178.041C62.6966 177.593 62.1296 177.369 61.3876 177.369C60.5616 177.369 59.9036 177.628 59.4136 178.146C58.9236 178.65 58.6786 179.406 58.6786 180.414V186H55.4026V174.702H58.5316V176.025C58.9656 175.549 59.5046 175.185 60.1486 174.933C60.7926 174.667 61.4996 174.534 62.2696 174.534ZM76.6002 174.534C77.6502 174.534 78.6022 174.779 79.4562 175.269C80.3242 175.745 81.0032 176.424 81.4932 177.306C81.9832 178.174 82.2282 179.189 82.2282 180.351C82.2282 181.513 81.9832 182.535 81.4932 183.417C81.0032 184.285 80.3242 184.964 79.4562 185.454C78.6022 185.93 77.6502 186.168 76.6002 186.168C75.1582 186.168 74.0242 185.713 73.1982 184.803V190.074H69.9222V174.702H73.0512V176.004C73.8632 175.024 75.0462 174.534 76.6002 174.534ZM76.0332 183.48C76.8732 183.48 77.5592 183.2 78.0912 182.64C78.6372 182.066 78.9102 181.303 78.9102 180.351C78.9102 179.399 78.6372 178.643 78.0912 178.083C77.5592 177.509 76.8732 177.222 76.0332 177.222C75.1932 177.222 74.5002 177.509 73.9542 178.083C73.4222 178.643 73.1562 179.399 73.1562 180.351C73.1562 181.303 73.4222 182.066 73.9542 182.64C74.5002 183.2 75.1932 183.48 76.0332 183.48ZM95.8032 174.702V186H92.6952V184.656C92.2612 185.146 91.7432 185.524 91.1412 185.79C90.5392 186.042 89.8882 186.168 89.1882 186.168C87.7042 186.168 86.5282 185.741 85.6602 184.887C84.7922 184.033 84.3582 182.766 84.3582 181.086V174.702H87.6342V180.603C87.6342 182.423 88.3972 183.333 89.9232 183.333C90.7072 183.333 91.3372 183.081 91.8132 182.577C92.2892 182.059 92.5272 181.296 92.5272 180.288V174.702H95.8032ZM106.125 185.454C105.803 185.692 105.404 185.874 104.928 186C104.466 186.112 103.976 186.168 103.458 186.168C102.114 186.168 101.071 185.825 100.329 185.139C99.6012 184.453 99.2372 183.445 99.2372 182.115V177.474H97.4942V174.954H99.2372V172.203H102.513V174.954H105.327V177.474H102.513V182.073C102.513 182.549 102.632 182.92 102.87 183.186C103.122 183.438 103.472 183.564 103.92 183.564C104.438 183.564 104.879 183.424 105.243 183.144L106.125 185.454ZM128.275 171.3L121.912 186H118.552L112.21 171.3H115.885L120.358 181.8L124.894 171.3H128.275ZM129.477 174.702H132.753V186H129.477V174.702ZM131.115 173.127C130.513 173.127 130.023 172.952 129.645 172.602C129.267 172.252 129.078 171.818 129.078 171.3C129.078 170.782 129.267 170.348 129.645 169.998C130.023 169.648 130.513 169.473 131.115 169.473C131.717 169.473 132.207 169.641 132.585 169.977C132.963 170.313 133.152 170.733 133.152 171.237C133.152 171.783 132.963 172.238 132.585 172.602C132.207 172.952 131.717 173.127 131.115 173.127ZM140.35 174.534C142.1 174.534 143.444 174.954 144.382 175.794C145.32 176.62 145.789 177.873 145.789 179.553V186H142.723V184.593C142.107 185.643 140.959 186.168 139.279 186.168C138.411 186.168 137.655 186.021 137.011 185.727C136.381 185.433 135.898 185.027 135.562 184.509C135.226 183.991 135.058 183.403 135.058 182.745C135.058 181.695 135.45 180.869 136.234 180.267C137.032 179.665 138.257 179.364 139.909 179.364H142.513C142.513 178.65 142.296 178.104 141.862 177.726C141.428 177.334 140.777 177.138 139.909 177.138C139.307 177.138 138.712 177.236 138.124 177.432C137.55 177.614 137.06 177.866 136.654 178.188L135.478 175.899C136.094 175.465 136.829 175.129 137.683 174.891C138.551 174.653 139.44 174.534 140.35 174.534ZM140.098 183.963C140.658 183.963 141.155 183.837 141.589 183.585C142.023 183.319 142.331 182.934 142.513 182.43V181.275H140.266C138.922 181.275 138.25 181.716 138.25 182.598C138.25 183.018 138.411 183.354 138.733 183.606C139.069 183.844 139.524 183.963 140.098 183.963Z" fill="white"/>
<path d="M343 176L349 181L355 176" stroke="white" stroke-linecap="round"/>
<path d="M54.098 221.225L52.124 223.283V227H48.743V212.3H52.124V219.167L58.634 212.3H62.414L56.324 218.852L62.771 227H58.802L54.098 221.225ZM74.6522 221.393C74.6522 221.435 74.6312 221.729 74.5892 222.275H66.0422C66.1962 222.975 66.5602 223.528 67.1342 223.934C67.7082 224.34 68.4222 224.543 69.2762 224.543C69.8642 224.543 70.3822 224.459 70.8302 224.291C71.2922 224.109 71.7192 223.829 72.1112 223.451L73.8542 225.341C72.7902 226.559 71.2362 227.168 69.1922 227.168C67.9182 227.168 66.7912 226.923 65.8112 226.433C64.8312 225.929 64.0752 225.236 63.5432 224.354C63.0112 223.472 62.7452 222.471 62.7452 221.351C62.7452 220.245 63.0042 219.251 63.5222 218.369C64.0542 217.473 64.7752 216.78 65.6852 216.29C66.6092 215.786 67.6382 215.534 68.7722 215.534C69.8782 215.534 70.8792 215.772 71.7752 216.248C72.6712 216.724 73.3712 217.41 73.8752 218.306C74.3932 219.188 74.6522 220.217 74.6522 221.393ZM68.7932 218.012C68.0512 218.012 67.4282 218.222 66.9242 218.642C66.4202 219.062 66.1122 219.636 66.0002 220.364H71.5652C71.4532 219.65 71.1452 219.083 70.6412 218.663C70.1372 218.229 69.5212 218.012 68.7932 218.012ZM87.8422 215.702L82.7392 227.693C82.2212 228.995 81.5772 229.912 80.8072 230.444C80.0512 230.976 79.1342 231.242 78.0562 231.242C77.4682 231.242 76.8872 231.151 76.3132 230.969C75.7392 230.787 75.2702 230.535 74.9062 230.213L76.1032 227.882C76.3552 228.106 76.6422 228.281 76.9642 228.407C77.3002 228.533 77.6292 228.596 77.9512 228.596C78.3992 228.596 78.7632 228.484 79.0432 228.26C79.3232 228.05 79.5752 227.693 79.7992 227.189L79.8412 227.084L74.9482 215.702H78.3292L81.5002 223.367L84.6922 215.702H87.8422ZM95.857 215.534C96.907 215.534 97.859 215.779 98.713 216.269C99.581 216.745 100.26 217.424 100.75 218.306C101.24 219.174 101.485 220.189 101.485 221.351C101.485 222.513 101.24 223.535 100.75 224.417C100.26 225.285 99.581 225.964 98.713 226.454C97.859 226.93 96.907 227.168 95.857 227.168C94.303 227.168 93.12 226.678 92.308 225.698V227H89.179V211.418H92.455V216.899C93.281 215.989 94.415 215.534 95.857 215.534ZM95.29 224.48C96.13 224.48 96.816 224.2 97.348 223.64C97.894 223.066 98.167 222.303 98.167 221.351C98.167 220.399 97.894 219.643 97.348 219.083C96.816 218.509 96.13 218.222 95.29 218.222C94.45 218.222 93.757 218.509 93.211 219.083C92.679 219.643 92.413 220.399 92.413 221.351C92.413 222.303 92.679 223.066 93.211 223.64C93.757 224.2 94.45 224.48 95.29 224.48ZM109.054 227.168C107.864 227.168 106.793 226.923 105.841 226.433C104.903 225.929 104.168 225.236 103.636 224.354C103.104 223.472 102.838 222.471 102.838 221.351C102.838 220.231 103.104 219.23 103.636 218.348C104.168 217.466 104.903 216.78 105.841 216.29C106.793 215.786 107.864 215.534 109.054 215.534C110.244 215.534 111.308 215.786 112.246 216.29C113.184 216.78 113.919 217.466 114.451 218.348C114.983 219.23 115.249 220.231 115.249 221.351C115.249 222.471 114.983 223.472 114.451 224.354C113.919 225.236 113.184 225.929 112.246 226.433C111.308 226.923 110.244 227.168 109.054 227.168ZM109.054 224.48C109.894 224.48 110.58 224.2 111.112 223.64C111.658 223.066 111.931 222.303 111.931 221.351C111.931 220.399 111.658 219.643 111.112 219.083C110.58 218.509 109.894 218.222 109.054 218.222C108.214 218.222 107.521 218.509 106.975 219.083C106.429 219.643 106.156 220.399 106.156 221.351C106.156 222.303 106.429 223.066 106.975 223.64C107.521 224.2 108.214 224.48 109.054 224.48ZM121.811 215.534C123.561 215.534 124.905 215.954 125.843 216.794C126.781 217.62 127.25 218.873 127.25 220.553V227H124.184V225.593C123.568 226.643 122.42 227.168 120.74 227.168C119.872 227.168 119.116 227.021 118.472 226.727C117.842 226.433 117.359 226.027 117.023 225.509C116.687 224.991 116.519 224.403 116.519 223.745C116.519 222.695 116.911 221.869 117.695 221.267C118.493 220.665 119.718 220.364 121.37 220.364H123.974C123.974 219.65 123.757 219.104 123.323 218.726C122.889 218.334 122.238 218.138 121.37 218.138C120.768 218.138 120.173 218.236 119.585 218.432C119.011 218.614 118.521 218.866 118.115 219.188L116.939 216.899C117.555 216.465 118.29 216.129 119.144 215.891C120.012 215.653 120.901 215.534 121.811 215.534ZM121.559 224.963C122.119 224.963 122.616 224.837 123.05 224.585C123.484 224.319 123.792 223.934 123.974 223.43V222.275H121.727C120.383 222.275 119.711 222.716 119.711 223.598C119.711 224.018 119.872 224.354 120.194 224.606C120.53 224.844 120.985 224.963 121.559 224.963ZM133.344 217.193C133.736 216.647 134.261 216.234 134.919 215.954C135.591 215.674 136.361 215.534 137.229 215.534V218.558C136.865 218.53 136.62 218.516 136.494 218.516C135.556 218.516 134.821 218.782 134.289 219.314C133.757 219.832 133.491 220.616 133.491 221.666V227H130.215V215.702H133.344V217.193ZM150.583 211.418V227H147.454V225.698C146.642 226.678 145.466 227.168 143.926 227.168C142.862 227.168 141.896 226.93 141.028 226.454C140.174 225.978 139.502 225.299 139.012 224.417C138.522 223.535 138.277 222.513 138.277 221.351C138.277 220.189 138.522 219.167 139.012 218.285C139.502 217.403 140.174 216.724 141.028 216.248C141.896 215.772 142.862 215.534 143.926 215.534C145.368 215.534 146.495 215.989 147.307 216.899V211.418H150.583ZM144.493 224.48C145.319 224.48 146.005 224.2 146.551 223.64C147.097 223.066 147.37 222.303 147.37 221.351C147.37 220.399 147.097 219.643 146.551 219.083C146.005 218.509 145.319 218.222 144.493 218.222C143.653 218.222 142.96 218.509 142.414 219.083C141.868 219.643 141.595 220.399 141.595 221.351C141.595 222.303 141.868 223.066 142.414 223.64C142.96 224.2 143.653 224.48 144.493 224.48ZM173.275 212.3V227H169.873V220.973H163.195V227H159.793V212.3H163.195V218.096H169.873V212.3H173.275ZM181.898 227.168C180.708 227.168 179.637 226.923 178.685 226.433C177.747 225.929 177.012 225.236 176.48 224.354C175.948 223.472 175.682 222.471 175.682 221.351C175.682 220.231 175.948 219.23 176.48 218.348C177.012 217.466 177.747 216.78 178.685 216.29C179.637 215.786 180.708 215.534 181.898 215.534C183.088 215.534 184.152 215.786 185.09 216.29C186.028 216.78 186.763 217.466 187.295 218.348C187.827 219.23 188.093 220.231 188.093 221.351C188.093 222.471 187.827 223.472 187.295 224.354C186.763 225.236 186.028 225.929 185.09 226.433C184.152 226.923 183.088 227.168 181.898 227.168ZM181.898 224.48C182.738 224.48 183.424 224.2 183.956 223.64C184.502 223.066 184.775 222.303 184.775 221.351C184.775 220.399 184.502 219.643 183.956 219.083C183.424 218.509 182.738 218.222 181.898 218.222C181.058 218.222 180.365 218.509 179.819 219.083C179.273 219.643 179 220.399 179 221.351C179 222.303 179.273 223.066 179.819 223.64C180.365 224.2 181.058 224.48 181.898 224.48ZM197.57 226.454C197.248 226.692 196.849 226.874 196.373 227C195.911 227.112 195.421 227.168 194.903 227.168C193.559 227.168 192.516 226.825 191.774 226.139C191.046 225.453 190.682 224.445 190.682 223.115V218.474H188.939V215.954H190.682V213.203H193.958V215.954H196.772V218.474H193.958V223.073C193.958 223.549 194.077 223.92 194.315 224.186C194.567 224.438 194.917 224.564 195.365 224.564C195.883 224.564 196.324 224.424 196.688 224.144L197.57 226.454ZM204.259 222.569L202.684 224.123V227H199.408V211.418H202.684V220.238L207.472 215.702H211.378L206.674 220.49L211.798 227H207.829L204.259 222.569ZM223.847 221.393C223.847 221.435 223.826 221.729 223.784 222.275H215.237C215.391 222.975 215.755 223.528 216.329 223.934C216.903 224.34 217.617 224.543 218.471 224.543C219.059 224.543 219.577 224.459 220.025 224.291C220.487 224.109 220.914 223.829 221.306 223.451L223.049 225.341C221.985 226.559 220.431 227.168 218.387 227.168C217.113 227.168 215.986 226.923 215.006 226.433C214.026 225.929 213.27 225.236 212.738 224.354C212.206 223.472 211.94 222.471 211.94 221.351C211.94 220.245 212.199 219.251 212.717 218.369C213.249 217.473 213.97 216.78 214.88 216.29C215.804 215.786 216.833 215.534 217.967 215.534C219.073 215.534 220.074 215.772 220.97 216.248C221.866 216.724 222.566 217.41 223.07 218.306C223.588 219.188 223.847 220.217 223.847 221.393ZM217.988 218.012C217.246 218.012 216.623 218.222 216.119 218.642C215.615 219.062 215.307 219.636 215.195 220.364H220.76C220.648 219.65 220.34 219.083 219.836 218.663C219.332 218.229 218.716 218.012 217.988 218.012ZM237.037 215.702L231.934 227.693C231.416 228.995 230.772 229.912 230.002 230.444C229.246 230.976 228.329 231.242 227.251 231.242C226.663 231.242 226.082 231.151 225.508 230.969C224.934 230.787 224.465 230.535 224.101 230.213L225.298 227.882C225.55 228.106 225.837 228.281 226.159 228.407C226.495 228.533 226.824 228.596 227.146 228.596C227.594 228.596 227.958 228.484 228.238 228.26C228.518 228.05 228.77 227.693 228.994 227.189L229.036 227.084L224.143 215.702H227.524L230.695 223.367L233.887 215.702H237.037Z" fill="white"/>
<path d="M58.109 267L55.274 262.905H55.106H52.145V267H48.743V252.3H55.106C56.408 252.3 57.535 252.517 58.487 252.951C59.453 253.385 60.195 254.001 60.713 254.799C61.231 255.597 61.49 256.542 61.49 257.634C61.49 258.726 61.224 259.671 60.692 260.469C60.174 261.253 59.432 261.855 58.466 262.275L61.763 267H58.109ZM58.046 257.634C58.046 256.808 57.78 256.178 57.248 255.744C56.716 255.296 55.939 255.072 54.917 255.072H52.145V260.196H54.917C55.939 260.196 56.716 259.972 57.248 259.524C57.78 259.076 58.046 258.446 58.046 257.634ZM75.0214 261.393C75.0214 261.435 75.0004 261.729 74.9584 262.275H66.4114C66.5654 262.975 66.9294 263.528 67.5034 263.934C68.0774 264.34 68.7914 264.543 69.6454 264.543C70.2334 264.543 70.7514 264.459 71.1994 264.291C71.6614 264.109 72.0884 263.829 72.4804 263.451L74.2234 265.341C73.1594 266.559 71.6054 267.168 69.5614 267.168C68.2874 267.168 67.1604 266.923 66.1804 266.433C65.2004 265.929 64.4444 265.236 63.9124 264.354C63.3804 263.472 63.1144 262.471 63.1144 261.351C63.1144 260.245 63.3734 259.251 63.8914 258.369C64.4234 257.473 65.1444 256.78 66.0544 256.29C66.9784 255.786 68.0074 255.534 69.1414 255.534C70.2474 255.534 71.2484 255.772 72.1444 256.248C73.0404 256.724 73.7404 257.41 74.2444 258.306C74.7624 259.188 75.0214 260.217 75.0214 261.393ZM69.1624 258.012C68.4204 258.012 67.7974 258.222 67.2934 258.642C66.7894 259.062 66.4814 259.636 66.3694 260.364H71.9344C71.8224 259.65 71.5144 259.083 71.0104 258.663C70.5064 258.229 69.8904 258.012 69.1624 258.012ZM91.6714 255.534C93.0854 255.534 94.2054 255.954 95.0314 256.794C95.8714 257.62 96.2914 258.866 96.2914 260.532V267H93.0154V261.036C93.0154 260.14 92.8264 259.475 92.4484 259.041C92.0844 258.593 91.5594 258.369 90.8734 258.369C90.1034 258.369 89.4944 258.621 89.0464 259.125C88.5984 259.615 88.3744 260.35 88.3744 261.33V267H85.0984V261.036C85.0984 259.258 84.3844 258.369 82.9564 258.369C82.2004 258.369 81.5984 258.621 81.1504 259.125C80.7024 259.615 80.4784 260.35 80.4784 261.33V267H77.2024V255.702H80.3314V257.004C80.7514 256.528 81.2624 256.164 81.8644 255.912C82.4804 255.66 83.1524 255.534 83.8804 255.534C84.6784 255.534 85.3994 255.695 86.0434 256.017C86.6874 256.325 87.2054 256.78 87.5974 257.382C88.0594 256.794 88.6404 256.339 89.3404 256.017C90.0544 255.695 90.8314 255.534 91.6714 255.534ZM99.2278 255.702H102.504V267H99.2278V255.702ZM100.866 254.127C100.264 254.127 99.7738 253.952 99.3958 253.602C99.0178 253.252 98.8288 252.818 98.8288 252.3C98.8288 251.782 99.0178 251.348 99.3958 250.998C99.7738 250.648 100.264 250.473 100.866 250.473C101.468 250.473 101.958 250.641 102.336 250.977C102.714 251.313 102.903 251.733 102.903 252.237C102.903 252.783 102.714 253.238 102.336 253.602C101.958 253.952 101.468 254.127 100.866 254.127ZM112.411 255.534C113.811 255.534 114.938 255.954 115.792 256.794C116.66 257.634 117.094 258.88 117.094 260.532V267H113.818V261.036C113.818 260.14 113.622 259.475 113.23 259.041C112.838 258.593 112.271 258.369 111.529 258.369C110.703 258.369 110.045 258.628 109.555 259.146C109.065 259.65 108.82 260.406 108.82 261.414V267H105.544V255.702H108.673V257.025C109.107 256.549 109.646 256.185 110.29 255.933C110.934 255.667 111.641 255.534 112.411 255.534ZM131.695 251.418V267H128.566V265.698C127.754 266.678 126.578 267.168 125.038 267.168C123.974 267.168 123.008 266.93 122.14 266.454C121.286 265.978 120.614 265.299 120.124 264.417C119.634 263.535 119.389 262.513 119.389 261.351C119.389 260.189 119.634 259.167 120.124 258.285C120.614 257.403 121.286 256.724 122.14 256.248C123.008 255.772 123.974 255.534 125.038 255.534C126.48 255.534 127.607 255.989 128.419 256.899V251.418H131.695ZM125.605 264.48C126.431 264.48 127.117 264.2 127.663 263.64C128.209 263.066 128.482 262.303 128.482 261.351C128.482 260.399 128.209 259.643 127.663 259.083C127.117 258.509 126.431 258.222 125.605 258.222C124.765 258.222 124.072 258.509 123.526 259.083C122.98 259.643 122.707 260.399 122.707 261.351C122.707 262.303 122.98 263.066 123.526 263.64C124.072 264.2 124.765 264.48 125.605 264.48ZM145.794 261.393C145.794 261.435 145.773 261.729 145.731 262.275H137.184C137.338 262.975 137.702 263.528 138.276 263.934C138.85 264.34 139.564 264.543 140.418 264.543C141.006 264.543 141.524 264.459 141.972 264.291C142.434 264.109 142.861 263.829 143.253 263.451L144.996 265.341C143.932 266.559 142.378 267.168 140.334 267.168C139.06 267.168 137.933 266.923 136.953 266.433C135.973 265.929 135.217 265.236 134.685 264.354C134.153 263.472 133.887 262.471 133.887 261.351C133.887 260.245 134.146 259.251 134.664 258.369C135.196 257.473 135.917 256.78 136.827 256.29C137.751 255.786 138.78 255.534 139.914 255.534C141.02 255.534 142.021 255.772 142.917 256.248C143.813 256.724 144.513 257.41 145.017 258.306C145.535 259.188 145.794 260.217 145.794 261.393ZM139.935 258.012C139.193 258.012 138.57 258.222 138.066 258.642C137.562 259.062 137.254 259.636 137.142 260.364H142.707C142.595 259.65 142.287 259.083 141.783 258.663C141.279 258.229 140.663 258.012 139.935 258.012ZM151.104 257.193C151.496 256.647 152.021 256.234 152.679 255.954C153.351 255.674 154.121 255.534 154.989 255.534V258.558C154.625 258.53 154.38 258.516 154.254 258.516C153.316 258.516 152.581 258.782 152.049 259.314C151.517 259.832 151.251 260.616 151.251 261.666V267H147.975V255.702H151.104V257.193ZM172.878 263.85H166.053L164.751 267H161.265L167.817 252.3H171.177L177.75 267H174.18L172.878 263.85ZM171.807 261.267L169.476 255.639L167.145 261.267H171.807ZM179.044 251.418H182.32V267H179.044V251.418ZM196.428 261.393C196.428 261.435 196.407 261.729 196.365 262.275H187.818C187.972 262.975 188.336 263.528 188.91 263.934C189.484 264.34 190.198 264.543 191.052 264.543C191.64 264.543 192.158 264.459 192.606 264.291C193.068 264.109 193.495 263.829 193.887 263.451L195.63 265.341C194.566 266.559 193.012 267.168 190.968 267.168C189.694 267.168 188.567 266.923 187.587 266.433C186.607 265.929 185.851 265.236 185.319 264.354C184.787 263.472 184.521 262.471 184.521 261.351C184.521 260.245 184.78 259.251 185.298 258.369C185.83 257.473 186.551 256.78 187.461 256.29C188.385 255.786 189.414 255.534 190.548 255.534C191.654 255.534 192.655 255.772 193.551 256.248C194.447 256.724 195.147 257.41 195.651 258.306C196.169 259.188 196.428 260.217 196.428 261.393ZM190.569 258.012C189.827 258.012 189.204 258.222 188.7 258.642C188.196 259.062 187.888 259.636 187.776 260.364H193.341C193.229 259.65 192.921 259.083 192.417 258.663C191.913 258.229 191.297 258.012 190.569 258.012ZM201.738 257.193C202.13 256.647 202.655 256.234 203.313 255.954C203.985 255.674 204.755 255.534 205.623 255.534V258.558C205.259 258.53 205.014 258.516 204.888 258.516C203.95 258.516 203.215 258.782 202.683 259.314C202.151 259.832 201.885 260.616 201.885 261.666V267H198.609V255.702H201.738V257.193ZM215.247 266.454C214.925 266.692 214.526 266.874 214.05 267C213.588 267.112 213.098 267.168 212.58 267.168C211.236 267.168 210.193 266.825 209.451 266.139C208.723 265.453 208.359 264.445 208.359 263.115V258.474H206.616V255.954H208.359V253.203H211.635V255.954H214.449V258.474H211.635V263.073C211.635 263.549 211.754 263.92 211.992 264.186C212.244 264.438 212.594 264.564 213.042 264.564C213.56 264.564 214.001 264.424 214.365 264.144L215.247 266.454Z" fill="white"/>
<path d="M343 256L349 261L355 256" stroke="white" stroke-linecap="round"/>
<path d="M53.27 308.18C52.2 308.18 51.23 307.95 50.36 307.49C49.5 307.02 48.82 306.375 48.32 305.555C47.83 304.725 47.585 303.79 47.585 302.75C47.585 301.71 47.83 300.78 48.32 299.96C48.82 299.13 49.5 298.485 50.36 298.025C51.23 297.555 52.205 297.32 53.285 297.32C54.195 297.32 55.015 297.48 55.745 297.8C56.485 298.12 57.105 298.58 57.605 299.18L56.045 300.62C55.335 299.8 54.455 299.39 53.405 299.39C52.755 299.39 52.175 299.535 51.665 299.825C51.155 300.105 50.755 300.5 50.465 301.01C50.185 301.52 50.045 302.1 50.045 302.75C50.045 303.4 50.185 303.98 50.465 304.49C50.755 305 51.155 305.4 51.665 305.69C52.175 305.97 52.755 306.11 53.405 306.11C54.455 306.11 55.335 305.695 56.045 304.865L57.605 306.305C57.105 306.915 56.485 307.38 55.745 307.7C55.005 308.02 54.18 308.18 53.27 308.18ZM67.0059 299.93V308H64.7859V307.04C64.4759 307.39 64.1059 307.66 63.6759 307.85C63.2459 308.03 62.7809 308.12 62.2809 308.12C61.2209 308.12 60.3809 307.815 59.7609 307.205C59.1409 306.595 58.8309 305.69 58.8309 304.49V299.93H61.1709V304.145C61.1709 305.445 61.7159 306.095 62.8059 306.095C63.3659 306.095 63.8159 305.915 64.1559 305.555C64.4959 305.185 64.6659 304.64 64.6659 303.92V299.93H67.0059ZM71.8888 308.12C71.2188 308.12 70.5638 308.04 69.9238 307.88C69.2838 307.71 68.7738 307.5 68.3938 307.25L69.1738 305.57C69.5338 305.8 69.9688 305.99 70.4788 306.14C70.9888 306.28 71.4888 306.35 71.9788 306.35C72.9688 306.35 73.4638 306.105 73.4638 305.615C73.4638 305.385 73.3288 305.22 73.0588 305.12C72.7888 305.02 72.3738 304.935 71.8138 304.865C71.1538 304.765 70.6088 304.65 70.1788 304.52C69.7488 304.39 69.3738 304.16 69.0538 303.83C68.7438 303.5 68.5887 303.03 68.5887 302.42C68.5887 301.91 68.7338 301.46 69.0238 301.07C69.3238 300.67 69.7538 300.36 70.3138 300.14C70.8838 299.92 71.5538 299.81 72.3238 299.81C72.8938 299.81 73.4588 299.875 74.0188 300.005C74.5888 300.125 75.0588 300.295 75.4288 300.515L74.6488 302.18C73.9388 301.78 73.1638 301.58 72.3238 301.58C71.8238 301.58 71.4488 301.65 71.1988 301.79C70.9488 301.93 70.8238 302.11 70.8238 302.33C70.8238 302.58 70.9588 302.755 71.2288 302.855C71.4988 302.955 71.9288 303.05 72.5188 303.14C73.1788 303.25 73.7188 303.37 74.1388 303.5C74.5588 303.62 74.9238 303.845 75.2338 304.175C75.5438 304.505 75.6988 304.965 75.6988 305.555C75.6988 306.055 75.5488 306.5 75.2488 306.89C74.9488 307.28 74.5088 307.585 73.9288 307.805C73.3588 308.015 72.6788 308.12 71.8888 308.12ZM82.3475 307.61C82.1175 307.78 81.8325 307.91 81.4925 308C81.1625 308.08 80.8125 308.12 80.4425 308.12C79.4825 308.12 78.7375 307.875 78.2075 307.385C77.6875 306.895 77.4275 306.175 77.4275 305.225V301.91H76.1825V300.11H77.4275V298.145H79.7675V300.11H81.7775V301.91H79.7675V305.195C79.7675 305.535 79.8525 305.8 80.0225 305.99C80.2025 306.17 80.4525 306.26 80.7725 306.26C81.1425 306.26 81.4575 306.16 81.7175 305.96L82.3475 307.61ZM87.252 308.12C86.402 308.12 85.637 307.945 84.957 307.595C84.287 307.235 83.762 306.74 83.382 306.11C83.002 305.48 82.812 304.765 82.812 303.965C82.812 303.165 83.002 302.45 83.382 301.82C83.762 301.19 84.287 300.7 84.957 300.35C85.637 299.99 86.402 299.81 87.252 299.81C88.102 299.81 88.862 299.99 89.532 300.35C90.202 300.7 90.727 301.19 91.107 301.82C91.487 302.45 91.677 303.165 91.677 303.965C91.677 304.765 91.487 305.48 91.107 306.11C90.727 306.74 90.202 307.235 89.532 307.595C88.862 307.945 88.102 308.12 87.252 308.12ZM87.252 306.2C87.852 306.2 88.342 306 88.722 305.6C89.112 305.19 89.307 304.645 89.307 303.965C89.307 303.285 89.112 302.745 88.722 302.345C88.342 301.935 87.852 301.73 87.252 301.73C86.652 301.73 86.157 301.935 85.767 302.345C85.377 302.745 85.182 303.285 85.182 303.965C85.182 304.645 85.377 305.19 85.767 305.6C86.157 306 86.652 306.2 87.252 306.2ZM103.576 299.81C104.586 299.81 105.386 300.11 105.976 300.71C106.576 301.3 106.876 302.19 106.876 303.38V308H104.536V303.74C104.536 303.1 104.401 302.625 104.131 302.315C103.871 301.995 103.496 301.835 103.006 301.835C102.456 301.835 102.021 302.015 101.701 302.375C101.381 302.725 101.221 303.25 101.221 303.95V308H98.8811V303.74C98.8811 302.47 98.3711 301.835 97.3511 301.835C96.8111 301.835 96.3811 302.015 96.0611 302.375C95.7411 302.725 95.5811 303.25 95.5811 303.95V308H93.2411V299.93H95.4761V300.86C95.7761 300.52 96.1411 300.26 96.5711 300.08C97.0111 299.9 97.4911 299.81 98.0111 299.81C98.5811 299.81 99.0961 299.925 99.5561 300.155C100.016 300.375 100.386 300.7 100.666 301.13C100.996 300.71 101.411 300.385 101.911 300.155C102.421 299.925 102.976 299.81 103.576 299.81ZM116.837 308.18C116.007 308.18 115.202 308.07 114.422 307.85C113.652 307.62 113.032 307.325 112.562 306.965L113.387 305.135C113.837 305.465 114.372 305.73 114.992 305.93C115.612 306.13 116.232 306.23 116.852 306.23C117.542 306.23 118.052 306.13 118.382 305.93C118.712 305.72 118.877 305.445 118.877 305.105C118.877 304.855 118.777 304.65 118.577 304.49C118.387 304.32 118.137 304.185 117.827 304.085C117.527 303.985 117.117 303.875 116.597 303.755C115.797 303.565 115.142 303.375 114.632 303.185C114.122 302.995 113.682 302.69 113.312 302.27C112.952 301.85 112.772 301.29 112.772 300.59C112.772 299.98 112.937 299.43 113.267 298.94C113.597 298.44 114.092 298.045 114.752 297.755C115.422 297.465 116.237 297.32 117.197 297.32C117.867 297.32 118.522 297.4 119.162 297.56C119.802 297.72 120.362 297.95 120.842 298.25L120.092 300.095C119.122 299.545 118.152 299.27 117.182 299.27C116.502 299.27 115.997 299.38 115.667 299.6C115.347 299.82 115.187 300.11 115.187 300.47C115.187 300.83 115.372 301.1 115.742 301.28C116.122 301.45 116.697 301.62 117.467 301.79C118.267 301.98 118.922 302.17 119.432 302.36C119.942 302.55 120.377 302.85 120.737 303.26C121.107 303.67 121.292 304.225 121.292 304.925C121.292 305.525 121.122 306.075 120.782 306.575C120.452 307.065 119.952 307.455 119.282 307.745C118.612 308.035 117.797 308.18 116.837 308.18ZM126.627 308.12C125.777 308.12 125.012 307.945 124.332 307.595C123.662 307.235 123.137 306.74 122.757 306.11C122.377 305.48 122.187 304.765 122.187 303.965C122.187 303.165 122.377 302.45 122.757 301.82C123.137 301.19 123.662 300.7 124.332 300.35C125.012 299.99 125.777 299.81 126.627 299.81C127.477 299.81 128.237 299.99 128.907 300.35C129.577 300.7 130.102 301.19 130.482 301.82C130.862 302.45 131.052 303.165 131.052 303.965C131.052 304.765 130.862 305.48 130.482 306.11C130.102 306.74 129.577 307.235 128.907 307.595C128.237 307.945 127.477 308.12 126.627 308.12ZM126.627 306.2C127.227 306.2 127.717 306 128.097 305.6C128.487 305.19 128.682 304.645 128.682 303.965C128.682 303.285 128.487 302.745 128.097 302.345C127.717 301.935 127.227 301.73 126.627 301.73C126.027 301.73 125.532 301.935 125.142 302.345C124.752 302.745 124.557 303.285 124.557 303.965C124.557 304.645 124.752 305.19 125.142 305.6C125.532 306 126.027 306.2 126.627 306.2ZM140.746 299.93V308H138.526V307.04C138.216 307.39 137.846 307.66 137.416 307.85C136.986 308.03 136.521 308.12 136.021 308.12C134.961 308.12 134.121 307.815 133.501 307.205C132.881 306.595 132.571 305.69 132.571 304.49V299.93H134.911V304.145C134.911 305.445 135.456 306.095 136.546 306.095C137.106 306.095 137.556 305.915 137.896 305.555C138.236 305.185 138.406 304.64 138.406 303.92V299.93H140.746ZM147.819 299.81C148.819 299.81 149.624 300.11 150.234 300.71C150.854 301.31 151.164 302.2 151.164 303.38V308H148.824V303.74C148.824 303.1 148.684 302.625 148.404 302.315C148.124 301.995 147.719 301.835 147.189 301.835C146.599 301.835 146.129 302.02 145.779 302.39C145.429 302.75 145.254 303.29 145.254 304.01V308H142.914V299.93H145.149V300.875C145.459 300.535 145.844 300.275 146.304 300.095C146.764 299.905 147.269 299.81 147.819 299.81ZM161.593 296.87V308H159.358V307.07C158.778 307.77 157.938 308.12 156.838 308.12C156.078 308.12 155.388 307.95 154.768 307.61C154.158 307.27 153.678 306.785 153.328 306.155C152.978 305.525 152.803 304.795 152.803 303.965C152.803 303.135 152.978 302.405 153.328 301.775C153.678 301.145 154.158 300.66 154.768 300.32C155.388 299.98 156.078 299.81 156.838 299.81C157.868 299.81 158.673 300.135 159.253 300.785V296.87H161.593ZM157.243 306.2C157.833 306.2 158.323 306 158.713 305.6C159.103 305.19 159.298 304.645 159.298 303.965C159.298 303.285 159.103 302.745 158.713 302.345C158.323 301.935 157.833 301.73 157.243 301.73C156.643 301.73 156.148 301.935 155.758 302.345C155.368 302.745 155.173 303.285 155.173 303.965C155.173 304.645 155.368 305.19 155.758 305.6C156.148 306 156.643 306.2 157.243 306.2ZM168.172 297.5H170.602V306.02H175.867V308H168.172V297.5ZM180.841 308.12C179.991 308.12 179.226 307.945 178.546 307.595C177.876 307.235 177.351 306.74 176.971 306.11C176.591 305.48 176.401 304.765 176.401 303.965C176.401 303.165 176.591 302.45 176.971 301.82C177.351 301.19 177.876 300.7 178.546 300.35C179.226 299.99 179.991 299.81 180.841 299.81C181.691 299.81 182.451 299.99 183.121 300.35C183.791 300.7 184.316 301.19 184.696 301.82C185.076 302.45 185.266 303.165 185.266 303.965C185.266 304.765 185.076 305.48 184.696 306.11C184.316 306.74 183.791 307.235 183.121 307.595C182.451 307.945 181.691 308.12 180.841 308.12ZM180.841 306.2C181.441 306.2 181.931 306 182.311 305.6C182.701 305.19 182.896 304.645 182.896 303.965C182.896 303.285 182.701 302.745 182.311 302.345C181.931 301.935 181.441 301.73 180.841 301.73C180.241 301.73 179.746 301.935 179.356 302.345C178.966 302.745 178.771 303.285 178.771 303.965C178.771 304.645 178.966 305.19 179.356 305.6C179.746 306 180.241 306.2 180.841 306.2ZM190.73 308.12C189.87 308.12 189.095 307.945 188.405 307.595C187.725 307.235 187.19 306.74 186.8 306.11C186.42 305.48 186.23 304.765 186.23 303.965C186.23 303.165 186.42 302.45 186.8 301.82C187.19 301.19 187.725 300.7 188.405 300.35C189.095 299.99 189.87 299.81 190.73 299.81C191.58 299.81 192.32 299.99 192.95 300.35C193.59 300.7 194.055 301.205 194.345 301.865L192.53 302.84C192.11 302.1 191.505 301.73 190.715 301.73C190.105 301.73 189.6 301.93 189.2 302.33C188.8 302.73 188.6 303.275 188.6 303.965C188.6 304.655 188.8 305.2 189.2 305.6C189.6 306 190.105 306.2 190.715 306.2C191.515 306.2 192.12 305.83 192.53 305.09L194.345 306.08C194.055 306.72 193.59 307.22 192.95 307.58C192.32 307.94 191.58 308.12 190.73 308.12ZM198.947 299.81C200.197 299.81 201.157 300.11 201.827 300.71C202.497 301.3 202.832 302.195 202.832 303.395V308H200.642V306.995C200.202 307.745 199.382 308.12 198.182 308.12C197.562 308.12 197.022 308.015 196.562 307.805C196.112 307.595 195.767 307.305 195.527 306.935C195.287 306.565 195.167 306.145 195.167 305.675C195.167 304.925 195.447 304.335 196.007 303.905C196.577 303.475 197.452 303.26 198.632 303.26H200.492C200.492 302.75 200.337 302.36 200.027 302.09C199.717 301.81 199.252 301.67 198.632 301.67C198.202 301.67 197.777 301.74 197.357 301.88C196.947 302.01 196.597 302.19 196.307 302.42L195.467 300.785C195.907 300.475 196.432 300.235 197.042 300.065C197.662 299.895 198.297 299.81 198.947 299.81ZM198.767 306.545C199.167 306.545 199.522 306.455 199.832 306.275C200.142 306.085 200.362 305.81 200.492 305.45V304.625H198.887C197.927 304.625 197.447 304.94 197.447 305.57C197.447 305.87 197.562 306.11 197.792 306.29C198.032 306.46 198.357 306.545 198.767 306.545ZM210.155 307.61C209.925 307.78 209.64 307.91 209.3 308C208.97 308.08 208.62 308.12 208.25 308.12C207.29 308.12 206.545 307.875 206.015 307.385C205.495 306.895 205.235 306.175 205.235 305.225V301.91H203.99V300.11H205.235V298.145H207.575V300.11H209.585V301.91H207.575V305.195C207.575 305.535 207.66 305.8 207.83 305.99C208.01 306.17 208.26 306.26 208.58 306.26C208.95 306.26 209.265 306.16 209.525 305.96L210.155 307.61ZM211.469 299.93H213.809V308H211.469V299.93ZM212.639 298.805C212.209 298.805 211.859 298.68 211.589 298.43C211.319 298.18 211.184 297.87 211.184 297.5C211.184 297.13 211.319 296.82 211.589 296.57C211.859 296.32 212.209 296.195 212.639 296.195C213.069 296.195 213.419 296.315 213.689 296.555C213.959 296.795 214.094 297.095 214.094 297.455C214.094 297.845 213.959 298.17 213.689 298.43C213.419 298.68 213.069 298.805 212.639 298.805ZM219.82 308.12C218.97 308.12 218.205 307.945 217.525 307.595C216.855 307.235 216.33 306.74 215.95 306.11C215.57 305.48 215.38 304.765 215.38 303.965C215.38 303.165 215.57 302.45 215.95 301.82C216.33 301.19 216.855 300.7 217.525 300.35C218.205 299.99 218.97 299.81 219.82 299.81C220.67 299.81 221.43 299.99 222.1 300.35C222.77 300.7 223.295 301.19 223.675 301.82C224.055 302.45 224.245 303.165 224.245 303.965C224.245 304.765 224.055 305.48 223.675 306.11C223.295 306.74 222.77 307.235 222.1 307.595C221.43 307.945 220.67 308.12 219.82 308.12ZM219.82 306.2C220.42 306.2 220.91 306 221.29 305.6C221.68 305.19 221.875 304.645 221.875 303.965C221.875 303.285 221.68 302.745 221.29 302.345C220.91 301.935 220.42 301.73 219.82 301.73C219.22 301.73 218.725 301.935 218.335 302.345C217.945 302.745 217.75 303.285 217.75 303.965C217.75 304.645 217.945 305.19 218.335 305.6C218.725 306 219.22 306.2 219.82 306.2ZM230.714 299.81C231.714 299.81 232.519 300.11 233.129 300.71C233.749 301.31 234.059 302.2 234.059 303.38V308H231.719V303.74C231.719 303.1 231.579 302.625 231.299 302.315C231.019 301.995 230.614 301.835 230.084 301.835C229.494 301.835 229.024 302.02 228.674 302.39C228.324 302.75 228.149 303.29 228.149 304.01V308H225.809V299.93H228.044V300.875C228.354 300.535 228.739 300.275 229.199 300.095C229.659 299.905 230.164 299.81 230.714 299.81Z" fill="white"/>
<rect x="248" y="128" width="114" height="21.5707" rx="4" fill="#36393F"/>
<path d="M247 171.005C247 168.796 248.791 167.005 251 167.005H357C359.209 167.005 361 168.796 361 171.005V184.576C361 186.785 359.209 188.576 357 188.576H251C248.791 188.576 247 186.785 247 184.576V171.005Z" fill="#36393F"/>
<rect x="248" y="209.12" width="114" height="21.5706" rx="4" fill="#36393F"/>
<rect x="248" y="250.207" width="114" height="21.5707" rx="4" fill="#36393F"/>
<rect x="248" y="293.429" width="114" height="21.5706" rx="4" fill="#36393F"/>
<defs>
<clipPath id="clip0">
<rect width="13" height="13" fill="white" transform="translate(336 39)"/>
</clipPath>
</defs>
</svg>
